<svg width="32" height="28" viewBox="0 0 32 28" fill="none" xmlns="http://www.w3.org/2000/svg">
<g clip-path="url(#clip0_1_262)">
<path d="M19.5185 3.5H8.03704C5.50062 3.5 3.44444 5.58934 3.44444 8.16667V19.8333C3.44444 22.4107 5.50062 24.5 8.03704 24.5H19.5185C22.0549 24.5 24.1111 22.4107 24.1111 19.8333V8.16667C24.1111 5.58934 22.0549 3.5 19.5185 3.5Z" stroke="#203090" stroke-width="2" stroke-linecap="round" stroke-linejoin="round"/>
<path d="M30.3075 4.17165C31.4818 5.20432 31.6056 6.99467 30.5946 8.18171L20.5946 19.9236C20.0887 20.5177 19.3591 20.8801 18.5743 20.9163C17.7893 20.9526 17.029 20.659 16.4705 20.1125L10.4705 14.2416M30.3075 4.17165L10.4705 14.2416M30.3075 4.17165C29.1191 3.12662 27.3171 3.26239 26.2942 4.46343L18.2566 13.9012L14.4184 10.1455C13.2885 9.03992 11.4817 9.07551 10.3953 10.222C9.32163 11.3549 9.35406 13.1491 10.4705 14.2416M30.3075 4.17165L10.4705 14.2416" fill="#203090" stroke="white" stroke-width="3" stroke-linecap="round" stroke-linejoin="round"/>
</g>
<defs>
<clipPath id="clip0_1_262">
<rect width="32" height="28" fill="white"/>
</clipPath>
</defs>
</svg>
