<svg width="80" height="90" viewBox="0 0 80 90" fill="none" xmlns="http://www.w3.org/2000/svg">
<path fill-rule="evenodd" clip-rule="evenodd" d="M10.7896 0.480719C10.3386 0.96315 10.3571 1.04472 11.415 3.24959C14.1373 8.92327 14.9515 16.6716 13.5494 23.5563C13.0103 26.2032 13.0577 26.6218 13.9196 26.8313C14.8485 27.0571 15.2421 26.5455 15.6795 24.5429C17.3698 16.808 16.4138 7.82794 13.2547 1.76787C12.2906 -0.082033 11.6353 -0.424276 10.7896 0.480719ZM67.012 0.420105C65.9933 1.54062 64.4 5.57194 63.5866 9.0884C62.9429 11.8712 62.7999 18.7443 63.3156 22.134C63.8985 25.9668 64.1929 26.7797 65.033 26.8742C66.2895 27.0157 66.3876 26.5215 65.7874 23.0801C64.5306 15.8731 65.4338 8.10832 68.132 2.92181C69.0019 1.24977 69.0614 0.596964 68.3765 0.241751C67.6905 -0.113712 67.4713 -0.0850263 67.012 0.420105ZM9.42668 13.8319C1.58251 16.7549 -1.57531 20.7782 0.744562 24.8931C3.06546 29.0103 11.1587 32.3686 22.765 34.0309C25.1557 34.3734 25.4857 34.3307 25.8731 33.6295C26.4452 32.5943 25.8566 32.2932 22.0912 31.6948C12.8696 30.2296 6.01076 27.658 3.37715 24.6786C1.667 22.7436 1.8978 21.1123 4.15379 19.189C5.59578 17.96 6.95947 17.2161 9.68659 16.1717C11.636 15.4251 12.7197 14.7179 12.7197 14.1923C12.7197 13.8299 11.9227 13.204 11.4779 13.2165C11.2399 13.2232 10.3169 13.5001 9.42668 13.8319ZM67.1231 13.5036C66.6066 14.0038 66.7555 14.9372 67.3935 15.1984C67.7124 15.3288 69.0163 15.8629 70.2914 16.3852C75.7073 18.6041 77.8765 20.9671 76.8644 23.5454C76.1805 25.287 72.1613 27.8279 67.8443 29.2472C65.0301 30.1727 61.227 31.0537 57.4118 31.6644C55.5701 31.9592 53.9032 32.3509 53.7077 32.5345C53.2778 32.9386 53.5019 34.0396 54.0562 34.2454C54.5412 34.4258 59.81 33.6001 63.2751 32.8009C67.1473 31.9076 69.7013 31.05 72.7352 29.6236C78.0622 27.1199 80.4725 23.5733 79.065 20.3108C78.1225 18.1266 74.9067 15.7579 70.6008 14.0766C68.1928 13.1362 67.6027 13.0391 67.1231 13.5036ZM26.1145 27.4228C25.7752 28.0367 25.8499 28.1798 28.2149 31.4513C29.2082 32.8258 29.9825 33.9792 29.9353 34.0147C26.6884 36.4605 24.7833 38.0108 24.5865 38.367C24.2789 38.9233 24.8951 39.8976 25.5496 39.8899C25.7894 39.8872 27.5846 38.6487 29.5389 37.1378L33.0924 34.3906L30.8526 31.2186C29.6211 29.474 28.3785 27.794 28.0918 27.4851C27.4452 26.7892 26.4813 26.759 26.1145 27.4228ZM49.044 30.5598C47.6087 32.5596 46.4701 34.2931 46.5137 34.412C46.627 34.7211 53.4313 39.8951 53.7244 39.8951C54.337 39.8951 54.9647 39.3286 54.9647 38.7759C54.9647 38.3069 54.3633 37.716 52.26 36.1183C50.7724 34.9883 49.5553 33.9965 49.5553 33.9144C49.5553 33.8326 50.4247 32.5427 51.4872 31.048C52.5498 29.5536 53.4192 28.1489 53.4192 27.9267C53.4192 27.3587 52.9024 26.9239 52.2273 26.9239C51.7796 26.9239 51.08 27.7231 49.044 30.5598ZM9.27239 36.4513C9.01299 36.592 8.39554 37.5646 7.90019 38.6127C4.82713 45.1153 3.45649 51.3969 3.45649 58.9779C3.45649 68.3603 5.72509 76.963 10.6188 86.1394C12.4441 89.5619 13.0889 90.2608 13.9904 89.7936C14.2833 89.6417 14.5229 89.3246 14.5229 89.0889C14.5229 88.8529 13.5046 86.6962 12.2599 84.2958C9.04184 78.0898 7.09007 72.1846 6.15862 65.8374C5.75884 63.1137 5.60789 54.2346 5.95795 54.0303C6.06408 53.9682 7.02052 54.4185 8.08308 55.0309C9.14565 55.6432 13.3197 57.7508 17.359 59.7145C27.0413 64.4218 28.6221 65.4505 33.469 70.2C35.6016 72.2894 37.601 74.131 37.9124 74.2924C38.4755 74.584 38.4789 74.6279 38.4789 81.6658C38.4789 85.56 38.5505 88.9268 38.6381 89.1475C38.8902 89.7844 39.6867 90.0932 40.282 89.7846C40.7794 89.5267 40.7972 89.2623 40.7972 82.0732V74.6289L41.5751 74.3169C42.003 74.1453 43.3072 72.9387 44.473 71.6358C46.7944 69.0416 50.2238 66.129 53.0328 64.3659C54.0245 63.7433 58.0236 61.6953 61.9197 59.8148C65.8158 57.9342 69.9888 55.8313 71.193 55.1416L73.3825 53.8874L73.5567 54.9361C73.8233 56.5425 73.7985 60.7552 73.5054 63.6286C72.7427 71.1025 70.4903 78.1526 66.477 85.6268L64.6244 89.0772L65.2326 89.5556C66.0048 90.1633 66.1615 90.156 66.809 89.4828C67.5669 88.695 71.2484 81.3795 72.3509 78.4704C73.6082 75.153 74.9283 70.0708 75.4734 66.4488C76.1498 61.956 76.0867 54.944 75.3327 50.7461C74.6192 46.7756 73.3877 42.7663 71.8084 39.2743C70.6276 36.6633 70.0704 36.0117 69.2727 36.3083C68.2905 36.6733 68.3512 37.2582 69.6683 40.1164C70.3754 41.6512 70.8895 43.0077 70.811 43.1312C70.541 43.554 67.2006 45.5751 65.0484 46.6175C52.81 52.5449 34.251 53.4611 19.8823 48.8468C15.7531 47.5207 9.52431 44.3064 8.77266 43.1135C8.58693 42.8187 8.84066 42.0217 9.74635 40.057C10.42 38.5953 10.9076 37.2385 10.8295 37.0422C10.6 36.4627 9.80689 36.1617 9.27239 36.4513ZM9.04854 46.2244C14.3797 49.8883 23.4415 52.7631 32.3951 53.6312C36.8053 54.0588 47.2643 53.7904 50.9721 53.1545C58.6684 51.8347 64.9147 49.6488 69.8816 46.5374C71.1152 45.7644 71.7628 45.486 71.8403 45.6948C72.1474 46.519 72.9928 50.3215 72.9943 50.885C72.9959 51.4383 72.5783 51.7576 69.8406 53.2974C68.105 54.2735 63.7293 56.4921 60.1166 58.2275C51.3255 62.4504 49.3964 63.7226 44.337 68.633C42.1045 70.7999 40.0973 72.5727 39.8766 72.5727C39.2267 72.5727 38.4732 72.0868 37.6157 71.1142C35.8986 69.167 33.1236 66.4832 31.5239 65.223C28.5129 62.8505 26.3471 61.6118 18.8378 57.9678C14.765 55.9915 10.3022 53.7093 8.92052 52.8963C6.49375 51.4685 6.4108 51.3904 6.47185 50.5835C6.54243 49.6485 7.57022 45.383 7.72503 45.383C7.77964 45.383 8.37519 45.7616 9.04854 46.2244Z" fill="#F8F8F8"/>
</svg>
