<svg width="91" height="91" viewBox="0 0 91 91" fill="none" xmlns="http://www.w3.org/2000/svg">
<path d="M24.9825 11.9732C27.0806 16.8603 27.9653 21.9579 27.662 27.2747C27.3671 32.583 25.3701 37.3774 23.1457 42.2139C38.1017 42.2139 52.8892 42.2139 67.8115 42.2139C67.2723 40.9416 66.8004 39.7282 66.2527 38.5402C63.9272 33.4846 62.9498 28.1847 63.3626 22.6404C63.6154 19.2616 64.3906 15.984 65.6629 12.8411C65.7809 12.563 65.8904 12.2765 66.0252 11.9479C64.8793 11.8974 63.7839 11.8637 62.6886 11.7878C58.0796 11.4508 53.8413 9.99312 49.9654 7.49905C49.6621 7.30525 49.3503 7.01877 49.2071 6.69859C48.9796 6.1846 49.1228 5.67062 49.5862 5.30831C50.0749 4.92914 50.5721 4.98812 51.1029 5.2746C52.5943 6.07507 54.052 6.96822 55.6108 7.61701C59.4951 9.23479 63.5733 9.74035 67.7441 9.20109C68.5699 9.09155 69.3872 8.6534 70.1287 8.2321C70.8617 7.81923 71.5779 7.80238 72.0245 8.37535C72.4542 8.93146 72.3699 9.68979 71.6959 10.1616C71.0302 10.6251 70.255 10.9368 69.5388 11.3497C69.2692 11.5014 68.949 11.6867 68.8311 11.9479C66.3623 17.1299 65.3933 22.5899 65.9662 28.3111C66.3454 32.1449 67.7104 35.6585 69.2102 39.1553C72.6059 47.0756 74.1647 55.3667 73.6591 63.9865C73.2125 71.5108 71.1819 78.5465 66.9268 84.8659C66.396 85.658 65.7893 85.9866 64.8287 85.9781C59.3519 85.9444 53.875 85.9613 48.4066 85.9613C46.9995 85.9613 46.6287 85.599 46.6287 84.2171C46.6287 78.4369 46.595 72.6567 46.654 66.8681C46.6709 65.5705 46.9911 64.2729 47.1764 62.9417C46.0979 62.9417 44.9099 62.9417 43.7724 62.9417C44.9099 67.9298 44.1684 72.9938 44.3537 78.0072C44.4296 80.1053 44.3706 82.2033 44.3622 84.3098C44.3622 85.5316 43.9662 85.9529 42.7697 85.9529C37.1074 85.9613 31.4452 85.9444 25.7746 85.9613C24.9741 85.9613 24.536 85.5484 24.1231 84.9502C21.1235 80.535 19.1687 75.6901 18.166 70.4744C15.9668 59.0152 17.7531 48.0615 22.4716 37.4953C26.2633 29.002 26.0358 20.5255 22.2357 12.0996C22.084 11.771 21.688 11.5182 21.351 11.3076C20.6348 10.861 19.8427 10.5408 19.1687 10.0353C18.562 9.58025 18.5536 8.80507 19.0001 8.28266C19.4636 7.7434 20.1461 7.69285 20.7612 8.18155C21.8565 9.04942 23.1457 9.26849 24.477 9.34433C29.996 9.66451 35.0852 8.34164 39.7532 5.36729C40.5284 4.87016 41.2614 4.96285 41.6743 5.58636C42.0787 6.19303 41.8512 6.95979 41.1013 7.44007C36.4418 10.4565 31.3188 11.9142 25.7746 11.889C25.5639 11.889 25.3533 11.8805 25.1342 11.889C25.1174 11.8974 25.0752 11.9311 24.9825 11.9732ZM49.1228 83.3745C49.2829 83.4082 49.3756 83.4335 49.4599 83.4335C54.4564 83.4335 59.4614 83.4419 64.458 83.4167C64.6939 83.4167 65.031 83.1892 65.1489 82.9701C66.2022 81.0321 67.3565 79.1194 68.2244 77.0972C70.1371 72.6567 71.0808 67.9635 71.1903 63.1523C71.2577 60.1442 70.946 57.1278 70.8027 54.1197C70.7859 53.7321 70.6426 53.513 70.1876 53.5973C68.1233 53.9765 66.0336 54.204 64.003 54.7095C59.335 55.8723 55.0631 57.8271 51.7264 61.4334C51.5663 61.6019 51.3894 61.7789 51.1787 61.88C50.3446 62.2929 49.9064 63.0259 49.7042 63.8517C49.443 64.9133 49.1481 66.0087 49.1397 67.0956C49.0807 72.2607 49.1144 77.4258 49.1144 82.5909C49.1228 82.8521 49.1228 83.1049 49.1228 83.3745ZM41.8765 83.4419C41.8765 83.0712 41.8765 82.7931 41.8765 82.5151C41.8765 77.4932 41.8765 72.463 41.8765 67.4411C41.8765 66.9945 41.8934 66.5395 41.826 66.1014C41.5816 64.3825 41.2699 62.6889 39.5678 61.7115C39.3319 61.5767 39.1634 61.3154 38.9443 61.1385C37.6299 60.0768 36.3828 58.8972 34.9673 57.9956C31.4705 55.7796 27.5693 54.6421 23.508 53.9933C22.4463 53.8248 21.3847 53.7068 20.2893 53.5552C20.2303 53.9006 20.1798 54.1281 20.1461 54.3641C19.6068 58.6192 19.5478 62.8658 20.1124 67.1293C20.8707 72.7663 22.6149 78.0325 25.6903 82.8437C25.9768 83.2903 26.2717 83.4756 26.8194 83.4672C30.9734 83.4419 35.1189 83.4504 39.2729 83.4504C40.1155 83.4419 40.9412 83.4419 41.8765 83.4419ZM70.3477 50.9263C69.8759 49.14 69.3619 47.3116 68.9069 45.4663C68.7636 44.9017 68.5193 44.7501 67.9379 44.7501C60.7927 44.7753 53.6391 44.7669 46.4939 44.7669C38.6662 44.7669 30.8301 44.7754 23.0024 44.7585C22.4969 44.7585 22.2525 44.8849 22.1262 45.3989C21.8565 46.5195 21.5026 47.6233 21.2162 48.7355C21.0224 49.5023 20.8791 50.2775 20.719 50.9853C22.8929 51.3813 24.991 51.6678 27.0469 52.148C32.3468 53.3867 37.158 55.569 40.9918 59.605C41.3962 60.0347 42.1377 60.3128 42.7444 60.3465C44.5812 60.4392 46.4265 60.4392 48.2634 60.3465C48.8616 60.3128 49.6031 60.0263 50.0075 59.5966C53.538 55.8891 57.9279 53.7153 62.7981 52.4514C65.2332 51.811 67.7273 51.4403 70.3477 50.9263Z" fill="#13A2B7"/>
<path d="M18.7308 28.5976C18.3348 28.5976 18.0905 28.5976 17.8377 28.5976C14.3746 28.5976 10.9032 28.5976 7.44011 28.5976C7.1789 28.5976 6.9177 28.5976 6.66492 28.5386C6.02455 28.3869 5.64538 27.8561 5.71279 27.2326C5.7802 26.5922 6.17622 26.2215 6.79973 26.1035C7.00196 26.0698 7.22103 26.0867 7.43168 26.0867C10.92 26.0867 14.4168 26.0867 17.9051 26.0867C18.1326 26.0867 18.3601 26.0867 18.7224 26.0867C18.2758 25.4547 17.9051 24.9492 17.5428 24.4352C17.0457 23.719 17.1046 22.9859 17.686 22.5562C18.2843 22.1181 19.0089 22.2529 19.5229 22.9522C20.3908 24.1234 21.2333 25.3199 22.0928 26.4995C22.5057 27.0641 22.5141 27.6202 22.0928 28.1931C21.2333 29.3728 20.3908 30.5693 19.5229 31.7489C19.0258 32.4314 18.2758 32.5746 17.6776 32.1449C17.1046 31.732 17.0204 31.0074 17.4838 30.3249C17.8798 29.7772 18.2674 29.2548 18.7308 28.5976Z" fill="#13A2B7"/>
<path d="M72.2778 26.095C73.2131 26.095 73.9883 26.095 74.7635 26.095C77.6873 26.095 80.6111 26.095 83.5349 26.095C83.6781 26.095 83.8214 26.0866 83.9562 26.095C84.7735 26.1287 85.2959 26.6258 85.2959 27.342C85.2959 28.0667 84.7735 28.5891 83.9646 28.5891C81.9171 28.6059 79.8612 28.5975 77.8137 28.5975C76.0274 28.5975 74.2327 28.5975 72.2863 28.5975C72.7244 29.2042 73.0867 29.7097 73.4406 30.2153C73.9799 30.9821 73.9209 31.6898 73.2805 32.1448C72.6654 32.5746 71.9408 32.3976 71.41 31.6561C70.5758 30.5102 69.7669 29.3558 68.9243 28.2183C68.4862 27.6201 68.4862 27.064 68.9243 26.4658C69.7753 25.303 70.6011 24.1318 71.4521 22.969C71.9745 22.2612 72.6654 22.1011 73.2805 22.5308C73.8872 22.9521 73.9715 23.6936 73.4827 24.4014C73.1204 24.9238 72.7413 25.4378 72.2778 26.095Z" fill="#13A2B7"/>
<path d="M13.8855 14.7791C13.4558 14.1725 13.085 13.6669 12.7312 13.1529C12.2256 12.4199 12.293 11.7374 12.8997 11.2824C13.4726 10.8527 14.231 10.9959 14.7365 11.6868C15.6044 12.8664 16.447 14.0545 17.3064 15.2426C17.7193 15.8155 17.7024 16.3716 17.2896 16.9362C16.4301 18.1158 15.5875 19.3123 14.7197 20.4835C14.2057 21.1828 13.4811 21.3092 12.8828 20.8542C12.3099 20.4161 12.234 19.7251 12.7059 19.0342C13.0766 18.495 13.4642 17.9726 13.9445 17.3069C13.54 17.3069 13.2957 17.3069 13.0513 17.3069C9.48717 17.3069 5.93143 17.2985 2.36727 17.3153C1.76903 17.3153 1.29718 17.1552 1.01912 16.5991C0.656806 15.8661 1.09495 15.0066 1.90384 14.8802C2.22403 14.8297 2.56106 14.8465 2.88968 14.8465C6.3106 14.8465 9.73153 14.8465 13.144 14.8465C13.3547 14.8381 13.5569 14.8128 13.8855 14.7791Z" fill="#13A2B7"/>
<path d="M77.0808 17.3069C77.5526 17.9641 77.9234 18.4781 78.2773 19.0005C78.7828 19.7336 78.707 20.4329 78.1087 20.8711C77.5021 21.3177 76.7943 21.1744 76.2719 20.4666C75.4209 19.3039 74.5951 18.1326 73.7441 16.9699C73.2891 16.3548 73.306 15.7734 73.7525 15.1583C74.5867 14.0208 75.404 12.8664 76.2382 11.7205C76.7437 11.0212 77.4852 10.8442 78.0666 11.2571C78.6985 11.7037 78.7744 12.4283 78.252 13.1782C77.9065 13.6753 77.5442 14.164 77.0892 14.796C77.4599 14.8128 77.6959 14.8381 77.9402 14.8381C81.3864 14.8381 84.8242 14.8381 88.2704 14.8381C88.5569 14.8381 88.8434 14.8297 89.113 14.8802C89.7281 14.9814 90.1325 15.5206 90.0988 16.1526C90.0651 16.7255 89.6101 17.2311 89.0372 17.2985C88.8265 17.3238 88.6159 17.3069 88.4052 17.3069C84.9422 17.3069 81.4707 17.3069 78.0076 17.3069C77.7548 17.3069 77.5021 17.3069 77.0808 17.3069Z" fill="#13A2B7"/>
<path d="M49.3582 29.7689C49.3582 31.9259 47.6561 33.6364 45.5075 33.628C43.3336 33.6195 41.6569 31.9428 41.6484 29.7773C41.6484 27.6119 43.3421 25.9098 45.4907 25.9182C47.6646 25.9182 49.3497 27.6119 49.3582 29.7689ZM46.8978 29.752C46.8809 29.0106 46.19 28.3533 45.457 28.3786C44.7576 28.3955 44.1088 29.0611 44.1088 29.7689C44.1088 30.5104 44.766 31.1676 45.5075 31.1676C46.2574 31.1592 46.9146 30.4935 46.8978 29.752Z" fill="#13A2B7"/>
</svg>
