<svg width="108" height="79" viewBox="0 0 108 79" fill="none" xmlns="http://www.w3.org/2000/svg">
<path fill-rule="evenodd" clip-rule="evenodd" d="M17.1108 17.2181C17.1108 29.2794 16.9782 34.523 16.6673 34.7257C15.6848 35.3669 13.0175 40.3427 12.2474 42.9709C11.2951 46.222 11.1299 51.8429 11.8894 55.1357C12.547 57.9845 14.8402 62.5869 16.7347 64.8596C22.8652 72.2142 33.5012 74.3643 42.1362 69.9938C45.4377 68.3232 49.8963 63.9562 51.3288 60.9899C52.154 59.2809 52.3 59.1804 53.9514 59.1804C55.6507 59.1804 55.7418 59.2515 57.1678 61.6915C61.2769 68.7217 69.3894 72.989 77.1895 72.2235C85.7898 71.3793 92.7432 65.6004 95.6488 56.8822C97.9287 50.0415 96.3806 40.7647 92.1006 35.6168L90.8903 34.1611V17.0806V0H87.5383H84.186L83.2579 19.4784C82.7475 30.1918 82.3056 38.979 82.2762 39.0059C82.2464 39.0331 76.3214 43.2 69.1096 48.2661C56.6969 56.9856 55.8958 57.4774 54.1062 57.4774C52.3197 57.4774 51.4916 56.9724 39.0846 48.321C31.8623 43.2852 25.8801 38.9267 25.7902 38.635C25.6346 38.1288 23.9465 3.60106 23.9586 1.17084L23.9647 0H20.5377H17.1108V17.2181ZM22.5096 7.13145C22.6532 10.1169 23.0495 18.0892 23.3905 24.8473C23.7312 31.6053 23.9231 37.2266 23.8171 37.339C23.7107 37.451 22.5209 36.7523 21.1735 35.7858L18.7235 34.0287V17.8661V1.70303H20.4861H22.2484L22.5096 7.13145ZM89.2776 17.8661V34.0287L86.8275 35.7858C85.4802 36.7523 84.3029 37.4642 84.2114 37.368C84.0155 37.1606 85.6184 3.01224 85.8607 2.23523C85.9571 1.92656 86.7094 1.70303 87.6524 1.70303H89.2776V17.8661ZM34.6486 47.3967C43.2965 53.4727 50.4406 58.5069 50.5248 58.5831C50.8691 58.8969 47.9905 63.0578 46.217 64.8098C42.1809 68.7966 38.0872 70.4617 32.4311 70.4162C29.4735 70.3928 28.0693 70.168 26.2671 69.4297C20.7808 67.1821 16.2779 62.5988 14.2419 57.1896C12.8873 53.5898 12.8687 46.0564 14.2052 42.363C15.3486 39.2034 17.7527 35.6104 18.4356 36.0409C18.7049 36.2103 26.0006 41.3207 34.6486 47.3967ZM92.4807 39.3546C95.7968 45.5114 95.8456 53.0542 92.6126 59.8008C92.0465 60.9818 90.471 63.0974 89.1111 64.5024C83.6829 70.1109 76.0162 71.9779 68.9524 69.411C66.0298 68.3491 64.1974 67.1698 61.778 64.7932C60.0122 63.0587 57.1307 58.8986 57.4762 58.5827C57.5605 58.506 64.8776 53.3458 73.7371 47.1157C91.905 34.34 90.1678 35.0595 92.4807 39.3546ZM41.704 37.3718C41.704 37.8955 42.5075 38.4984 44.3112 39.3282C49.6403 41.7801 52.5757 45.8955 52.9092 51.3818C53.0878 54.3187 53.1535 54.4971 54.0538 54.4971C54.9415 54.4971 55.0085 54.334 55.0085 52.1716C55.0085 46.7287 58.3197 41.7835 63.5757 39.3754C65.4718 38.5069 66.2971 37.8993 66.2971 37.3718C66.2971 36.278 65.1735 36.4249 62.4158 37.8801C59.1574 39.5998 56.8046 41.8197 55.3447 44.5518L54.1235 46.8368L52.606 44.3572C50.822 41.4425 48.3735 39.2085 45.3159 37.7056C42.7062 36.4224 41.704 36.33 41.704 37.3718ZM17.5926 42.2957C17.9228 46.4996 20.6063 48.846 24.5883 48.4117L26.6945 48.1822L26.9557 49.9061C27.4645 53.2679 31.6184 56.0281 34.5457 54.9501C35.2227 54.701 35.8173 54.4971 35.8665 54.4971C35.9161 54.4971 36.077 55.2928 36.2245 56.2657C36.8885 60.651 42.6317 63.2758 45.9529 60.711C46.5928 60.2171 46.6295 60.0175 46.184 59.4508C45.7014 58.8368 45.5453 58.8368 44.4233 59.4495C41.1456 61.2394 37.1873 57.8725 37.894 53.8955C38.2045 52.1477 37.357 51.6526 35.6508 52.5841C34.1381 53.4101 31.6397 53.3961 30.5028 52.5552C29.0998 51.5176 28.2818 49.4804 28.5184 47.6143C28.791 45.4697 27.9661 44.9026 26.2155 46.03C22.9495 48.1328 19.1267 45.7077 19.1267 41.5327C19.1267 40.2759 18.9823 40.0213 18.2703 40.0213C17.4821 40.0213 17.4281 40.2018 17.5926 42.2957ZM88.8744 41.5327C88.8744 45.7141 85.0512 48.1328 81.7763 46.0236C80.0153 44.8898 79.4714 45.4233 79.4323 48.3219C79.4032 50.4894 79.2658 50.862 78.0833 51.9774C76.5605 53.4144 73.9528 53.68 72.4301 52.5539C71.935 52.1878 71.1907 52.0017 70.7767 52.1405C70.1542 52.3491 70.032 52.7923 70.0752 54.6929C70.1203 56.694 69.974 57.1619 68.9479 58.294C67.4679 59.9272 65.4642 60.3794 63.6818 59.4819C62.3997 58.836 61.4591 59.114 61.4591 60.1388C61.4591 60.7268 64.1374 61.735 65.6996 61.735C68.5556 61.735 71.3347 59.186 71.7951 56.1439C71.9676 55.0054 72.2225 54.5196 72.5728 54.6618C72.859 54.7781 73.696 54.9884 74.4326 55.1293C77.1975 55.659 81.2143 52.2452 81.2143 49.3654C81.2143 48.1967 81.2247 48.1924 83.5325 48.3934C87.6153 48.7489 90.4871 46.145 90.4871 42.0871C90.4871 40.3053 90.3762 40.0213 89.6808 40.0213C89.026 40.0213 88.8744 40.3053 88.8744 41.5327ZM3.13225 42.311C1.83203 43.4661 -0.361595 47.3988 0.0508437 47.8348C0.62979 48.4462 1.71713 48.0536 1.93968 47.1527C2.31785 45.623 3.99905 43.6769 4.69814 43.96C5.03761 44.0975 5.71775 45.0878 6.20961 46.1603C6.82444 47.5014 7.35259 48.1107 7.9013 48.1107C8.53749 48.1107 8.64554 47.917 8.43509 47.1527C8.00894 45.6038 6.0939 42.5026 5.16662 41.8593C4.39899 41.3267 4.18653 41.3739 3.13225 42.311ZM102.198 42.621C100.929 43.9617 100.09 45.4148 99.5821 47.1527C99.3547 47.931 99.4575 48.1107 100.13 48.1107C100.675 48.1107 101.16 47.6373 101.547 46.727C101.871 45.9662 102.423 44.9643 102.773 44.5011C103.611 43.3941 104.506 43.9715 105.599 46.3234C106.339 47.914 107.29 48.5318 107.94 47.845C108.518 47.2353 104.746 41.2986 103.781 41.2986C103.599 41.2986 102.887 41.8938 102.198 42.621ZM3.585 47.2928C3.17498 47.9936 3.75715 53.0525 4.65662 56.6016C5.41417 59.593 8.43388 66.426 8.99146 66.4119C9.13337 66.4081 9.4801 66.2506 9.76231 66.0615C10.1506 65.801 9.83892 64.8136 8.47944 62.0002C6.47369 57.8491 5.419 53.6732 5.419 49.8819C5.419 47.9659 5.26378 47.2873 4.78119 47.0919C3.93938 46.7508 3.89826 46.7576 3.585 47.2928ZM102.799 49.8976C102.408 54.3642 101.157 58.9335 99.3636 62.4541C98.0029 65.124 97.8812 65.583 98.4093 66.0458C99.1564 66.7002 99.26 66.5575 101.393 61.9478C103.327 57.7661 104.207 54.2191 104.314 50.1658C104.383 47.5964 104.285 47.0506 103.734 46.9318C103.186 46.8134 103.024 47.3265 102.799 49.8976ZM17.3797 73.5144C16.6677 74.2663 17.3511 75.0122 20.0338 76.4117C23.0551 77.9874 27.0747 79.3167 27.6617 78.9335C28.647 78.2902 27.7427 77.4906 25.0734 76.6446C23.4655 76.1354 21.2005 75.1587 20.0398 74.4745C17.7023 73.0963 17.7567 73.1163 17.3797 73.5144ZM88.2697 74.311C87.3827 74.8901 85.1605 75.8812 83.3309 76.5135C81.5013 77.1461 80.0076 77.7678 80.0108 77.8951C80.0144 78.0224 80.1697 78.3808 80.3563 78.6917C80.8171 79.4593 83.2031 78.7734 87.596 76.6105C90.0984 75.3784 90.9201 74.7734 90.8213 74.2357C90.6201 73.1398 90.038 73.1572 88.2697 74.311Z" fill="#13A2B7"/>
</svg>
