<svg width="18" height="18" viewBox="0 0 18 18" fill="none" xmlns="http://www.w3.org/2000/svg">
<g clip-path="url(#clip0_5_764)">
<path d="M15.9375 18H2.06255C0.924774 18 0 17.0752 0 15.9374V3.56241C0 2.42464 0.924774 1.5 2.06255 1.5H15.9375C17.0752 1.5 18 2.42464 18 3.56241V15.9374C18 17.0752 17.0752 18 15.9375 18ZM2.06255 2.625C1.54578 2.625 1.125 3.04564 1.125 3.56241V15.9374C1.125 16.4542 1.54578 16.875 2.06255 16.875H15.9375C16.4542 16.875 16.875 16.4542 16.875 15.9374V3.56241C16.875 3.04564 16.4542 2.625 15.9375 2.625H2.06255Z" fill="#13A2B7"/>
<path d="M17.4375 7.125H0.5625C0.251999 7.125 0 6.873 0 6.5625C0 6.252 0.251999 6 0.5625 6H17.4375C17.748 6 18 6.252 18 6.5625C18 6.873 17.748 7.125 17.4375 7.125Z" fill="#13A2B7"/>
<path d="M4.31255 4.5C4.00204 4.5 3.75005 4.248 3.75005 3.9375V0.5625C3.75005 0.251999 4.00204 0 4.31255 0C4.62305 0 4.87505 0.251999 4.87505 0.5625V3.9375C4.87505 4.248 4.62305 4.5 4.31255 4.5Z" fill="#13A2B7"/>
<path d="M13.6875 4.5C13.377 4.5 13.125 4.248 13.125 3.9375V0.5625C13.125 0.251999 13.377 0 13.6875 0C13.998 0 14.25 0.251999 14.25 0.5625V3.9375C14.25 4.248 13.998 4.5 13.6875 4.5Z" fill="#13A2B7"/>
</g>
<defs>
<clipPath id="clip0_5_764">
<rect width="18" height="18" fill="white"/>
</clipPath>
</defs>
</svg>
