<svg width="92" height="92" viewBox="0 0 92 92" fill="none" xmlns="http://www.w3.org/2000/svg">
<path d="M35.1731 50.9066C33.2394 49.8503 31.0501 49.2285 29.7383 47.4822C29.7638 41.0848 32.9242 37.3707 38.9638 36.5444C39.3727 34.3211 39.4579 31.9614 40.7187 30.0618C45.8383 28.1537 50.762 30.1299 53.7435 35.2496C55.0128 35.0707 56.3246 34.8833 57.645 34.6959C59.4679 34.4403 60.1835 34.8237 61.0524 36.4677C62.262 38.7677 62.6113 41.2296 62.2705 43.7851C62.0661 45.344 61.342 46.6985 60.2687 47.84C59.8939 48.2403 59.4168 48.53 58.9994 48.8537C60.192 50.8555 61.2568 52.6359 61.6146 54.8422C60.2857 57.3381 58.0453 58.7096 55.4302 59.604C52.7468 60.524 50.2424 60.0385 47.8827 58.5307C46.7838 59.587 45.719 60.5837 44.6798 61.6144C43.5213 62.7559 42.3201 62.8837 40.855 62.117C38.8872 61.0863 37.3624 59.6211 36.1527 57.8322C34.7557 55.7196 34.6961 53.3514 35.1731 50.9066ZM39.3216 39.0659C35.1135 39.5174 32.7027 42.0644 32.2938 46.5366C33.282 47.0477 34.3212 47.7122 35.4457 48.1296C38.1205 49.1092 40.7357 48.8026 43.2146 47.414C43.7513 47.1159 44.305 46.7837 44.0835 45.8977C41.8516 44.177 40.2842 41.894 39.3216 39.0659ZM58.829 54.3481C57.7983 50.2081 53.8372 46.5622 49.4076 47.3459C49.3394 47.4396 49.2116 47.5418 49.2116 47.644C49.2116 47.9933 49.2031 48.3681 49.2968 48.7003C49.8676 50.8129 49.8931 52.917 49.3309 55.0381C49.2287 55.43 49.1605 55.8389 49.0839 56.1966C52.4231 58.3348 55.8987 57.6703 58.829 54.3481ZM42.4394 59.9533C46.7157 57.7044 48.5387 51.3752 46.0683 48.6322C43.5979 50.3529 40.8635 51.4689 37.8224 51.2644C36.8427 55.1318 38.4527 58.1048 42.4394 59.9533ZM48.675 44.3985C51.8609 44.5603 54.7913 45.2077 57.1935 47.1159C60.2772 44.4411 60.7202 40.6844 58.4713 37.3622C54.3994 36.9022 49.7313 39.5259 48.675 44.3985ZM51.1879 36.5359C50.5831 32.907 45.8809 31.2714 42.5757 32.2425C40.5653 36.8596 42.1498 41.4 45.8298 43.7937C46.9542 40.8292 48.5557 38.2055 51.1879 36.5359Z" fill="#13A2B7"/>
<path d="M77.435 83.9501C76.745 83.882 76.2935 83.8394 75.6887 83.7798C75.6376 83.2176 75.4672 82.715 75.5865 82.289C75.808 81.4627 76.1572 80.6705 76.5065 79.8953C78.5594 75.2783 79.8372 70.4142 80.5869 65.4479C81.3706 60.2857 81.3535 55.0809 80.7828 49.8675C80.3228 45.6509 79.4709 41.5279 78.1676 37.5072C77.7331 36.1698 77.1965 34.8664 76.6683 33.5546C74.462 28.0346 72.358 22.472 71.0205 16.6709C70.5179 14.4816 70.3561 12.2072 70.1005 9.95828C70.0154 9.20013 70.2965 8.51013 71.1142 8.07568C71.3016 8.10976 71.5657 8.10124 71.7617 8.21198C72.0172 8.35679 72.2302 8.58679 72.4261 8.75717C72.5965 10.4609 72.6476 12.122 72.9457 13.732C73.3802 16.0746 73.8231 18.4342 74.5813 20.6831C76.0209 24.9764 77.6054 29.2272 79.258 33.4438C81.098 38.1461 82.3758 42.9846 82.9295 47.9935C83.2702 51.0261 83.6024 54.0842 83.6024 57.1338C83.6109 64.8687 82.0521 72.3309 79.2409 79.529C78.6957 80.9601 78.0994 82.3572 77.435 83.9501Z" fill="#13A2B7"/>
<path d="M19.5169 8.59521C20.0876 8.36521 20.5732 8.1778 20.9054 8.0415C21.8765 8.51854 21.7828 9.22558 21.7998 9.89854C21.9106 13.1867 21.2291 16.3471 20.3432 19.4819C18.8098 24.9167 16.7824 30.1811 14.6443 35.3945C13.3324 38.5974 12.5487 41.9282 11.9098 45.293C11.1772 49.1434 10.7002 53.0534 10.7769 56.9719C10.8876 62.4919 11.535 67.9608 13.2387 73.2508C14.0991 75.9256 15.1554 78.5408 16.0924 81.1986C16.365 81.9738 16.9613 82.7489 16.1861 83.8052C15.8198 83.8393 15.3087 83.8819 14.6443 83.933C13.7924 81.8545 12.9491 79.8952 12.1909 77.8934C10.5554 73.583 9.58427 69.0938 8.9113 64.5449C8.33204 60.6519 8.25538 56.7078 8.54501 52.7893C9.10723 45.1737 10.8791 37.8393 13.835 30.7519C15.7176 26.2371 17.1487 21.5263 18.5458 16.8326C19.1676 14.7541 19.2187 12.4967 19.4998 10.3159C19.5765 9.79632 19.5169 9.24262 19.5169 8.59521Z" fill="#13A2B7"/>
<path d="M46.4021 76.9819C48.4806 74.9971 50.4057 73.123 52.3735 71.283C54.2902 69.4856 56.2409 67.7138 58.1491 65.959C59.3757 66.0271 59.3757 66.0271 59.9805 67.2538C56.1642 71.479 51.5813 75.0142 47.5009 79.4353C47.5009 80.7045 47.5009 82.1527 47.5009 83.5156C46.385 83.9331 46.385 83.933 45.3543 83.4475C45.3543 82.1356 45.3543 80.7386 45.3543 79.2734C41.1632 75.3293 37.0147 71.4364 32.9258 67.5945C32.9854 66.1804 32.9854 66.1804 34.5017 65.8738C38.4117 69.3493 42.2961 73.0805 46.4021 76.9819Z" fill="#13A2B7"/>
<path d="M45.0203 17.5481C45.4974 18.2296 45.9148 18.8344 46.3663 19.4818C47.184 18.9707 47.0222 17.6674 48.3852 17.6844C48.6407 17.9059 49.0326 18.2551 49.3307 18.5192C49.4755 20.0355 48.777 20.8959 47.61 21.654C46.9455 21.654 46.1533 21.654 45.3696 21.654C42.9759 20.0525 42.78 18.7066 45.0203 17.5481Z" fill="#13A2B7"/>
</svg>
