<svg width="90" height="90" viewBox="0 0 90 90" fill="none" xmlns="http://www.w3.org/2000/svg">
<path d="M35.5171 61.35C35.3754 62.825 35.2421 64.2417 35.1087 65.6583C34.7671 69.35 31.7254 72.2 28.0004 72.2C24.6254 72.2 21.2754 72.3333 18.0337 73.425C15.6004 74.2417 13.3337 75.3417 11.5587 77.2583C10.3837 78.525 9.7254 79.9917 9.79206 81.75C9.80873 82.2333 9.8004 82.7167 9.7754 83.2C9.73373 84.1833 9.0504 84.85 8.1504 84.825C7.28373 84.7917 6.7254 84.125 6.63373 83.1917C6.13373 78.0083 8.7754 74.6417 12.9921 72.225C16.8671 70 21.1087 69.1333 25.5337 69.075C26.3587 69.0667 27.1921 69.0667 28.0171 69.025C30.1087 68.9333 31.7087 67.5167 31.9421 65.4333C32.1837 63.3083 32.3337 61.175 32.4921 59.0417C32.5087 58.7583 32.4171 58.4 32.2421 58.1917C28.3087 53.5916 26.0504 48.2083 24.8004 42.3583C24.6754 41.7583 24.5171 41.1583 24.3754 40.5583C24.2837 40.55 24.1921 40.5416 24.1004 40.5333C23.8254 41.925 23.4837 43.3 23.2837 44.7C23.0504 46.3333 22.9337 47.975 22.7671 49.6166C22.6837 50.5083 21.9837 51.1666 21.1337 51.15C20.2837 51.1333 19.5504 50.4083 19.6171 49.5166C19.9671 45.1083 20.4171 40.725 22.2254 36.6083C23.8337 32.9583 26.4587 30.6083 30.4254 29.6583C33.9337 28.8166 37.3837 27.6916 40.8421 26.6583C42.8254 26.0666 44.5421 25.0416 45.8504 23.4C46.5837 22.4833 46.9921 21.45 47.0254 20.2583C47.0504 19.225 47.6754 18.5916 48.5921 18.6C49.5504 18.6 50.1504 19.2583 50.1587 20.3416C50.1837 22.575 49.2671 24.425 47.7754 26.025C45.7837 28.1666 43.2504 29.325 40.4921 30.1C37.2337 31.0166 33.9587 31.8916 30.7254 32.9083C29.5587 33.275 28.4921 33.9833 27.4254 34.6166C27.1837 34.7583 26.9754 35.2416 27.0087 35.5416C27.7087 43.0083 29.8921 49.9333 34.6754 55.8416C36.3837 57.9583 38.4587 59.6417 41.1921 60.2917C41.5671 60.3833 41.9587 60.3917 42.4587 60.4583C41.8087 55.3083 42.9504 50.725 46.3421 46.8583C49.7504 42.975 54.1171 41.2333 59.3171 41.4C60.1337 37.7083 60.4504 34.05 59.967 30.3333C59.592 27.475 58.7671 24.7666 57.1921 22.3333C55.7671 20.1333 53.9004 18.4166 51.5504 17.2333C50.8587 16.8833 50.2754 16.4833 50.3254 15.575C50.3837 14.4333 51.4587 13.7166 52.4921 14.2C57.5671 16.5666 60.6921 20.5833 62.2671 25.8666C63.7254 30.7833 63.6004 35.7666 62.7004 40.7666C62.4587 42.1083 62.2504 41.8666 63.5754 42.4C64.4421 42.75 65.292 43.1416 66.3004 43.575C66.5837 42.3583 66.9004 41.1583 67.1337 39.95C68.2254 34.2583 68.4421 28.5666 66.8671 22.925C65.8004 19.1 64.0337 15.6416 61.042 12.9416C58.2671 10.4416 54.9504 9.16663 51.2504 8.69996C47.5921 8.24163 43.9504 8.44163 40.3837 9.14163C37.9254 9.61663 35.5587 10.6 33.1921 11.4916C30.6754 12.4416 28.3837 13.8166 26.2421 15.4583C24.3254 16.9416 23.0337 18.8166 22.3921 21.1583C21.0004 26.225 19.0837 31.0583 15.7337 35.1833C14.7337 36.4166 13.6087 37.5583 12.4337 38.6166C10.3421 40.4833 9.3004 42.8166 8.99206 45.55C8.45873 50.275 10.2004 54.3083 12.9754 57.9083C14.9171 60.4333 17.1837 62.7 19.2671 65.1167C19.6087 65.5167 19.9587 66.1083 19.9254 66.5917C19.8921 67.0583 19.4504 67.675 19.0254 67.8667C18.6004 68.0583 17.7754 67.9917 17.4754 67.6917C12.9087 63.2 8.44207 58.6 6.50873 52.25C5.4504 48.7833 5.50873 45.275 6.64207 41.825C7.33373 39.7166 8.4504 37.825 10.2004 36.3916C13.4587 33.7166 15.6171 30.25 17.2171 26.4333C18.1254 24.2583 18.8337 21.9916 19.5087 19.7333C20.7004 15.75 23.5421 13.2083 26.9004 11.1083C30.7171 8.7833 34.8421 7.24996 39.1671 6.24996C43.6421 5.21663 48.1587 4.79163 52.7254 5.61663C60.9004 7.09163 66.2671 11.8666 68.9921 19.65C70.8337 24.9166 71.1087 30.375 70.5587 35.8583C70.2587 38.9083 69.642 41.9333 69.1004 44.9583C68.9921 45.575 69.2087 45.8916 69.592 46.275C77.8587 54.425 74.942 69.425 63.0837 73.2917C55.3421 75.8083 46.9087 71.9167 43.6837 64.3833C43.4671 63.8667 43.2421 63.65 42.6504 63.6583C40.4254 63.6833 38.4004 62.9667 36.5087 61.825C36.2671 61.675 36.0254 61.525 35.7754 61.3833C35.7337 61.35 35.6754 61.3667 35.5171 61.35ZM58.3837 44.6083C51.3004 44.55 45.5671 50.325 45.4837 57.5833C45.4087 64.8417 51.0421 70.7833 58.0754 70.8583C65.292 70.9333 71.1171 65.1167 71.1421 57.7667C71.167 50.8 65.6587 44.5083 58.3837 44.6083Z" fill="#13A2B7"/>
<path d="M68.4746 71.7083C69.2746 70.9667 69.9996 70.3 70.7746 69.575C72.2329 71.15 73.6413 72.6667 75.0496 74.1917C76.0579 75.2833 77.0496 76.375 78.0663 77.4583C78.8996 78.35 79.8829 78.425 80.5996 77.6667C81.3496 76.875 81.1996 75.8583 80.2163 75.1C77.7163 73.1667 75.1996 71.2417 72.6996 69.3167C72.3913 69.075 72.0829 68.8333 71.7246 68.55C72.3663 67.7083 72.9746 66.925 73.6329 66.0667C74.5996 66.8083 75.5163 67.5167 76.4329 68.2167C78.3746 69.7083 80.3329 71.1833 82.2496 72.7083C84.5663 74.5583 84.8746 77.6667 82.9913 79.7167C81.0163 81.8667 77.8829 81.8417 75.8246 79.6417C73.3913 77.05 70.9829 74.425 68.4746 71.7083Z" fill="#13A2B7"/>
<path d="M48.0595 59.8665C48.2012 59.6749 48.4012 59.1499 48.7762 58.8999C52.6345 56.3665 55.0428 52.6915 56.9512 48.6166C57.0345 48.4332 57.1012 48.2499 57.1928 48.0666C57.6345 47.2166 58.4512 46.8832 59.2512 47.2166C60.0845 47.5666 60.4512 48.4416 60.0762 49.3499C58.9678 51.9832 57.5345 54.4415 55.7678 56.6832C54.3512 58.4832 52.7428 60.0915 50.7928 61.3165C50.3678 61.5832 49.7845 61.7582 49.2928 61.7332C48.5262 61.7082 48.0345 60.9749 48.0595 59.8665Z" fill="#13A2B7"/>
</svg>
