<svg width="35" height="35" viewBox="0 0 35 35" fill="none" xmlns="http://www.w3.org/2000/svg">
<g clip-path="url(#clip0_1_291)">
<path d="M29.6417 30.3446C28.9699 32.3291 27.7755 33.7589 26.1849 34.4852C25.4384 34.8283 24.6287 34.9999 23.7903 34.9999C22.8945 34.9999 21.9585 34.8054 21.0111 34.4223C16.2679 32.495 12.1163 29.8013 8.67087 26.4157C8.65939 26.41 8.65365 26.3986 8.6479 26.3928C5.24272 22.9557 2.5381 18.8152 0.602946 14.0856C-0.149295 12.2441 -0.172264 10.4656 0.534039 8.92715C1.26331 7.343 2.69888 6.15346 4.69146 5.48434C5.57578 5.18695 6.44286 5.19267 7.26401 5.5015C9.11303 6.17633 12.9776 11.4263 13.0867 13.4051C13.1843 15.3038 11.7717 16.2646 11.0941 16.7221C10.5256 17.111 9.75043 16.9623 9.36569 16.3961C8.97521 15.8299 9.12451 15.0579 9.693 14.6747C10.4912 14.1314 10.6175 13.8855 10.6003 13.5366C10.474 12.4729 7.36737 8.24659 6.39118 7.82339C6.10981 7.72045 5.82844 7.72045 5.4839 7.83483C4.16317 8.28091 3.23292 9.01293 2.7965 9.96228C2.38306 10.8602 2.41751 11.9639 2.90561 13.1535C4.71443 17.5742 7.2353 21.4402 10.405 24.6371C10.405 24.6371 10.405 24.6371 10.4108 24.6428C13.6265 27.8054 17.5083 30.3275 21.9528 32.129C23.1415 32.6093 24.2497 32.6494 25.1513 32.2376C26.0987 31.803 26.8395 30.8765 27.2817 29.5611C27.3965 29.2237 27.4022 28.9435 27.2931 28.6575C26.8682 27.691 22.6247 24.5914 21.5451 24.4656C21.2063 24.4484 20.9594 24.5742 20.4139 25.3749C20.0234 25.941 19.2482 26.084 18.6854 25.7008C18.117 25.312 17.9734 24.5399 18.3581 23.9794C18.8233 23.3046 19.788 21.8977 21.6887 21.995C23.6812 22.1036 28.9469 25.9582 29.6303 27.8054C29.9346 28.6061 29.9403 29.4639 29.6417 30.3446ZM25.691 16.8937C25.002 16.8937 24.445 16.3389 24.445 15.6526C24.445 12.3642 21.7576 9.68777 18.4557 9.68777C17.7667 9.68777 17.2097 9.13303 17.2097 8.44676C17.2097 7.76048 17.7667 7.20574 18.4557 7.20574C23.13 7.20574 26.9314 10.9974 26.9314 15.6526C26.9314 16.3389 26.3744 16.8937 25.691 16.8937ZM32.9206 16.8937C32.2315 16.8937 31.6745 16.3389 31.6745 15.6526C31.6745 12.1355 30.3021 8.82421 27.8042 6.33646C25.3063 3.84872 21.9873 2.47617 18.4557 2.47617C17.7667 2.47617 17.2097 1.92143 17.2097 1.23515C17.2097 0.548879 17.7667 -0.00585938 18.4557 -0.00585938C22.6534 -0.00585938 26.5983 1.62404 29.5671 4.58074C32.5359 7.53744 34.1667 11.4664 34.1667 15.6526C34.1667 16.3389 33.6097 16.8937 32.9206 16.8937Z" fill="white"/>
</g>
<defs>
<clipPath id="clip0_1_291">
<rect width="34.1667" height="35" fill="white"/>
</clipPath>
</defs>
</svg>
