<svg width="91" height="91" viewBox="0 0 91 91" fill="none" xmlns="http://www.w3.org/2000/svg">
<path d="M54.828 58.5685C55.9065 61.7114 57.895 63.5735 60.802 64.4667C64.442 65.5789 68.1241 66.5816 71.7304 67.7949C77.6707 69.8087 81.041 74.0385 81.9595 80.2232C82.0269 80.6782 81.9679 81.1416 81.9679 81.6893C81.3696 81.6893 80.8051 81.6893 80.131 81.6893C79.9962 80.8046 79.9204 79.8777 79.7013 78.993C78.5217 74.2155 75.5642 71.0726 70.8625 69.6149C67.2225 68.4859 63.5657 67.4158 59.9341 66.2698C58.982 65.9665 58.0804 65.4778 57.103 65.0565C54.7606 69.7919 50.5813 71.4602 45.6185 71.4686C40.6556 71.4855 36.4595 69.8593 34.1086 65.284C29.3227 66.7838 24.4778 68.1657 19.7256 69.8171C14.5689 71.6034 11.7125 75.3614 11.148 80.8214C11.1227 81.091 11.0637 81.3522 11.0132 81.6809C10.693 81.7146 10.3897 81.7567 10.0948 81.7651C9.82513 81.7735 9.5555 81.7483 9.00781 81.723C9.21846 80.3917 9.27744 79.0688 9.64818 77.8471C11.1733 72.7999 14.4425 69.379 19.4981 67.7696C23.0538 66.6406 26.6348 65.5958 30.2074 64.5004C33.9317 63.3629 36.055 60.8351 36.6448 56.9929C36.7965 56.0155 36.628 55.2656 35.7601 54.5578C33.5357 52.7294 31.7578 50.5386 30.9489 47.6738C30.8731 47.4042 30.5276 47.202 30.2833 46.9913C29.4744 46.3004 28.4548 45.7611 27.8903 44.9101C26.4073 42.6772 25.9523 40.1073 25.986 37.4532C25.986 37.2594 25.9776 37.0319 26.0787 36.8886C27.4437 34.917 26.618 32.8357 26.3231 30.822C24.7306 19.8345 33.3924 9.70658 44.4978 9.25158C54.5584 8.84713 61.0547 14.7537 63.7089 20.8709C64.9391 23.7189 65.3857 26.7017 65.116 29.7687C65.0486 30.5607 65.2256 30.9315 65.9081 31.3191C73.028 35.4057 75.4968 43.9074 71.6967 51.2211C71.3259 51.9289 71.4776 52.2996 71.9832 52.7968C74.789 55.5605 77.5527 58.3495 80.3333 61.13C81.3359 62.1327 81.6646 63.3292 81.2601 64.6605C80.8809 65.9159 79.9625 66.6827 78.6902 66.9523C77.2915 67.2388 76.213 66.6069 75.2608 65.6379C72.6067 62.95 69.902 60.3043 67.2646 57.608C66.717 57.0434 66.3294 56.9171 65.5879 57.3131C62.2512 59.0741 58.7292 59.5291 54.828 58.5685ZM30.7298 34.1165C30.772 33.2655 30.713 32.5156 30.8562 31.8078C31.1511 30.3754 31.3871 28.8924 31.9516 27.5527C32.7521 25.6653 34.3951 24.6879 36.4342 24.8058C37.8919 24.8901 39.3327 25.3198 40.7651 25.6232C43.0064 26.1034 45.214 26.8028 47.4722 27.0471C50.1095 27.3336 50.7414 26.4152 50.1263 23.8453C49.7387 22.2444 50.6909 21.1827 52.3086 21.5787C53.2271 21.8062 54.1371 22.2612 54.9122 22.8173C56.9766 24.2919 58.468 26.2804 59.6139 28.5301C59.7824 28.8587 59.9931 29.3221 60.2711 29.4064C61.1474 29.6676 62.0658 29.7771 62.9674 29.9457C64.0375 23.8116 60.5071 16.9529 54.5836 13.4982C48.3569 9.86667 39.8383 10.4986 34.3277 15.1497C28.2273 20.3064 27.0477 27.0387 28.952 34.0912C29.4912 34.1165 30.0305 34.1165 30.7298 34.1165ZM58.6028 57.0434C65.7058 57.0519 71.4776 51.3307 71.486 44.2613C71.5029 37.1582 65.7058 31.3865 58.5438 31.3781C51.5756 31.3696 45.8207 37.1582 45.7954 44.2023C45.7701 51.297 51.4913 57.035 58.6028 57.0434ZM52.2496 23.5504C52.2834 23.9295 52.2749 24.1233 52.3255 24.2919C53.0922 26.8533 51.2133 28.9935 48.6265 29.0272C46.5284 29.0525 44.4135 28.5133 42.3239 28.1088C40.5376 27.7633 38.8019 27.123 37.0072 26.8618C35.0355 26.5753 33.9401 27.2831 33.4093 29.1958C33.0048 30.6366 32.7858 32.1701 32.7521 33.6699C32.6678 37.5206 32.7773 41.3712 32.7184 45.2303C32.6847 47.2525 33.3587 48.963 34.5721 50.5049C36.5943 53.0833 39.1726 55.0212 41.9953 56.639C44.4725 58.063 48.2136 57.667 49.6882 56.1671C44.641 51.8531 42.5514 46.452 44.4725 40.0146C46.3852 33.5857 51.0953 30.2237 57.7855 29.3474C56.4289 26.9123 54.887 24.848 52.2496 23.5504ZM38.9704 57.1277C38.1868 58.8971 37.5633 60.6413 36.6701 62.2254C35.8023 63.7505 35.6337 64.2982 36.7207 65.7221C37.2515 66.4215 37.9256 67.0534 38.6502 67.5506C42.5009 70.1879 48.7613 70.23 52.5277 67.4916C53.5978 66.708 54.3477 65.4357 55.0976 64.2897C55.2998 63.9864 55.0639 63.2871 54.8617 62.8489C54.2045 61.3744 53.3956 59.9672 52.7889 58.4759C52.3508 57.4226 51.9716 57.2204 50.9942 57.8439C47.4722 60.0768 43.9164 60.0768 40.3354 57.9871C39.7961 57.667 39.2906 57.3299 38.9704 57.1277ZM68.1494 55.7458C71.1237 58.7118 74.0644 61.6609 77.0219 64.5846C77.6285 65.1913 78.3784 65.2419 78.9935 64.6099C79.7013 63.8853 79.5075 63.1438 78.825 62.4613C76.036 59.6892 73.2555 56.9086 70.4749 54.1365C70.3485 54.0101 70.1716 53.9343 69.9946 53.8163C69.4048 54.4398 68.8403 55.0212 68.1494 55.7458ZM30.6709 36.2988C28.775 36.0376 28.0757 36.3409 28.0167 37.4953C27.8987 39.8883 28.4127 42.1295 29.7187 44.1602C29.9125 44.4551 30.2074 44.6826 30.6709 45.1713C30.6709 41.9863 30.6709 39.1383 30.6709 36.2988Z" fill="#13A2B7"/>
<path d="M55.0293 54.9117C54.5912 54.3893 54.2036 53.9259 53.875 53.5383C54.9872 52.2238 56.091 51.0189 57.0684 49.7213C58.029 48.449 58.4166 46.9576 58.4166 45.3399C58.3997 42.0285 58.484 38.7255 58.4334 35.4141C58.4166 34.3609 58.7452 34.0239 59.7647 34.1502C60.759 34.2682 61.7953 34.1587 62.7727 34.344C64.1209 34.5968 65.1151 35.7933 65.191 37.133C65.3511 39.9557 64.8624 42.6689 63.253 45.0365C62.7053 45.8454 61.6942 46.3426 60.919 47.0082C60.5989 47.2863 60.1944 47.598 60.0849 47.9688C59.217 50.8504 57.2791 52.9316 55.0293 54.9117ZM60.4725 36.2989C60.4725 39.2058 60.4725 42.0453 60.4725 44.8933C61.0286 44.6574 61.5089 44.3203 61.6605 43.8738C62.2335 42.2054 62.857 40.5287 63.1688 38.8014C63.5816 36.5601 62.9328 36.0124 60.4725 36.2989Z" fill="#13A2B7"/>
<path d="M54.7695 39.071C55.4436 39.071 56.0166 39.071 56.6654 39.071C56.6654 39.6777 56.6654 40.2422 56.6654 40.9163C56.0671 40.9163 55.452 40.9163 54.7695 40.9163C54.7695 40.3265 54.7695 39.762 54.7695 39.071Z" fill="#13A2B7"/>
<path d="M51.0783 40.6972C50.4548 40.6972 49.8902 40.6972 49.2246 40.6972C49.2246 40.0905 49.2246 39.5344 49.2246 38.8772C49.806 38.8772 50.3958 38.8772 51.0783 38.8772C51.0783 39.4165 51.0783 39.981 51.0783 40.6972Z" fill="#13A2B7"/>
<path d="M53.127 34.8496C53.7757 34.8496 54.3655 34.8496 55.0312 34.8496C55.0312 35.4563 55.0312 36.0124 55.0312 36.6444C54.374 36.6444 53.7842 36.6444 53.127 36.6444C53.127 36.0377 53.127 35.4816 53.127 34.8496Z" fill="#13A2B7"/>
<path d="M48.3652 45.2555C48.3652 44.4803 48.3652 43.9158 48.3652 43.2922C48.9887 43.2922 49.5448 43.2922 50.1768 43.2922C50.1768 43.8821 50.1768 44.4466 50.1768 45.1544C49.6207 45.1881 49.0477 45.2218 48.3652 45.2555Z" fill="#13A2B7"/>
<path d="M51.0625 50.4291C51.0625 49.8309 51.0625 49.3 51.0625 48.6765C51.6776 48.6765 52.2674 48.6765 52.9499 48.6765C52.9499 49.2073 52.9499 49.7635 52.9499 50.4291C52.3769 50.4291 51.7871 50.4291 51.0625 50.4291Z" fill="#13A2B7"/>
<path d="M55.5774 46.6794C54.9707 46.6794 54.4399 46.6794 53.8164 46.6794C53.8164 46.0643 53.8164 45.4745 53.8164 44.8763C55.6532 44.396 55.8555 44.5898 55.5774 46.6794Z" fill="#13A2B7"/>
</svg>
