<svg width="94" height="94" viewBox="0 0 94 94" fill="none" xmlns="http://www.w3.org/2000/svg">
<path d="M79.5859 39.123C79.0549 37.7653 78.3673 36.4945 77.5579 35.3021C75.617 32.4473 72.9972 30.4106 69.9683 28.8353C66.0516 26.7899 62.7181 24.0047 59.8198 20.6973C58.2966 18.9566 56.9214 17.1201 55.7116 15.153C55.6594 15.066 55.5985 14.9964 55.494 14.8658C55.0849 15.5882 54.6846 16.2758 54.2929 16.9721C53.9186 17.6423 53.3094 17.8773 52.7001 17.5727C52.1257 17.2854 51.9168 16.5804 52.2823 15.9277C52.8394 14.9267 53.4312 13.9519 54.0318 12.9771C54.1885 12.7247 54.2059 12.5506 54.0753 12.2721C53.5357 11.1493 53.0222 10.0266 52.5261 8.88638C52.2214 8.19879 52.4825 7.54601 53.1092 7.2936C53.7533 7.03249 54.3364 7.35453 54.6323 8.08564C56.112 11.7325 58.1138 15.0747 60.5944 18.1297C63.2838 21.4284 66.4172 24.231 70.1162 26.3547C71.7351 27.286 73.4149 28.1041 74.8859 29.2704C79.1159 32.6127 81.7705 36.9036 82.7975 42.1954C82.902 42.7177 82.9803 43.2486 83.0412 43.7795C83.1022 44.3104 83.1196 44.8501 83.1544 45.3375C83.6244 45.5812 84.1031 45.7727 84.5035 46.0599C85.3825 46.6952 85.7046 47.5917 85.5392 48.6536C85.3564 49.8199 84.7733 50.6728 83.5983 51.0297C83.3372 51.108 83.0499 51.2212 82.7975 51.1777C82.2405 51.0906 82.0925 51.3952 81.9533 51.8304C80.9001 54.9725 79.3509 57.8273 77.0531 60.2382C74.5638 62.8493 71.561 64.4769 67.9838 65.0426C66.0603 65.3473 64.1542 65.3038 62.2307 65.0426C59.6457 64.6945 57.1564 64.033 54.8499 62.7884C50.8462 60.6125 48.357 57.2963 47.417 52.8314C47.2864 52.2221 47.6955 51.578 48.2699 51.4649C48.9314 51.343 49.5059 51.6999 49.6364 52.3614C49.9672 53.9976 50.5677 55.5208 51.5164 56.896C52.9612 59.0284 54.9631 60.4645 57.3044 61.448C59.1409 62.2226 61.0644 62.6491 63.0488 62.8754C65.9123 63.1975 68.6801 62.9276 71.3086 61.683C73.7283 60.5341 75.5996 58.7586 77.1227 56.5826C77.2881 56.3476 77.1749 56.1997 77.0792 55.9995C76.4786 54.7636 75.7562 53.5712 75.3211 52.283C73.7718 47.7658 74.7814 43.8056 78.1236 40.4112C78.3499 40.1849 78.5849 39.9673 78.8199 39.7584C79.0723 39.5321 79.3248 39.3406 79.5859 39.123ZM80.3866 41.4121C78.5675 43.0136 77.3664 44.824 76.9922 47.1217C76.5831 49.5936 77.5927 52.518 78.672 54.0412C79.0985 52.9532 79.5162 51.9088 79.9079 50.8556C79.9427 50.7599 79.8818 50.5771 79.8035 50.4901C79.3161 49.9939 79.2203 49.4804 79.5423 48.9669C79.8383 48.5056 80.4388 48.3925 81.0481 48.5752C81.5703 48.7319 82.1099 48.8277 82.6496 48.8886C83.0586 48.9321 83.2849 48.671 83.3285 48.2619C83.372 47.8877 83.1022 47.731 82.8149 47.6788C82.3623 47.5917 81.901 47.5395 81.4485 47.496C80.9436 47.4525 80.552 47.261 80.3605 46.7736C80.1864 46.3297 80.2386 45.8684 80.5955 45.5725C80.9349 45.2939 80.9175 45.0067 80.874 44.6586C80.8479 44.4758 80.8479 44.2843 80.8218 44.0928C80.6825 43.2486 80.5433 42.3869 80.3866 41.4121Z" fill="white"/>
<path d="M14.6571 10.4617C14.6222 10.5749 14.5787 10.7577 14.5091 10.9317C12.9859 14.8223 11.9937 18.8521 11.3496 22.9777C10.7839 26.581 10.5228 30.2017 10.6011 33.8486C10.6708 37.1995 11.0189 40.5243 11.663 43.8143C12.4463 47.8615 13.7171 51.7434 15.2837 55.5469C16.7721 59.1502 17.7643 62.9015 18.3387 66.766C18.7304 69.4293 18.9219 72.0927 18.8261 74.7821C18.6956 78.4115 18.1734 81.9801 16.92 85.4093C16.7982 85.7488 16.5806 86.0969 16.3108 86.3145C15.9278 86.6278 15.3708 86.5408 14.9878 86.2101C14.5961 85.8793 14.5265 85.4267 14.6919 84.861C15.1097 83.4336 15.5622 82.0149 15.8843 80.5701C16.511 77.7414 16.6676 74.8604 16.5632 71.9708C16.4326 68.4458 15.8756 64.9817 14.9356 61.5786C14.2654 59.1328 13.3428 56.7828 12.4028 54.4328C11.1408 51.2908 10.1921 48.053 9.53057 44.7369C9.01705 42.1693 8.59057 39.5756 8.50353 36.9558C8.41649 34.2925 8.34687 31.6204 8.44261 28.9571C8.53835 26.1806 8.93001 23.4303 9.43483 20.6886C9.97446 17.7903 10.6882 14.9354 11.6369 12.1416C11.8893 11.4017 12.1678 10.6706 12.4637 9.95692C12.6813 9.4347 13.2209 9.1823 13.7432 9.30415C14.2654 9.426 14.6484 9.87859 14.6571 10.4617Z" fill="white"/>
<path d="M54.4414 78.8728C54.4762 76.5663 54.981 74.3295 55.4336 72.0926C55.7818 70.378 56.1212 68.6633 55.9559 66.8878C55.8949 66.2437 56.3388 65.7476 56.9829 65.6606C57.5486 65.5822 58.1405 65.9739 58.1753 66.6006C58.2362 67.6363 58.2884 68.6982 58.1405 69.7165C57.8358 71.7967 57.3658 73.8595 57.0177 75.9397C56.5042 78.9685 56.7479 81.9365 57.9577 84.7913C58.0186 84.9393 58.0796 85.0873 58.1318 85.2352C58.3581 85.8793 58.1231 86.4625 57.5312 86.7149C56.9742 86.9586 56.304 86.7062 56.0429 86.1143C55.4249 84.6869 54.9375 83.2247 54.7286 81.6841C54.5894 80.7528 54.5284 79.8128 54.4414 78.8728Z" fill="white"/>
<path d="M59.7505 54.3371C59.6721 54.8332 59.4197 55.2249 59.002 55.3989C58.5581 55.5904 58.1055 55.5469 57.8008 55.1988C56.7651 53.9976 55.7381 52.7791 54.7546 51.5258C54.3281 50.9862 54.5022 50.2986 55.0418 49.933C55.5553 49.5849 56.182 49.7241 56.6172 50.2463C57.5223 51.3517 58.4536 52.4484 59.3501 53.5625C59.5329 53.78 59.6199 54.076 59.7505 54.3371Z" fill="white"/>
<path d="M48.8809 25.9368C49.0375 25.2144 49.2203 24.2831 49.4466 23.3518C49.5859 22.76 49.7686 22.1855 49.934 21.6024C50.1516 20.8539 50.7609 20.4796 51.3962 20.6885C52.0838 20.9148 52.3188 21.5066 52.1099 22.2987C51.7618 23.639 51.4484 24.9881 51.1438 26.3372C51.0046 26.9464 50.4649 27.3816 49.8992 27.312C49.3073 27.2336 48.8809 26.7462 48.8809 25.9368Z" fill="white"/>
<path d="M49.9941 41.9257C49.9941 41.2555 50.3423 40.829 50.8906 40.7159C51.4477 40.6027 51.9699 40.8899 52.1875 41.4208C52.7445 42.8134 53.3015 44.206 53.8586 45.5986C54.0849 46.1557 53.8151 46.7997 53.258 47.0521C52.7097 47.2958 52.0569 47.0869 51.7871 46.5038C51.4041 45.7118 51.056 44.8936 50.7252 44.0842C50.4902 43.4923 50.2988 42.8918 50.0899 42.2912C50.029 42.1433 50.0028 41.9866 49.9941 41.9257Z" fill="white"/>
<path d="M48.4283 32.7692C48.4283 32.4037 48.4109 32.0468 48.4283 31.6813C48.4631 31.1242 48.8983 30.6978 49.4727 30.6542C49.9863 30.6107 50.5259 30.9937 50.6216 31.5159C50.6826 31.8815 50.6652 32.2644 50.6913 32.6387C50.7696 33.6918 50.8566 34.7363 50.935 35.7894C50.9524 36.0853 50.9785 36.4074 50.9089 36.6859C50.7783 37.1907 50.2735 37.4692 49.7252 37.4257C49.2116 37.3822 48.7851 36.9731 48.7242 36.39C48.5937 35.1802 48.4979 33.9704 48.3848 32.7692C48.4022 32.7692 48.4109 32.7692 48.4283 32.7692Z" fill="white"/>
<path d="M67.6892 60.5602C67.6979 61.4132 66.8188 62.0224 66.0877 61.5872C64.7212 60.7778 63.3983 59.8987 62.084 59.0109C61.5444 58.6454 61.4921 57.923 61.8664 57.4356C62.2494 56.9395 62.9283 56.8698 63.494 57.2441C64.7125 58.0448 65.9397 58.8282 67.167 59.6202C67.5064 59.8378 67.7066 60.1424 67.6892 60.5602Z" fill="white"/>
</svg>
