<svg width="79" height="94" viewBox="0 0 79 94" fill="none" xmlns="http://www.w3.org/2000/svg">
<path fill-rule="evenodd" clip-rule="evenodd" d="M36.2284 0.0993534C25.313 1.0091 16.9728 6.0047 11.2312 15.0717C10.382 16.413 8.81519 19.4665 8.07226 21.2287C6.69652 24.4915 4.95438 30.3437 4.34273 33.7573C3.3837 39.1087 1.88128 56.3272 0.492965 77.8763C0.283154 81.1315 0.0718076 84.2571 0.023189 84.8222C-0.0820236 86.0463 0.143738 86.5971 1.26289 87.8448C3.73186 90.5972 8.88283 92.6142 15.6545 93.4803C17.7457 93.7477 24.3471 94.1055 24.6983 93.9706C24.8274 93.9209 25.0451 93.7088 25.1822 93.4992C25.4221 93.1321 25.3968 93.0355 24.4863 90.8553L23.5414 88.5923L23.9434 87.1725C24.6008 84.8505 24.8187 83.3319 24.9078 80.4512C24.9543 78.9504 25.0225 77.7226 25.0597 77.7226C25.0969 77.7226 25.6779 78.2234 26.351 78.8356C29.3939 81.6029 33.0552 83.6653 36.2479 84.4107C41.3509 85.6021 47.248 83.6718 52.5381 79.0785C52.9069 78.7582 53.2692 78.5338 53.3433 78.5796C53.4174 78.6256 53.4779 79.0825 53.4779 79.5951C53.4779 80.9007 53.8841 83.4968 54.3291 85.0362C54.5359 85.751 54.7049 86.4379 54.7049 86.5626C54.7049 86.6871 54.0503 88.1827 53.2502 89.8861C52.2274 92.0633 51.8215 93.0869 51.8832 93.3334C52.055 94.0198 52.5576 94.0772 56.669 93.8817C65.2174 93.4751 71.073 92.1652 75.2296 89.7296C76.6167 88.9169 78.3581 87.2944 78.7647 86.436C79.059 85.8147 79.0621 85.7031 78.8579 83.103C78.7417 81.6234 78.4718 78.0954 78.2578 75.263C77.7991 69.1873 75.5212 38.9184 75.1806 34.3722C74.8392 29.8156 74.3757 27.4078 73.1341 23.7424C71.1297 17.8243 67.4482 12.3838 62.4224 7.91288C57.4381 3.47884 52.879 1.21617 47.113 0.314876C45.2602 0.025258 38.6804 -0.105101 36.2284 0.0993534ZM45.5793 1.93944C51.5732 2.60984 56.697 5.039 61.5201 9.49671C67.5631 15.082 71.179 21.4046 72.7371 29.1106C73.1249 31.029 73.1927 31.7824 74.2597 46.0553C74.56 50.0713 74.9407 55.1212 75.1059 57.2772C75.2711 59.4332 75.7178 65.3477 76.0988 70.4207C76.4796 75.4936 76.8942 80.9554 77.0201 82.5579L77.2488 85.4717L76.8403 86.0623C75.6959 87.7176 71.9503 89.675 68.2016 90.5766C66.728 90.9311 63.3859 91.5477 63.3162 91.4779C63.283 91.4447 63.6599 90.74 64.1536 89.9119C66.7444 85.5673 69.2575 79.1822 69.5342 76.2409C69.6193 75.3376 69.6051 75.2853 69.2014 75.0201C68.8213 74.7706 68.7399 74.7657 68.3756 74.9705C68.0332 75.1629 67.93 75.3963 67.6997 76.4985C67.1068 79.3369 65.9042 82.6452 64.299 85.8533C63.2328 87.9839 61.5614 90.8195 61.0189 91.4173L60.6097 91.8684L57.5046 92.0469C55.7966 92.1449 54.3633 92.189 54.3195 92.1451C54.2755 92.101 54.5936 91.311 55.0264 90.3894C59.3554 81.1725 63.3871 71.719 64.7225 67.6536C67.8691 58.0752 68.6628 48.7322 66.9752 41.1387C66.3585 38.3636 65.1168 35.422 64.2243 34.6217C62.6291 33.1911 60.8275 31.3689 59.7982 30.1447C56.5786 26.3156 52.0011 19.4721 48.5547 13.3354C47.6445 11.7143 47.196 11.1597 46.7957 11.1597C46.6821 11.1597 45.8443 11.8278 44.9339 12.6442C41.0127 16.161 37.0349 19.0229 33.0748 21.1763C31.9333 21.797 28.5169 23.4803 25.483 24.917C17.6325 28.6345 16.8618 29.0582 16.2448 29.9975C15.0442 31.8245 14.0111 35.8679 13.3593 41.2898C13.0265 44.0587 12.8903 52.5615 13.1277 55.7469C13.9286 66.4918 15.8651 74.0244 21.456 88.1438C22.3028 90.2821 22.9523 92.0751 22.8993 92.1282C22.7804 92.2475 17.6886 91.9332 15.8747 91.6948L14.5438 91.5197L13.7813 89.5019C12.1522 85.1904 10.847 80.5499 10.1328 76.5297C9.80045 74.6587 9.71686 73.6341 9.65367 70.6513C9.5483 65.6823 9.92084 61.5578 10.9492 56.3076C11.3995 54.0088 11.3743 53.7844 10.6379 53.5214C9.77054 53.2115 9.49892 53.9111 8.76136 58.3533C7.8965 63.563 7.56752 69.352 7.91429 73.2646C8.31689 77.809 9.62775 83.2927 11.6371 88.8389C12.0602 90.0068 12.3634 91.0054 12.3108 91.0579C12.1694 91.1998 8.83114 90.245 7.24574 89.6092C4.91695 88.6753 2.98034 87.3387 2.11563 86.0683L1.77975 85.5749L2.01947 81.8409C3.45548 59.4827 4.88214 42.3496 5.8697 35.602C6.67474 30.1022 8.925 23.0643 11.3256 18.5385C14.0602 13.3827 17.6244 9.33422 21.8281 6.60883C25.8446 4.00489 30.5436 2.4412 35.8403 1.9462C37.7678 1.76604 43.9909 1.76174 45.5793 1.93944ZM47.1021 14.4265C51.7418 22.7601 58.3211 31.856 62.0558 35.1002C64.3234 37.0699 65.0279 39.3602 65.2366 45.4404C65.3372 48.3722 65.1558 50.9234 64.657 53.5878C62.0546 67.493 52.3908 80.129 42.4716 82.5968C40.827 83.006 37.6266 82.9657 36.0703 82.5164C28.589 80.3561 20.9863 72.0857 16.7356 61.4836C15.2801 57.8532 14.9839 56.6428 14.8046 53.5878C14.5379 49.0455 14.8796 42.4278 15.5994 38.1932C16.1657 34.8621 17.0817 31.7902 17.7702 30.9127C18.0915 30.5035 20.6844 29.1451 24.9509 27.1506C35.5995 22.1729 39.3906 19.8805 44.7358 15.1879C45.7059 14.3363 46.5341 13.635 46.5762 13.6296C46.6184 13.6241 46.8551 13.9827 47.1021 14.4265ZM29.7396 28.1551C28.9692 28.6957 29.5129 29.7604 30.5594 29.7604C31.304 29.7604 31.7936 29.0053 31.4253 28.425C31.3034 28.2327 30.5821 27.9157 30.2663 27.9157C30.1641 27.9157 29.927 28.0235 29.7396 28.1551ZM47.8032 28.1137C47.3308 28.3518 47.2031 29.1369 47.5758 29.5106C48.1667 30.1028 49.4903 29.6394 49.4903 28.8404C49.4903 28.012 48.6891 27.6668 47.8032 28.1137ZM32.3638 28.5528C31.7466 29.3237 32.1578 30.0534 33.2811 30.1804C33.8443 30.244 34.0753 30.2007 34.3104 29.9876C34.6622 29.6683 34.7013 29.1712 34.4062 28.7668C34.1377 28.3986 32.6149 28.239 32.3638 28.5528ZM44.5902 28.6765C43.8126 29.4559 44.4974 30.3384 45.7353 30.1524C46.641 30.0162 47.0106 29.5318 46.7023 28.8847C46.5218 28.5057 46.4011 28.4482 45.7008 28.4075C45.0631 28.3706 44.8421 28.4241 44.5902 28.6765ZM35.3122 29.0261C35.0061 29.4639 35.0116 29.6514 35.3418 30.0514C35.512 30.2577 35.8682 30.4108 36.3162 30.4705C36.9243 30.5516 37.0678 30.5155 37.3514 30.2104C38.0555 29.4528 37.5306 28.6844 36.3091 28.6844C35.6995 28.6844 35.5041 28.7514 35.3122 29.0261ZM38.545 29.003C37.7352 29.6414 38.2583 30.5291 39.4445 30.5291C40.269 30.5291 40.8308 30.0885 40.6877 29.5541C40.6389 29.3717 40.598 29.1773 40.5969 29.1222C40.594 28.983 39.7014 28.6844 39.289 28.6844C39.102 28.6844 38.7672 28.8278 38.545 29.003ZM41.5056 29.0012C41.1089 29.3989 41.1714 29.876 41.6684 30.2442C42.2199 30.653 43.3335 30.4536 43.6492 29.8899C43.8502 29.5309 43.8461 29.4457 43.6111 29.0863C43.386 28.742 43.239 28.6844 42.5851 28.6844C42.0187 28.6844 41.7401 28.7661 41.5056 29.0012ZM22.8149 30.7804C22.6401 31.0031 22.497 31.2359 22.497 31.2977C22.497 31.5861 23.1603 32.2066 23.5635 32.2953C24.8034 32.5682 25.2692 31.0826 24.0976 30.5919C23.3739 30.2888 23.1779 30.3177 22.8149 30.7804ZM54.902 30.6022C53.7644 31.098 54.3244 32.6512 55.5101 32.289C56.3633 32.0285 56.6825 31.1476 56.1115 30.6297C55.7747 30.3241 55.5518 30.3191 54.902 30.6022ZM25.5813 31.7419C25.4034 31.9203 25.2577 32.1731 25.2577 32.3038C25.2577 32.6964 25.952 33.2686 26.5693 33.3846C27.4257 33.5456 27.9978 33.0752 27.8165 32.3591C27.701 31.9024 27.295 31.6403 26.5082 31.5143C26.0182 31.4357 25.8441 31.4785 25.5813 31.7419ZM51.7909 31.7207C51.1215 32.0557 50.9772 32.7594 51.4835 33.2188C51.7734 33.4816 51.8748 33.4913 52.5263 33.3179C53.4014 33.085 53.6697 32.8425 53.6697 32.2841C53.6697 31.4823 52.7925 31.2191 51.7909 31.7207ZM28.7194 32.6153C28.459 32.8764 28.4067 33.4057 28.6096 33.7265C28.8033 34.0327 30.146 34.3934 30.4618 34.2241C30.9339 33.9708 31.1244 33.6254 31.0207 33.2111C30.8447 32.5078 29.241 32.0926 28.7194 32.6153ZM48.7234 32.4827C47.9598 32.7642 47.731 33.505 48.2595 33.9845C48.6385 34.3282 49.8133 34.2367 50.2634 33.8285C50.6255 33.5001 50.6527 32.9459 50.3229 32.6153C50.0883 32.3802 49.2012 32.3067 48.7234 32.4827ZM31.9551 33.2677C31.568 33.6962 31.6715 34.3892 32.1594 34.6354C32.8061 34.9617 33.7912 34.8875 34.0677 34.4916C34.3739 34.0537 34.3685 33.865 34.0381 33.4721C33.8624 33.263 33.5046 33.1193 33.0017 33.0558C32.3526 32.9739 32.1906 33.0068 31.9551 33.2677ZM45.5026 33.0976C44.739 33.3791 44.5102 34.1199 45.0387 34.5994C45.2707 34.8098 45.5057 34.8556 46.0419 34.7951C47.1926 34.665 47.7299 33.8483 47.0626 33.2431C46.7923 32.9979 45.9792 32.9221 45.5026 33.0976ZM42.5886 33.4095C41.6415 33.523 41.2297 34.23 41.7197 34.9014C42.0283 35.3247 43.4866 35.2689 43.8539 34.8198C44.0014 34.6395 44.1223 34.3926 44.1223 34.2713C44.1223 34.0255 43.4381 33.2823 43.2473 33.3207C43.1803 33.3342 42.8838 33.3742 42.5886 33.4095ZM35.1739 33.731C34.5809 34.3877 35.0239 35.0493 36.1702 35.2192C36.7749 35.3088 36.9326 35.2758 37.2054 35.0023C37.602 34.6048 37.6198 34.0426 37.2468 33.7042C36.8459 33.3405 35.5108 33.3577 35.1739 33.731ZM38.3621 33.9797C38.1506 34.3032 38.145 34.4161 38.3215 34.7868C38.5022 35.166 38.6226 35.2232 39.3261 35.2639C40.3774 35.3248 40.7481 35.1191 40.7481 34.4744C40.7481 33.7696 40.5092 33.6035 39.494 33.6035C38.7233 33.6035 38.5759 33.6524 38.3621 33.9797ZM21.9602 36.2259C20.7439 36.5259 18.8713 37.177 17.7966 37.6739C16.5762 38.238 16.329 38.599 16.7363 39.222C17.0538 39.7077 17.6044 39.711 18.682 39.2337C19.1354 39.033 20.1935 38.6482 21.0333 38.3787C22.9417 37.7663 23.9509 37.7489 26.0645 38.2923C27.6748 38.7063 32.6317 40.3418 33.8208 40.8512C34.7303 41.2411 35.1682 41.2149 35.4702 40.7528C35.8666 40.1464 35.6535 39.688 34.807 39.3263C33.3228 38.6922 30.1316 37.5912 27.7674 36.8976C25.1675 36.1348 23.2361 35.9114 21.9602 36.2259ZM52.0209 36.5849C50.2071 37.0668 45.1793 38.7469 43.7827 39.3376C42.9177 39.7035 42.8038 40.5716 43.5582 41.0486C43.7527 41.1716 44.0551 41.1264 44.7749 40.8671C47.6457 39.8323 51.2872 38.638 52.6344 38.2894C55.09 37.6539 56.2739 37.769 59.2002 38.9283C60.9359 39.6157 61.745 39.6808 62.0091 39.1541C62.4304 38.3141 61.5657 37.7357 58.3091 36.6788C55.9823 35.9239 54.587 35.903 52.0209 36.5849ZM24.0591 41.3949C23.9482 41.4394 23.7919 41.6487 23.7117 41.8603C23.5985 42.1585 23.6356 42.3583 23.8769 42.7494C24.1561 43.2024 24.1624 43.2636 23.9387 43.3497C23.6492 43.461 22.8887 43.026 22.341 42.436C21.7864 41.8386 21.3076 41.6909 20.8659 41.9809C20.2824 42.3642 20.3778 43.045 21.1188 43.7877C21.6024 44.2724 21.697 44.4498 21.56 44.615C21.2904 44.9408 20.9235 44.867 20.3439 44.3706C19.5613 43.7 18.8363 43.8052 18.594 44.6245C18.4707 45.0413 19.3233 46.0505 20.1179 46.4284C20.4082 46.5666 20.9415 47.0603 21.303 47.5258C21.997 48.4197 22.4269 48.6455 22.9252 48.3782C23.4534 48.0949 23.4859 47.4778 23.0091 46.7881C22.593 46.1864 22.5908 46.1715 22.8864 45.9494C23.1956 45.7171 24.5782 44.9792 24.7047 44.9792C24.7435 44.9792 24.7373 45.3497 24.6906 45.8025C24.4891 47.7587 25.7638 49.2051 27.6573 49.1691C29.424 49.1356 30.5184 47.9193 30.4917 46.0196L30.4793 45.1286L30.9707 45.3835C31.2411 45.5235 31.9359 45.9538 32.5146 46.3395C33.5221 47.011 33.5842 47.0311 33.975 46.8122C34.2561 46.655 34.3978 46.435 34.43 46.1062C34.4694 45.7035 34.3731 45.5435 33.8165 45.0871C32.0988 43.6782 29.4163 42.6733 27.3737 42.6733C26.3342 42.6733 26.3069 42.6627 25.5802 41.9816C24.8886 41.3331 24.5443 41.2003 24.0591 41.3949ZM53.4485 41.9851C52.7387 42.6641 52.7146 42.6733 51.6709 42.6733C49.6487 42.6733 46.7572 43.7529 45.1979 45.0902C44.4399 45.7403 44.3432 46.1369 44.8249 46.6197C45.2496 47.0454 45.5855 47.0082 46.3462 46.4514C47.0094 45.966 48.3997 45.1329 48.5466 45.1329C48.6156 45.1329 48.6408 45.5102 48.6026 45.9713C48.5101 47.0903 48.6296 47.4874 49.2737 48.2022C50.5722 49.6427 52.8382 49.4792 53.8996 47.8685C54.2666 47.3114 54.3203 47.0817 54.312 46.1037C54.3068 45.4853 54.3331 44.9792 54.3704 44.9792C54.5584 44.9792 56.5454 46.1378 56.5454 46.2474C56.5454 46.3175 56.4075 46.6459 56.2389 46.9772C55.8563 47.7289 56.044 48.2938 56.7262 48.444C57.2828 48.5665 57.5335 48.3661 58.0151 47.4136C58.2351 46.9787 58.5746 46.5802 58.8447 46.4402C59.78 45.9555 60.3796 45.2905 60.3796 44.7382C60.3796 43.8201 59.5521 43.6392 58.6984 44.3706C58.1188 44.867 57.7519 44.9408 57.4823 44.615C57.3453 44.4498 57.44 44.2724 57.9236 43.7877C58.6645 43.045 58.7599 42.3642 58.1765 41.9809C57.7348 41.6909 57.2559 41.8386 56.7013 42.436C56.1598 43.0194 55.3942 43.4615 55.1127 43.3532C54.8992 43.271 54.9046 43.2004 55.1612 42.7207C55.4656 42.1511 55.4307 41.7994 55.0376 41.482C54.6181 41.1433 54.1856 41.2803 53.4485 41.9851ZM64.444 62.2176C63.2007 67.1983 61.4025 71.9319 57.1957 81.2967C56.5595 82.7128 55.9915 83.8716 55.9336 83.8716C55.7644 83.8716 55.3362 81.1687 55.2251 79.3993C55.0679 76.8939 55.14 76.6448 56.4906 75.0324C59.6487 71.2619 62.5314 66.3264 64.1546 61.9111C64.4765 61.0355 64.7627 60.3878 64.7906 60.4717C64.8187 60.5558 64.6625 61.3414 64.444 62.2176ZM18.4556 69.0737C19.596 70.9675 20.6237 72.4623 21.8525 74.0143L22.9939 75.4558L23.114 77.55C23.2741 80.3436 22.9399 84.7205 22.5045 85.5351C22.2637 85.9855 18.6216 75.5091 17.3569 70.7281C16.877 68.9137 16.0554 65.1494 16.0554 64.7647C16.0554 64.6784 16.4337 65.3444 16.8962 66.2443C17.3587 67.1442 18.0604 68.4175 18.4556 69.0737ZM36.3438 66.109C35.9881 66.2203 35.0389 66.6324 34.2345 67.0247C32.8236 67.7127 32.7558 67.7296 32.3198 67.5036C31.435 67.045 30.6256 67.3368 30.6256 68.1146C30.6256 68.5488 31.1562 68.9981 32.0916 69.3561C32.6624 69.5747 32.7728 69.6834 32.7728 70.0271C32.7728 71.1887 34.6141 72.8117 36.6654 73.4584C37.5513 73.7376 38.1048 73.8012 39.5979 73.7952C41.1932 73.7888 41.5903 73.7331 42.58 73.3776C44.6366 72.6385 46.2695 71.1556 46.2695 70.0271C46.2695 69.6834 46.3799 69.5747 46.9508 69.3561C47.8862 68.9981 48.4167 68.5488 48.4167 68.1146C48.4167 67.3374 47.6074 67.0449 46.7239 67.5028C46.2891 67.7282 46.218 67.7099 44.6993 66.982C42.2168 65.792 41.0259 65.5937 40.0377 66.2058L39.5212 66.5257L39.0046 66.2058C38.4048 65.8341 37.3442 65.7956 36.3438 66.109ZM38.3132 67.9226C38.9617 68.4032 40.087 68.3986 40.7425 67.9127C41.2171 67.5609 41.2319 67.5599 42.0207 67.8163C43.0607 68.1545 43.1877 68.2904 42.5869 68.4226C41.8512 68.5846 36.7422 68.5429 36.3004 68.3714C35.886 68.2104 35.8665 68.2259 36.9905 67.8199C37.8019 67.5269 37.7767 67.5251 38.3132 67.9226ZM35.9309 70.2653C36.9809 70.5845 41.8641 70.5856 43.0487 70.2669C44.4625 69.8866 44.6057 69.9583 43.8321 70.6594C42.8091 71.5864 41.0541 72.0932 39.1755 72.0042C37.4349 71.9216 36.0949 71.4622 35.1826 70.6348C34.6372 70.1403 34.5866 70.048 34.8573 70.0427C35.0337 70.0391 35.5168 70.1394 35.9309 70.2653Z" fill="#13A2B7"/>
</svg>
