<svg width="82" height="82" viewBox="0 0 82 82" fill="none" xmlns="http://www.w3.org/2000/svg">
<path d="M29.2007 1.16919C31.114 2.53586 30.7648 4.68456 31.4481 6.4916C32.1314 6.6966 32.8299 6.894 33.5133 7.11419C39.3596 8.99715 43.4823 12.9377 46.5118 18.131C47.1799 19.2699 47.7646 20.4696 48.2429 21.6996C48.9035 23.4003 50.012 24.5923 51.7431 25.1162C55.1142 26.1336 58.5005 27.0903 61.8944 28.0546C62.7296 28.2899 63.5951 28.4418 64.6049 28.6696C64.7188 31.2586 63.2686 33.3618 62.8207 35.7307C63.876 36.8999 66.0247 36.8468 66.3057 39.2005C65.2123 42.564 61.8033 44.0294 59.3205 46.3831C58.1057 45.7757 58.0677 45.0999 58.8194 44.4166C59.6849 43.627 60.6871 42.9664 61.5527 42.1844C62.5701 41.2657 63.5116 40.2634 64.6884 39.1094C63.8912 38.6614 63.4205 38.3729 62.927 38.1223C60.877 37.0821 60.5505 36.2546 61.3249 34.0299C61.6894 32.9897 62.0386 31.942 62.3727 30.8942C62.4334 30.6968 62.3803 30.4614 62.3803 30.1501C60.3075 29.6338 58.2423 29.1479 56.1999 28.6012C54.9244 28.252 53.6868 27.7812 52.4188 27.4016C49.3362 26.4753 47.347 24.5771 46.079 21.5021C43.7481 15.8533 39.8075 11.5862 34.022 9.24011C33.4829 9.01993 32.9059 8.86808 32.3364 8.71622C32.1314 8.66308 31.9036 8.70863 31.6303 8.70863C31.357 11.1534 31.2127 13.5755 30.7951 15.9444C30.1573 19.5584 29.2386 23.1346 28.6009 26.7486C27.6062 32.3671 27.4164 38.0008 28.6768 43.6345C29.922 49.1847 32.587 53.9073 36.6186 57.901C40.5212 61.7732 45.0388 64.7571 50.3233 67.4905C50.5586 67.1032 50.7864 66.6249 51.1053 66.2225C53.6488 63.0032 57.0275 60.976 60.7707 59.4803C62.274 58.8805 63.8153 58.3642 65.2655 57.6581C66.6473 56.9823 68.0368 56.2382 69.2212 55.274C71.6888 53.2771 71.4155 50.8171 68.6973 49.2379C68.1886 48.9418 67.6799 48.6457 67.1788 48.3344C66.1386 47.689 65.3414 46.8614 65.0908 45.4795C65.5084 44.4621 65.4097 43.0879 66.7233 42.2527C67.0421 42.5033 67.3686 42.7538 67.7255 43.0347C67.4673 43.9382 67.2244 44.7658 66.9131 45.8364C67.8318 46.4362 68.6745 47.1803 69.654 47.5979C72.8884 48.957 73.9894 53.5581 70.7701 56.3901C68.9631 57.9769 66.8751 59.0171 64.7036 59.9358C63.3521 60.5053 61.9475 60.976 60.6036 61.5606C56.4429 63.3753 54.856 64.5977 51.8418 68.2573C52.4036 68.7053 53.0034 69.1229 53.5121 69.6164C54.5144 70.5882 55.6077 71.4994 56.4049 72.6231C58.1816 75.1514 57.8475 77.4368 55.5621 79.4943C55.0307 79.9727 54.4005 80.3371 53.7247 80.8155C53.3679 80.3675 53.1097 80.0486 52.7377 79.5779C53.2844 79.0843 53.7627 78.6516 54.2334 78.2188C55.9646 76.6319 56.1392 75.2729 54.7346 73.3899C53.2464 71.4006 51.1812 70.1175 49.0705 68.8875C46.5953 67.4449 44.0897 66.0327 41.7057 64.4382C37.7651 61.796 34.2801 58.6299 31.5468 54.7045C28.1301 49.7997 26.4294 44.3103 26.0801 38.3881C25.7536 32.9062 26.399 27.5307 27.6594 22.1855C28.487 18.6853 29.0488 15.1092 29.4892 11.5407C29.8536 8.60993 29.7094 5.65641 28.5477 2.84715C28.2516 2.179 28.3048 2.15623 29.2007 1.16919Z" fill="#13A2B7"/>
<path d="M46.8141 72.9115C46.8596 73.481 46.89 73.8834 46.9431 74.5212C46.032 74.5212 45.2196 74.6578 44.468 74.4984C33.4663 72.213 24.8487 66.5034 19.7616 56.3369C16.1855 49.1923 15.9957 41.5921 18.3494 33.9691C18.8505 32.3519 19.4276 30.7574 20.1033 29.2085C22.662 23.3471 24.0515 17.2046 24.7576 10.88C24.8487 10.0904 24.75 9.18686 25.9268 9.08057C27.0354 9.61205 26.6481 10.6143 26.5494 11.4115C25.8889 16.825 24.8942 22.1702 22.8518 27.2724C22.1154 29.1174 21.3865 30.97 20.6955 32.8302C16.14 45.0695 19.2681 58.8576 31.6744 67.2247C36.1996 70.2617 41.0437 72.4256 46.8141 72.9115Z" fill="#13A2B7"/>
<path d="M17.2874 21.4263C17.91 21.4263 18.3124 21.4263 18.7756 21.4263C19.4741 23.3852 19.4817 25.3213 18.7224 27.0828C17.7733 29.2998 16.6724 31.4789 15.3437 33.4833C12.3446 38.0009 10.8717 42.9057 11.1754 48.2889C11.2817 50.1794 11.798 52.0472 12.1472 53.9226C12.2535 54.4844 12.3978 55.0311 12.5268 55.5853C11.4715 56.3446 10.8489 55.9726 10.6211 55.0235C10.1276 52.9583 9.4974 50.8855 9.36073 48.7824C8.95832 42.7918 10.4541 37.2644 13.9543 32.3292C14.6756 31.3118 15.3057 30.2261 15.9283 29.1403C17.052 27.1739 17.6139 25.0783 17.3026 22.7853C17.2494 22.4361 17.2874 22.064 17.2874 21.4263Z" fill="#13A2B7"/>
<path d="M32.5481 30.7195C31.5839 26.6423 35.2055 21.6311 40.5735 19.7102C40.8088 20.0519 41.0594 20.4239 41.3859 20.9022C40.8468 21.2743 40.4748 21.6084 40.0344 21.8285C36.8607 23.461 34.7044 25.8754 34.0818 29.4895C33.9376 30.3626 33.6566 31.0687 32.5481 30.7195Z" fill="#13A2B7"/>
<path d="M45.4941 26.855C46.6254 26.6728 46.9215 27.3485 46.8911 28.2596C46.8304 29.8465 46.3141 31.3043 45.327 32.5419C43.7781 34.4932 41.6598 35.4498 39.2301 35.7004C38.7366 35.7535 38.2051 35.4726 37.7344 35.3511C37.8179 34.1971 38.4709 34.0072 39.1314 33.8933C42.7835 33.2708 44.9778 31.3119 45.1524 27.4396C45.1524 27.2574 45.3574 27.0752 45.4941 26.855Z" fill="#13A2B7"/>
</svg>
