<svg width="76" height="90" viewBox="0 0 76 90" fill="none" xmlns="http://www.w3.org/2000/svg">
<path fill-rule="evenodd" clip-rule="evenodd" d="M34.616 0.0951256C24.1864 0.966157 16.2174 5.74918 10.7314 14.4304C9.91995 15.7145 8.42284 18.6382 7.71298 20.3253C6.39847 23.4493 4.73387 29.0524 4.14945 32.3208C3.2331 37.4445 1.79755 53.9303 0.471024 74.5624C0.270551 77.6791 0.0686116 80.6717 0.0221569 81.2128C-0.0783729 82.3848 0.13734 82.9122 1.20668 84.1067C3.56576 86.742 8.48747 88.6732 14.9577 89.5024C16.9559 89.7584 23.2634 90.101 23.599 89.9718C23.7224 89.9243 23.9304 89.7212 24.0614 89.5206C24.2906 89.1691 24.2664 89.0765 23.3965 86.9891L22.4936 84.8224L22.8777 83.4631C23.5058 81.2399 23.7141 79.7858 23.7992 77.0278C23.8436 75.5908 23.9088 74.4153 23.9443 74.4153C23.9799 74.4153 24.535 74.8948 25.1782 75.4809C28.0857 78.1305 31.584 80.1051 34.6346 80.8188C39.5104 81.9594 45.1451 80.1113 50.1997 75.7134C50.5522 75.4068 50.8983 75.1919 50.9691 75.2358C51.0399 75.2798 51.0977 75.7172 51.0977 76.2081C51.0977 77.4581 51.4858 79.9438 51.9111 81.4177C52.1086 82.1021 52.2701 82.7597 52.2701 82.879C52.2701 82.9983 51.6447 84.4302 50.8801 86.0611C49.9028 88.1457 49.5151 89.1258 49.574 89.3617C49.7381 90.0189 50.2183 90.074 54.1468 89.8867C62.3147 89.4974 67.9097 88.2433 71.8813 85.9113C73.2067 85.1332 74.8705 83.5798 75.259 82.7579C75.5403 82.163 75.5432 82.0561 75.3481 79.5667C75.2371 78.15 74.9791 74.7722 74.7747 72.0603C74.3364 66.2432 72.1599 37.2623 71.8344 32.9095C71.5082 28.5469 71.0654 26.2415 69.8791 22.7321C67.9639 17.0658 64.4462 11.8568 59.6441 7.57617C54.8817 3.33081 50.5255 1.16441 45.0161 0.301477C43.2457 0.0241832 36.9588 -0.100628 34.616 0.0951256ZM43.5507 1.85691C49.2778 2.49878 54.1736 4.82457 58.782 9.0926C64.556 14.4402 68.0109 20.4937 69.4997 27.8719C69.8703 29.7086 69.9351 30.4299 70.9546 44.0955C71.2415 47.9406 71.6052 52.7756 71.7631 54.8399C71.9209 56.9041 72.3478 62.567 72.7118 67.424C73.0757 72.2811 73.4718 77.5105 73.5921 79.0448L73.8106 81.8346L73.4203 82.4001C72.3268 83.985 68.7479 85.8591 65.1661 86.7223C63.7581 87.0617 60.5647 87.652 60.4982 87.5852C60.4664 87.5534 60.8266 86.8788 61.2983 86.0859C63.7737 81.9262 66.175 75.8128 66.4394 72.9966C66.5207 72.1317 66.5071 72.0817 66.1214 71.8278C65.7582 71.5889 65.6804 71.5842 65.3324 71.7802C65.0051 71.9645 64.9065 72.1879 64.6866 73.2432C64.12 75.9608 62.971 79.1284 61.4372 82.1999C60.4184 84.2399 58.8214 86.9548 58.3031 87.5272L57.9121 87.9591L54.9451 88.13C53.3132 88.2239 51.9437 88.2661 51.9018 88.224C51.8598 88.1818 52.1637 87.4254 52.5773 86.543C56.7136 77.7183 60.5659 68.6672 61.8418 64.7747C64.8483 55.6039 65.6067 46.6585 63.9943 39.3881C63.405 36.7311 62.2186 33.9146 61.3659 33.1484C59.8416 31.7787 58.1202 30.034 57.1367 28.862C54.0604 25.1958 49.6867 18.6435 46.3937 12.7679C45.5239 11.2159 45.0954 10.6848 44.7129 10.6848C44.6043 10.6848 43.8039 11.3245 42.934 12.1062C39.1873 15.4733 35.3865 18.2134 31.6027 20.2752C30.512 20.8695 27.2477 22.4811 24.3488 23.8567C16.8477 27.4161 16.1113 27.8217 15.5218 28.721C14.3746 30.4703 13.3875 34.3416 12.7647 39.5328C12.4467 42.1839 12.3165 50.3249 12.5434 53.3747C13.3086 63.6623 15.1589 70.8745 20.5011 84.393C21.3102 86.4403 21.9308 88.157 21.8801 88.2078C21.7665 88.322 16.9013 88.0212 15.1682 87.7929L13.8964 87.6253L13.168 85.6933C11.6114 81.5653 10.3643 77.1223 9.68181 73.2731C9.36425 71.4817 9.28438 70.5008 9.224 67.6448C9.12333 62.8873 9.47929 58.9383 10.4619 53.9116C10.8921 51.7106 10.8681 51.4957 10.1644 51.2439C9.33567 50.9472 9.07614 51.617 8.37141 55.8701C7.54504 60.8582 7.2307 66.4008 7.56204 70.1469C7.94672 74.498 9.19924 79.7483 11.1191 85.0585C11.5234 86.1767 11.8132 87.1328 11.7629 87.1831C11.6278 87.319 8.43808 86.4048 6.92325 85.7961C4.69811 84.9019 2.84769 83.6222 2.02147 82.4058L1.70054 81.9334L1.92958 78.3583C3.30168 56.9515 4.66485 40.5475 5.60845 34.087C6.37766 28.8212 8.52777 22.0829 10.8215 17.7496C13.4344 12.8132 16.8399 8.93702 20.8566 6.32761C24.6943 3.83447 29.1842 2.33732 34.2451 1.86339C36.0869 1.69089 42.0329 1.68677 43.5507 1.85691ZM45.0057 13.8126C49.4389 21.7916 55.7253 30.5004 59.2939 33.6066C61.4605 35.4925 62.1336 37.6853 62.3331 43.5067C62.4292 46.3138 62.2558 48.7565 61.7793 51.3075C59.2927 64.6209 50.059 76.7193 40.5812 79.082C39.0098 79.4738 35.9519 79.4352 34.4649 79.005C27.3166 76.9367 20.0522 69.0182 15.9907 58.8672C14.6 55.3914 14.317 54.2324 14.1457 51.3075C13.8909 46.9585 14.2174 40.6224 14.9051 36.5679C15.4462 33.3786 16.3215 30.4374 16.9793 29.5973C17.2863 29.2055 19.7638 27.9049 23.8404 25.9953C34.015 21.2293 37.6375 19.0345 42.7447 14.5416C43.6716 13.7262 44.4629 13.0548 44.5032 13.0496C44.5435 13.0443 44.7696 13.3877 45.0057 13.8126ZM28.416 26.957C27.6799 27.4746 28.1994 28.494 29.1992 28.494C29.9107 28.494 30.3785 27.7711 30.0266 27.2154C29.9101 27.0313 29.2209 26.7278 28.9192 26.7278C28.8216 26.7278 28.595 26.831 28.416 26.957ZM45.6756 26.9174C45.2242 27.1454 45.1022 27.897 45.4583 28.2549C46.0229 28.8218 47.2876 28.3782 47.2876 27.6131C47.2876 26.82 46.522 26.4895 45.6756 26.9174ZM30.9233 27.3378C30.3337 28.0759 30.7265 28.7746 31.7998 28.8961C32.3379 28.9571 32.5586 28.9156 32.7833 28.7116C33.1195 28.4059 33.1568 27.9299 32.8749 27.5426C32.6183 27.1901 31.1632 27.0374 30.9233 27.3378ZM42.6056 27.4562C41.8626 28.2025 42.517 29.0474 43.6997 28.8693C44.5651 28.7389 44.9182 28.2752 44.6237 27.6555C44.4512 27.2927 44.3359 27.2377 43.6667 27.1987C43.0574 27.1633 42.8462 27.2146 42.6056 27.4562ZM33.7405 27.7909C33.448 28.2101 33.4533 28.3897 33.7688 28.7726C33.9315 28.9702 34.2718 29.1168 34.6998 29.1739C35.2809 29.2516 35.418 29.217 35.689 28.9248C36.3618 28.1995 35.8602 27.4637 34.6931 27.4637C34.1106 27.4637 33.9239 27.5279 33.7405 27.7909ZM36.8294 27.7689C36.0556 28.3801 36.5555 29.2299 37.6889 29.2299C38.4767 29.2299 39.0135 28.8081 38.8768 28.2965C38.8302 28.1218 38.7911 27.9358 38.79 27.8829C38.7872 27.7497 37.9343 27.4637 37.5403 27.4637C37.3617 27.4637 37.0417 27.6011 36.8294 27.7689ZM39.6583 27.7671C39.2792 28.1479 39.339 28.6047 39.8138 28.9572C40.3408 29.3486 41.4048 29.1577 41.7064 28.618C41.8985 28.2743 41.8946 28.1927 41.6701 27.8486C41.4549 27.5189 41.3146 27.4637 40.6897 27.4637C40.1485 27.4637 39.8824 27.542 39.6583 27.7671ZM21.7995 29.4706C21.6324 29.6839 21.4957 29.9067 21.4957 29.9659C21.4957 30.242 22.1295 30.8362 22.5147 30.9211C23.6994 31.1823 24.1445 29.7599 23.025 29.2901C22.3336 28.9999 22.1463 29.0276 21.7995 29.4706ZM52.4584 29.3C51.3715 29.7747 51.9065 31.2618 53.0395 30.915C53.8547 30.6656 54.1597 29.8222 53.6141 29.3263C53.2923 29.0337 53.0793 29.0289 52.4584 29.3ZM24.4427 30.3912C24.2727 30.562 24.1335 30.8041 24.1335 30.9292C24.1335 31.3051 24.7969 31.8529 25.3867 31.964C26.205 32.1181 26.7517 31.6677 26.5784 30.9822C26.4681 30.5449 26.0802 30.2939 25.3284 30.1732C24.8602 30.098 24.6939 30.1389 24.4427 30.3912ZM49.4858 30.3709C48.8462 30.6916 48.7083 31.3654 49.1921 31.8052C49.469 32.0569 49.5659 32.0662 50.1884 31.9001C51.0246 31.6772 51.2809 31.4449 51.2809 30.9103C51.2809 30.1426 50.4428 29.8906 49.4858 30.3709ZM27.4412 31.2274C27.1923 31.4774 27.1423 31.9842 27.3362 32.2914C27.5213 32.5845 28.8043 32.9298 29.106 32.7678C29.5571 32.5252 29.7391 32.1945 29.6401 31.7978C29.4718 31.1245 27.9396 30.7269 27.4412 31.2274ZM46.5549 31.1005C45.8252 31.37 45.6066 32.0793 46.1116 32.5383C46.4737 32.8674 47.5962 32.7799 48.0263 32.3889C48.3723 32.0746 48.3982 31.544 48.0832 31.2274C47.859 31.0023 47.0113 30.932 46.5549 31.1005ZM30.5328 31.852C30.1629 32.2624 30.2618 32.9259 30.728 33.1615C31.346 33.474 32.2872 33.4029 32.5515 33.0239C32.844 32.6046 32.8388 32.424 32.5232 32.0478C32.3552 31.8476 32.0134 31.71 31.5328 31.6492C30.9127 31.5707 30.7579 31.6022 30.5328 31.852ZM43.4774 31.6892C42.7478 31.9587 42.5291 32.668 43.0341 33.1271C43.2558 33.3286 43.4803 33.3724 43.9927 33.3144C45.0922 33.1899 45.6055 32.4079 44.9679 31.8285C44.7097 31.5937 43.9327 31.5211 43.4774 31.6892ZM40.6931 31.9879C39.7881 32.0965 39.3947 32.7734 39.8629 33.4163C40.1577 33.8215 41.5511 33.768 41.9021 33.3381C42.043 33.1655 42.1585 32.9291 42.1585 32.813C42.1585 32.5776 41.5048 31.866 41.3225 31.9028C41.2584 31.9157 40.9752 31.954 40.6931 31.9879ZM33.6083 32.2956C33.0418 32.9244 33.465 33.5579 34.5603 33.7205C35.1381 33.8063 35.2888 33.7747 35.5495 33.5128C35.9284 33.1322 35.9454 32.594 35.589 32.27C35.206 31.9218 33.9303 31.9383 33.6083 32.2956ZM36.6547 32.5338C36.4526 32.8434 36.4472 32.9516 36.6159 33.3065C36.7885 33.6696 36.9036 33.7243 37.5758 33.7633C38.5803 33.8216 38.9345 33.6247 38.9345 33.0074C38.9345 32.3326 38.7062 32.1736 37.7362 32.1736C36.9998 32.1736 36.859 32.2204 36.6547 32.5338ZM20.9828 34.6844C19.8207 34.9716 18.0314 35.595 17.0045 36.0707C15.8385 36.6109 15.6022 36.9565 15.9914 37.553C16.2948 38.018 16.8209 38.0212 17.8505 37.5642C18.2837 37.372 19.2947 37.0036 20.0972 36.7456C21.9207 36.1592 22.8849 36.1426 24.9045 36.6629C26.443 37.0592 31.1794 38.6251 32.3155 39.1129C33.1845 39.4861 33.6029 39.4611 33.8915 39.0187C34.2703 38.438 34.0666 37.9991 33.2578 37.6528C31.8397 37.0457 28.7905 35.9916 26.5315 35.3275C24.0473 34.5971 22.2019 34.3833 20.9828 34.6844ZM49.7056 35.0281C47.9725 35.4895 43.1685 37.0981 41.8341 37.6637C41.0075 38.014 40.8987 38.8451 41.6195 39.3019C41.8053 39.4196 42.0943 39.3763 42.7821 39.128C45.5251 38.1373 49.0045 36.9939 50.2917 36.6601C52.6381 36.0516 53.7693 36.1618 56.5653 37.2718C58.2238 37.93 58.9968 37.9922 59.2492 37.488C59.6517 36.6838 58.8255 36.1299 55.7139 35.118C53.4907 34.3952 52.1574 34.3752 49.7056 35.0281ZM22.9882 39.6335C22.8823 39.676 22.733 39.8765 22.6563 40.079C22.5482 40.3645 22.5836 40.5559 22.8141 40.9303C23.081 41.364 23.087 41.4226 22.8732 41.505C22.5967 41.6116 21.87 41.1951 21.3466 40.6302C20.8167 40.0582 20.3592 39.9168 19.9372 40.1945C19.3797 40.5614 19.4709 41.2133 20.1788 41.9244C20.6409 42.3884 20.7313 42.5583 20.6004 42.7165C20.3428 43.0284 19.9923 42.9577 19.4385 42.4825C18.6907 41.8405 17.9979 41.9411 17.7664 42.7256C17.6486 43.1246 18.4632 44.0909 19.2225 44.4527C19.4999 44.585 20.0094 45.0578 20.3548 45.5034C21.0179 46.3593 21.4287 46.5755 21.9048 46.3196C22.4095 46.0483 22.4406 45.4575 21.985 44.7971C21.5874 44.221 21.5854 44.2067 21.8678 43.9941C22.1632 43.7717 23.4843 43.0652 23.6052 43.0652C23.6423 43.0652 23.6363 43.4199 23.5917 43.8535C23.3991 45.7264 24.6171 47.1113 26.4263 47.0768C28.1144 47.0447 29.1601 45.8802 29.1346 44.0613L29.1227 43.2082L29.5923 43.4523C29.8506 43.5864 30.5145 43.9983 31.0674 44.3676C32.0301 45.0105 32.0894 45.0298 32.4628 44.8202C32.7314 44.6696 32.8668 44.459 32.8976 44.1442C32.9353 43.7587 32.8432 43.6055 32.3114 43.1685C30.6701 41.8196 28.107 40.8574 26.1554 40.8574C25.1621 40.8574 25.136 40.8473 24.4417 40.1951C23.7809 39.5743 23.4519 39.4471 22.9882 39.6335ZM51.0696 40.1985C50.3914 40.8486 50.3684 40.8574 49.3712 40.8574C47.439 40.8574 44.6761 41.8911 43.1862 43.1715C42.462 43.7939 42.3695 44.1736 42.8298 44.6359C43.2356 45.0435 43.5565 45.0079 44.2834 44.4748C44.9171 44.01 46.2455 43.2124 46.3859 43.2124C46.4518 43.2124 46.4759 43.5736 46.4394 44.0151C46.351 45.0865 46.4652 45.4666 47.0807 46.151C48.3213 47.5303 50.4865 47.3737 51.5006 45.8315C51.8513 45.2981 51.9026 45.0782 51.8947 44.1418C51.8897 43.5497 51.9149 43.0652 51.9505 43.0652C52.1302 43.0652 54.0286 44.1745 54.0286 44.2794C54.0286 44.3466 53.8969 44.6609 53.7358 44.9781C53.3702 45.6979 53.5496 46.2388 54.2014 46.3826C54.7332 46.4999 54.9728 46.3079 55.433 45.396C55.6431 44.9796 55.9676 44.5981 56.2256 44.464C57.1193 43.9999 57.6923 43.3632 57.6923 42.8344C57.6923 41.9554 56.9015 41.7822 56.0858 42.4825C55.5321 42.9577 55.1815 43.0284 54.9239 42.7165C54.793 42.5583 54.8834 42.3884 55.3455 41.9244C56.0535 41.2133 56.1446 40.5614 55.5872 40.1945C55.1651 39.9168 54.7076 40.0582 54.1777 40.6302C53.6602 41.1887 52.9287 41.612 52.6598 41.5084C52.4558 41.4297 52.4609 41.3621 52.7061 40.9028C52.997 40.3575 52.9636 40.0207 52.588 39.7168C52.1872 39.3925 51.7739 39.5237 51.0696 40.1985ZM61.5757 59.57C60.3878 64.3388 58.6696 68.871 54.65 77.8373C54.0421 79.1931 53.4995 80.3026 53.4441 80.3026C53.2824 80.3026 52.8733 77.7147 52.7672 76.0206C52.617 73.6218 52.6859 73.3834 53.9763 71.8396C56.9938 68.2294 59.7483 63.504 61.2992 59.2766C61.6068 58.4382 61.8802 57.8181 61.9069 57.8985C61.9337 57.979 61.7845 58.7311 61.5757 59.57ZM17.6342 66.1344C18.7238 67.9476 19.7058 69.3788 20.8799 70.8648L21.9705 72.2449L22.0852 74.25C22.2382 76.9247 21.9189 81.1153 21.5029 81.8953C21.2728 82.3265 17.7928 72.296 16.5844 67.7184C16.1258 65.9812 15.3408 62.3771 15.3408 62.0087C15.3408 61.9262 15.7023 62.5638 16.1441 63.4254C16.5861 64.287 17.2566 65.5061 17.6342 66.1344ZM34.7262 63.2958C34.3863 63.4024 33.4794 63.797 32.7108 64.1726C31.3627 64.8313 31.2979 64.8475 30.8813 64.6311C30.0359 64.192 29.2626 64.4714 29.2626 65.2161C29.2626 65.6318 29.7695 66.062 30.6632 66.4048C31.2087 66.6141 31.3142 66.7182 31.3142 67.0473C31.3142 68.1594 33.0735 69.7133 35.0335 70.3325C35.8799 70.5998 36.4088 70.6608 37.8354 70.655C39.3598 70.6488 39.7392 70.5956 40.6849 70.2551C42.6499 69.5475 44.2101 68.1277 44.2101 67.0473C44.2101 66.7182 44.3156 66.6141 44.8611 66.4048C45.7549 66.062 46.2618 65.6318 46.2618 65.2161C46.2618 64.472 45.4884 64.1919 44.6443 64.6304C44.2289 64.8461 44.1609 64.8286 42.7098 64.1317C40.3378 62.9924 39.1999 62.8025 38.2557 63.3886L37.7622 63.6949L37.2686 63.3886C36.6955 63.0327 35.6821 62.9957 34.7262 63.2958ZM36.608 65.0323C37.2276 65.4924 38.3028 65.488 38.9291 65.0228C39.3827 64.686 39.3967 64.685 40.1504 64.9305C41.1441 65.2543 41.2655 65.3844 40.6914 65.511C39.9885 65.6661 35.1069 65.6262 34.6847 65.4619C34.2888 65.3078 34.2701 65.3227 35.3442 64.934C36.1194 64.6535 36.0954 64.6517 36.608 65.0323ZM34.3317 67.2752C35.3349 67.5809 40.0008 67.582 41.1327 67.2769C42.4835 66.9127 42.6204 66.9813 41.8812 67.6526C40.9038 68.5401 39.2269 69.0254 37.4318 68.9402C35.7687 68.8612 34.4883 68.4212 33.6167 67.6291C33.0956 67.1556 33.0472 67.0673 33.3059 67.0621C33.4744 67.0587 33.936 67.1547 34.3317 67.2752Z" fill="#F8F8F8"/>
</svg>
