<svg width="91" height="91" viewBox="0 0 91 91" fill="none" xmlns="http://www.w3.org/2000/svg">
<path d="M73.1456 57.0941C74.7466 58.1221 76.2295 59.1164 77.7631 60.0264C78.0411 60.1865 78.5719 60.1106 78.9006 59.9589C81.0744 58.9226 83.1051 59.268 84.7144 61.0206C86.0963 62.5204 86.1553 64.4921 84.8745 66.548C83.973 67.9889 83.0798 69.4465 82.1361 70.8621C81.007 72.5641 79.0691 73.2298 77.2238 72.6063C75.092 71.8901 73.8113 70.1965 73.963 68.1068C74.0219 67.2558 73.7607 66.8092 73.0193 66.3964C71.6543 65.6296 70.3651 64.7196 68.9664 63.8265C68.7052 64.1803 68.4693 64.4668 68.267 64.7702C66.5229 67.3653 64.1046 67.8877 61.4505 66.2026C59.5462 64.9977 57.6504 63.7843 55.7461 62.571C45.3569 55.9398 34.9762 49.3086 24.587 42.6858C22.2193 41.1775 21.6801 39.9305 22.1351 37.1078C22.1856 36.8045 21.9497 36.4506 21.8233 36.1304C21.7981 36.063 21.6632 36.0293 21.638 35.9619C21.2167 34.8075 21.0229 33.4847 20.3319 32.5241C19.5483 31.4372 18.8743 30.4935 19.0933 29.0695C19.1439 28.7409 18.7142 28.1932 18.3603 27.9573C14.8467 25.6148 11.2993 23.323 7.76889 21.0227C7.59194 20.9048 7.40657 20.7952 7.22963 20.6773C6.52185 20.2307 6.18481 19.5735 6.63139 18.8404C7.10324 18.0568 7.84472 18.0062 8.61991 18.5118C10.3978 19.683 12.1841 20.8542 13.9704 22.017C15.9673 23.323 17.9558 24.6543 19.9865 25.9098C20.3741 26.1541 20.9723 26.0614 21.4779 26.1204C21.52 26.1288 21.5621 26.0783 21.5958 26.0867C23.8456 26.4659 26.0953 25.3536 28.3619 26.0783C28.6652 26.1794 29.1539 25.994 29.4404 25.7834C31.2604 24.4605 32.9793 24.3173 34.9004 25.539C47.4887 33.5605 60.0686 41.5904 72.6317 49.6372C74.814 51.0359 75.3364 53.5552 73.9882 55.7797C73.7355 56.1673 73.4827 56.5633 73.1456 57.0941ZM46.604 53.6479C46.8652 53.3109 47.0843 53.0497 47.2781 52.7716C48.5588 50.9601 49.8395 49.1485 51.1119 47.3369C51.6006 46.6375 52.2325 46.3679 52.9656 46.8819C53.6986 47.3959 53.6228 48.1037 53.1846 48.803C52.9571 49.1653 52.7043 49.5108 52.46 49.8563C51.2719 51.5583 50.0755 53.2603 48.8116 55.0719C49.8058 55.7123 50.7158 56.3021 51.6848 56.9172C52.0724 56.3779 52.3926 55.9229 52.7044 55.4764C53.8081 53.9091 54.8445 52.2829 56.0579 50.8C56.3696 50.4208 57.2122 50.4882 57.8189 50.345C57.9453 50.9095 58.1391 51.474 58.1728 52.0554C58.1896 52.2914 57.8779 52.5526 57.7094 52.7969C56.4455 54.6085 55.1816 56.4201 53.8671 58.299C54.8698 58.9394 55.7714 59.5208 56.7067 60.1275C56.9426 59.8157 57.1364 59.5882 57.3049 59.3439C58.434 57.7345 59.5546 56.1251 60.6837 54.5242C61.1808 53.8164 61.7454 53.2351 62.6722 53.9176C63.5906 54.5916 63.2115 55.3078 62.7144 56.0156C62.6385 56.1167 62.5543 56.2178 62.4869 56.3189C61.3241 58.0378 60.1613 59.7483 58.9395 61.5514C60.3635 62.453 61.6695 63.3209 63.0177 64.1382C64.349 64.9387 65.2927 64.7027 66.1353 63.3883C67.9469 60.5488 69.7416 57.7008 71.5363 54.8528C72.5643 53.2182 72.3705 52.4683 70.7021 51.4066C63.1525 46.587 55.6029 41.7674 48.0617 36.9477C43.2673 33.8975 38.4898 30.8389 33.7039 27.7972C32.4063 26.9714 31.6227 27.081 30.7969 28.1089C29.5078 29.7099 29.4994 29.7267 27.6119 28.6229C26.9294 28.2269 26.3818 28.1258 25.8341 28.8251C25.2864 29.5076 24.6207 29.5161 23.9045 29.0358C23.5254 28.783 23.1125 28.5892 22.6491 28.328C22.2446 28.9515 21.9076 29.4655 21.5706 29.9795C21.7896 30.207 21.8823 30.3671 22.0256 30.4429C23.1462 31.0496 23.8793 31.7574 23.2305 33.2066C23.1125 33.4678 23.6096 34.1924 23.9888 34.4621C25.6993 35.6838 25.7414 35.7091 24.7724 37.4954C24.309 38.3464 24.2753 39.2649 25.0505 39.8125C27.1232 41.2787 29.2887 42.61 31.4626 44.0171C31.7575 43.6042 31.9597 43.3346 32.1535 43.0565C33.5944 40.9922 35.0352 38.9278 36.4844 36.8719C36.9647 36.1894 37.5967 35.8776 38.3466 36.3832C39.0881 36.8803 39.0544 37.5797 38.6162 38.2875C38.4561 38.5402 38.2792 38.7762 38.1106 39.0205C36.653 41.1101 35.1869 43.2082 33.6618 45.3905C34.656 46.0225 35.566 46.6038 36.5181 47.2021C36.8468 46.7555 37.108 46.4269 37.3523 46.0814C38.6499 44.2362 39.9559 42.3825 41.2367 40.5287C41.7591 39.7704 42.4247 39.2986 43.2589 39.9137C44.0931 40.5203 43.8656 41.3124 43.3094 42.0454C43.0735 42.3488 42.8713 42.6774 42.6522 42.9891C41.3631 44.8344 40.0739 46.6797 38.7005 48.6345C39.7116 49.2664 40.63 49.831 41.599 50.4292C41.995 49.8815 42.3152 49.435 42.6354 48.98C43.8319 47.2695 45.0283 45.5506 46.2332 43.8486C46.7219 43.1576 47.4803 42.8459 48.0785 43.4357C48.424 43.7812 48.3481 44.5985 48.3734 45.2051C48.3819 45.4074 48.1038 45.618 47.9521 45.8287C46.5787 47.8088 45.2053 49.7973 43.7897 51.8532C44.7924 52.5104 45.6856 53.0665 46.604 53.6479ZM70.2556 61.602C72.2441 62.8743 74.0894 64.0708 75.9599 65.242C76.8362 65.7897 77.2154 66.3964 76.7014 67.458C76.1453 68.5955 76.4907 69.3117 77.6535 69.9521C78.6478 70.4998 79.4482 70.2807 80.0549 69.337C80.9986 67.8709 81.9339 66.4048 82.8692 64.9387C83.4506 64.0118 83.3831 63.1439 82.5237 62.4446C81.5547 61.6526 80.5099 61.7284 79.7179 62.6552C79.0269 63.4641 78.3444 63.4641 77.5019 62.9165C75.6229 61.6947 73.7186 60.5151 71.7638 59.2849C71.2414 60.0938 70.7864 60.7931 70.2556 61.602Z" fill="#13A2B7"/>
<path d="M9.31846 43.7474C6.60531 43.7305 4.56623 41.2533 5.38355 38.5991C6.09133 36.2988 7.17827 34.1081 8.22309 31.9258C8.73707 30.8557 10.0178 30.8894 10.5318 31.9847C11.5513 34.1755 12.6214 36.3662 13.3376 38.6665C14.1465 41.2533 12.0316 43.7642 9.31846 43.7474ZM9.51225 35.591C9.40272 35.5995 9.28475 35.6079 9.17522 35.6079C8.72022 36.8212 8.15568 38.0093 7.8692 39.2648C7.75966 39.745 8.11355 40.5792 8.52642 40.8573C8.93086 41.1269 9.83244 41.1185 10.2285 40.832C10.6329 40.5455 10.9615 39.7029 10.8435 39.2226C10.5402 37.9756 9.97568 36.796 9.51225 35.591Z" fill="#13A2B7"/>
</svg>
