<svg width="23" height="22" viewBox="0 0 23 22" fill="none" xmlns="http://www.w3.org/2000/svg">
<path fill-rule="evenodd" clip-rule="evenodd" d="M6.71746 0.0652334C7.88856 0.0118606 8.26195 0 11.2451 0C14.2283 0 14.6017 0.012849 15.7718 0.0652334C16.9419 0.117618 17.7406 0.302446 18.4394 0.570298C19.1712 0.844081 19.8352 1.27205 20.3843 1.82555C20.9434 2.36817 21.3747 3.02446 21.6502 3.74993C21.9218 4.4418 22.1075 5.23251 22.1614 6.38892C22.2153 7.55028 22.2273 7.91993 22.2273 10.8722C22.2273 13.8255 22.2143 14.1952 22.1614 15.3546C22.1085 16.511 21.9218 17.3017 21.6502 17.9936C21.3747 18.7191 20.9426 19.3765 20.3843 19.9199C19.8352 20.4734 19.1712 20.9004 18.4394 21.1732C17.7406 21.442 16.9419 21.6259 15.7738 21.6792C14.6017 21.7326 14.2283 21.7445 11.2451 21.7445C8.26195 21.7445 7.88856 21.7316 6.71746 21.6792C5.54936 21.6269 4.75065 21.442 4.05179 21.1732C3.3189 20.9004 2.65488 20.4727 2.10595 19.9199C1.54723 19.377 1.11487 18.7199 0.839004 17.9945C0.568443 17.3027 0.382745 16.512 0.328832 15.3556C0.27492 14.1942 0.262939 13.8245 0.262939 10.8722C0.262939 7.91894 0.275918 7.54929 0.328832 6.3909C0.381747 5.23251 0.568443 4.4418 0.839004 3.74993C1.11528 3.02454 1.54797 2.36749 2.10695 1.82456C2.6551 1.27156 3.31845 0.843531 4.05079 0.570298C4.74966 0.302446 5.54836 0.118606 6.71646 0.0652334H6.71746ZM15.6829 2.02224C14.5248 1.96985 14.1773 1.95898 11.2451 1.95898C8.31287 1.95898 7.96543 1.96985 6.80731 2.02224C5.73605 2.07067 5.155 2.24759 4.76763 2.39683C4.25546 2.59451 3.88905 2.82876 3.50468 3.20929C3.14031 3.56022 2.8599 3.98743 2.68401 4.45959C2.53325 4.84309 2.35454 5.41833 2.30562 6.47887C2.25271 7.62539 2.24173 7.96935 2.24173 10.8722C2.24173 13.7751 2.25271 14.1191 2.30562 15.2656C2.35454 16.3261 2.53325 16.9014 2.68401 17.2849C2.85972 17.7563 3.14027 18.1843 3.50468 18.5352C3.8591 18.896 4.2914 19.1737 4.76763 19.3476C5.155 19.4969 5.73605 19.6738 6.80731 19.7222C7.96543 19.7746 8.31187 19.7855 11.2451 19.7855C14.1783 19.7855 14.5248 19.7746 15.6829 19.7222C16.7542 19.6738 17.3352 19.4969 17.7226 19.3476C18.2348 19.15 18.6012 18.9157 18.9855 18.5352C19.35 18.1843 19.6305 17.7563 19.8062 17.2849C19.957 16.9014 20.1357 16.3261 20.1846 15.2656C20.2375 14.1191 20.2485 13.7751 20.2485 10.8722C20.2485 7.96935 20.2375 7.62539 20.1846 6.47887C20.1357 5.41833 19.957 4.84309 19.8062 4.45959C19.6065 3.95255 19.3699 3.58982 18.9855 3.20929C18.631 2.8486 18.1995 2.571 17.7226 2.39683C17.3352 2.24759 16.7542 2.07067 15.6829 2.02224ZM9.84239 14.2239C10.6258 14.5467 11.4981 14.5903 12.3103 14.3471C13.1225 14.104 13.8243 13.5892 14.2958 12.8908C14.7672 12.1923 14.9791 11.3535 14.8952 10.5175C14.8114 9.68157 14.4369 8.90038 13.8359 8.30738C13.4528 7.92831 12.9895 7.63806 12.4794 7.45751C11.9694 7.27697 11.4252 7.21063 10.8862 7.26326C10.3471 7.3159 9.82657 7.48621 9.36197 7.76192C8.89738 8.03763 8.50031 8.41189 8.19936 8.85776C7.8984 9.30363 7.70105 9.81001 7.62151 10.3404C7.54196 10.8709 7.58221 11.4122 7.73934 11.9254C7.89647 12.4386 8.16659 12.9109 8.53024 13.3083C8.89389 13.7058 9.34202 14.0185 9.84239 14.2239ZM7.25359 6.92067C7.77776 6.40175 8.40005 5.99011 9.08492 5.70927C9.76978 5.42843 10.5038 5.28388 11.2451 5.28388C11.9864 5.28388 12.7204 5.42843 13.4053 5.70927C14.0902 5.99011 14.7125 6.40175 15.2366 6.92067C15.7608 7.4396 16.1766 8.05566 16.4603 8.73367C16.744 9.41168 16.89 10.1384 16.89 10.8722C16.89 11.6061 16.744 12.3328 16.4603 13.0108C16.1766 13.6888 15.7608 14.3049 15.2366 14.8238C14.178 15.8718 12.7422 16.4606 11.2451 16.4606C9.748 16.4606 8.31221 15.8718 7.25359 14.8238C6.19497 13.7758 5.60025 12.3544 5.60025 10.8722C5.60025 9.39011 6.19497 7.96869 7.25359 6.92067ZM18.1419 6.11613C18.2718 5.99482 18.3758 5.84895 18.4477 5.68714C18.5196 5.52534 18.558 5.35089 18.5606 5.17413C18.5633 4.99737 18.53 4.82189 18.4629 4.65807C18.3957 4.49426 18.2961 4.34545 18.1698 4.22044C18.0436 4.09544 17.8932 3.99679 17.7278 3.93033C17.5623 3.86387 17.385 3.83096 17.2065 3.83353C17.028 3.83611 16.8517 3.87413 16.6883 3.94533C16.5249 4.01654 16.3775 4.11949 16.255 4.24808C16.0167 4.49817 15.8862 4.83036 15.8913 5.17413C15.8963 5.5179 16.0365 5.84618 16.2821 6.08929C16.5277 6.33239 16.8593 6.47118 17.2065 6.4762C17.5537 6.48121 17.8893 6.35205 18.1419 6.11613Z" fill="white"/>
</svg>
