<svg width="91" height="91" viewBox="0 0 91 91" fill="none" xmlns="http://www.w3.org/2000/svg">
<path d="M45.2394 76.2631C34.6733 70.8452 24.1746 65.4526 13.6338 60.0432C13.4147 60.6667 13.3473 61.4334 12.4457 61.2565C11.7969 61.1301 11.6958 60.6835 11.957 59.1921C10.8027 58.6023 9.62305 57.9957 8.34231 57.3384C8.17379 57.8356 8.01369 58.2484 7.90416 58.6697C6.92675 62.5204 6.44647 66.4469 6.38749 70.3986C6.31166 75.1256 7.29749 79.6924 9.12592 84.0655C9.37027 84.6469 9.31129 85.0766 8.75518 85.3715C8.28332 85.6158 7.84518 85.3799 7.56712 84.7395C5.94934 80.99 5.01406 77.0804 4.76129 73.0022C4.45795 68.0983 5.03934 63.2787 6.19369 58.5265C7.1374 54.6253 8.88156 51.0695 10.9459 47.6402C12.5974 44.9018 14.2742 42.1633 15.6392 39.2817C16.8778 36.6612 17.6698 33.8385 18.0742 30.9316C18.4197 28.4796 18.7062 26.0108 18.4281 23.5421C18.108 20.7699 17.6361 18.0062 17.1727 15.2509C16.7092 12.4704 16.1868 9.69826 15.6897 6.91771C15.6813 6.8503 15.6813 6.77447 15.6644 6.70706C15.5717 6.1341 15.7487 5.70438 16.3469 5.59484C16.9705 5.4853 17.2485 5.9066 17.3496 6.43743C17.6867 8.26586 18.0153 10.0859 18.3355 11.9143C18.8916 15.1077 19.5319 18.2927 19.9617 21.503C20.3324 24.233 20.3661 26.9967 19.8942 29.7351C19.6415 31.1675 19.5067 32.6252 19.178 34.0408C18.1164 38.5655 16.17 42.6857 13.6506 46.5617C13.4484 46.8734 13.2799 47.1936 13.044 47.5896C13.9118 47.8508 14.687 48.1036 15.4791 48.3058C15.6139 48.3395 15.8245 48.1963 15.9593 48.0783C16.0773 47.9772 16.1194 47.7919 16.1953 47.6486C16.448 47.1431 16.8272 46.8734 17.4002 47.1094C17.8805 47.3032 17.9984 47.834 17.7372 48.4322C17.6867 48.5586 17.6361 48.685 17.5603 48.9041C18.7905 49.258 19.9785 49.6119 21.175 49.9405C25.0678 51.019 28.9521 52.1312 32.8533 53.1592C36.0215 53.9933 39.2823 54.3725 42.5431 54.5579C48.2812 54.8781 53.9771 54.4062 59.5298 52.9317C64.1304 51.7099 68.6635 50.2185 73.2304 48.8367C73.2641 48.8282 73.2893 48.7693 73.3567 48.7019C73.1292 48.1205 72.7754 47.4632 73.5927 47.0251C74.0898 46.7639 74.4858 47.0841 75.1683 48.2553C76.0446 47.9941 76.9293 47.7244 77.8646 47.4464C77.0894 46.1235 76.2553 44.8933 75.6149 43.5705C74.6459 41.5904 73.7359 39.5766 72.9354 37.5291C71.562 34.0239 70.9975 30.3333 70.8374 26.5838C70.6857 22.8596 71.3177 19.228 72.0086 15.5964C72.5816 12.5968 73.0871 9.5803 73.6685 6.5891C73.7359 6.24363 73.9971 5.80549 74.292 5.66225C74.9071 5.35891 75.4801 5.94873 75.3453 6.74919C75.0672 8.49336 74.7217 10.2207 74.4353 11.9564C73.7949 15.8745 73.0787 19.7841 72.5984 23.719C72.3793 25.4716 72.5816 27.2916 72.7248 29.0695C72.8343 30.4429 73.0703 31.8163 73.3567 33.1645C74.1151 36.7033 75.5306 39.9979 77.3254 43.1323C78.8926 45.8707 80.6199 48.5165 82.086 51.297C84.361 55.6111 85.5069 60.2791 85.9788 65.124C86.2484 67.8456 86.4591 70.5587 86.2484 73.2971C85.9451 77.291 85.0098 81.1332 83.4342 84.8154C83.2235 85.3125 82.8696 85.5905 82.3219 85.363C81.8248 85.1524 81.6057 84.7901 81.8332 84.234C83.4763 80.2654 84.4958 76.1535 84.5885 71.8394C84.6896 66.944 84.1167 62.1244 82.7179 57.4227C82.6758 57.2963 82.6084 57.1783 82.5326 57.0182C81.4541 57.6081 80.3924 58.1642 79.356 58.7708C79.1875 58.8635 79.019 59.209 79.0695 59.3691C79.2465 59.9673 79.2296 60.4897 78.5892 60.7172C77.9236 60.9447 77.536 60.5403 77.3928 59.8409C76.1373 60.5319 74.9492 61.1807 73.7528 61.8294C70.0032 63.8854 66.2453 65.9413 62.4957 68.0056C57.8193 70.5756 53.1514 73.1623 48.4834 75.7406C48.357 75.8081 48.2391 75.926 48.1127 75.9344C47.0426 76.0608 47.0005 76.7602 47.0257 77.6365C47.0847 79.7598 47.0426 81.8747 47.0426 83.9981C47.0426 84.234 47.0342 84.4699 46.992 84.6974C46.9078 85.1945 46.5455 85.5063 46.1073 85.4052C45.7955 85.3378 45.5175 84.9586 45.3068 84.6637C45.2057 84.5205 45.2647 84.2508 45.2647 84.0402C45.2394 81.4534 45.2394 78.8667 45.2394 76.2631ZM78.9179 48.9209C77.3759 49.3928 76.0025 49.8225 74.6375 50.2354C71.0649 51.3139 67.4755 52.3503 63.9113 53.4794C58.6282 55.1477 53.2441 56.1588 47.7082 56.3189C41.5994 56.5043 35.5917 55.8302 29.7105 54.1366C24.0398 52.5104 18.3607 50.9095 12.6901 49.2917C12.3362 49.1906 12.0413 49.0726 11.8222 49.536C10.9206 51.4234 9.98536 53.294 9.06694 55.1645C8.88999 55.5353 8.99953 55.7375 9.37869 55.9313C13.9877 58.2821 18.5967 60.6414 23.1972 63.0091C27.9242 65.4357 32.6427 67.8624 37.3696 70.2891C39.8384 71.553 42.3156 72.8084 44.776 74.0976C45.7618 74.6116 46.6718 74.7717 47.7082 74.1987C52.3678 71.6035 57.0526 69.0505 61.729 66.4806C67.5597 63.2787 73.3904 60.0684 79.2212 56.8582C80.1396 56.3526 81.058 55.8302 82.0776 55.2657C81.0075 53.117 79.9711 51.0443 78.9179 48.9209Z" fill="#13A2B7"/>
<path d="M45.2477 41.8262C45.2477 41.3123 45.2393 40.7898 45.2477 40.2759C45.2561 39.7366 45.4162 39.29 46.065 39.2479C46.6464 39.2142 46.9919 39.5512 47.0003 40.2253C47.0256 41.3291 47.0171 42.4413 47.0003 43.5451C46.9919 44.1349 46.6464 44.4804 46.0735 44.472C45.5089 44.4635 45.2646 44.0507 45.2477 43.5198C45.2309 42.9553 45.2477 42.3908 45.2477 41.8262Z" fill="#13A2B7"/>
<path d="M80.1305 68.3258C80.1305 68.5112 80.2063 68.764 80.1136 68.882C79.8777 69.1684 79.5744 69.5645 79.2795 69.5729C79.0098 69.5813 78.538 69.1853 78.4874 68.9072C78.3105 67.913 78.2515 66.9018 78.1925 65.8907C78.1588 65.3852 78.4032 65.0144 78.9593 64.9723C79.4817 64.9386 79.8103 65.1829 79.8777 65.7222C79.9788 66.5901 80.0715 67.4495 80.1642 68.3174C80.1473 68.3258 80.1389 68.3258 80.1305 68.3258Z" fill="#13A2B7"/>
<path d="M80.0042 74.519C79.8357 75.7492 79.743 76.7603 79.5155 77.7377C79.4481 78.0158 78.9762 78.3949 78.7066 78.3865C78.4285 78.3781 78.142 77.9652 77.8977 77.6872C77.8134 77.5945 77.8556 77.367 77.8808 77.2069C78.0072 76.3053 78.142 75.4037 78.2853 74.5022C78.3695 74.005 78.7403 73.7017 79.1784 73.8365C79.5407 73.946 79.8104 74.3421 80.0042 74.519Z" fill="#13A2B7"/>
<path d="M10.8691 68.3933C10.9197 67.7529 10.9534 67.0704 11.0208 66.3963C11.0966 65.638 11.5011 65.2251 12.0488 65.3094C12.5712 65.3936 12.8071 65.8234 12.7397 66.5564C12.6723 67.3316 12.6049 68.0984 12.5796 68.8736C12.5543 69.4634 12.3858 69.9015 11.7117 69.9099C11.164 69.9184 10.8691 69.4971 10.8691 68.7809C10.8691 68.6629 10.8691 68.5449 10.8691 68.3933Z" fill="#13A2B7"/>
<path d="M13.1711 77.6871C13.1964 78.1336 12.9436 78.4707 12.4296 78.5549C11.8903 78.6392 11.5533 78.3274 11.4606 77.8387C11.2837 76.895 11.1404 75.9345 11.0477 74.9739C11.0056 74.4852 11.2415 74.1061 11.7892 74.0302C12.3875 73.946 12.674 74.2914 12.7666 74.8138C12.9267 75.7407 13.0363 76.676 13.1711 77.6871Z" fill="#13A2B7"/>
<path d="M26.0527 44.1183C26.2213 43.8908 26.3561 43.5622 26.592 43.4611C26.8279 43.36 27.2239 43.3768 27.4346 43.5201C28.1761 44.0172 28.8838 44.5649 29.5748 45.1294C29.9455 45.4243 30.1056 45.8877 29.7601 46.2416C29.5326 46.4691 28.9597 46.6966 28.7659 46.5703C27.898 46.0226 27.0975 45.3653 26.2971 44.7165C26.1707 44.607 26.1538 44.3795 26.0527 44.1183Z" fill="#13A2B7"/>
<path d="M51.6689 48.8283C52.1913 48.7862 52.5537 49.0053 52.6716 49.5108C52.798 50.0501 52.4694 50.3956 51.9975 50.5051C51.1044 50.6989 50.2028 50.8506 49.3012 50.9517C48.7957 51.0107 48.4334 50.6821 48.366 50.1933C48.2986 49.7215 48.5598 49.3676 49.04 49.2749C49.9163 49.1064 50.7926 48.9716 51.6689 48.8283Z" fill="#13A2B7"/>
<path d="M59.5474 46.3764C59.6906 46.5449 60.0445 46.7808 60.0951 47.0757C60.1372 47.3369 59.935 47.8088 59.6991 47.9267C58.8312 48.3817 57.9296 48.7862 57.0028 49.0727C56.7668 49.1485 56.2529 48.7946 56.1096 48.5165C56.0001 48.2975 56.177 47.7077 56.3877 47.5897C57.2724 47.1179 58.2161 46.764 59.143 46.3764C59.2019 46.3595 59.2778 46.3764 59.5474 46.3764Z" fill="#13A2B7"/>
<path d="M43.2174 51.1202C42.6865 51.0781 42.0293 51.0444 41.3805 50.9517C40.8581 50.8843 40.4958 50.5894 40.5295 50.0164C40.5716 49.435 40.9592 49.216 41.5069 49.2497C42.3074 49.3002 43.0994 49.3761 43.8999 49.4182C44.4644 49.4435 44.8099 49.6794 44.8014 50.2692C44.793 50.8759 44.4476 51.1539 43.8409 51.1202C43.6724 51.1202 43.5123 51.1202 43.2174 51.1202Z" fill="#13A2B7"/>
<path d="M21.3012 41.2872C20.7535 42.332 20.2901 43.301 19.734 44.211C19.6413 44.3626 19.0178 44.3795 18.824 44.2194C18.5965 44.034 18.3942 43.5453 18.4785 43.2841C18.7566 42.4668 19.161 41.6916 19.5317 40.908C19.7255 40.5035 20.0878 40.3519 20.467 40.5288C20.7619 40.6721 20.981 40.9922 21.3012 41.2872Z" fill="#13A2B7"/>
<path d="M36.1819 49.9827C35.1708 49.6204 34.2271 49.3424 33.3424 48.9211C33.0981 48.8031 32.9211 48.2555 32.9632 47.9437C32.997 47.7162 33.4941 47.3455 33.7047 47.396C34.7832 47.6488 35.9376 47.8089 36.7465 48.6852C36.915 48.8705 37.033 49.2918 36.9403 49.4772C36.8139 49.7131 36.4431 49.8227 36.1819 49.9827Z" fill="#13A2B7"/>
<path d="M22.0352 15.7988C21.9173 15.6808 21.555 15.4701 21.4791 15.1921C21.2685 14.3579 21.1505 13.4901 21.0494 12.639C20.9904 12.1082 21.3443 11.7627 21.8246 11.7206C22.3133 11.6701 22.6587 11.9397 22.743 12.4874C22.8525 13.2288 23.0126 13.9619 23.1306 14.695C23.2317 15.3522 22.8863 15.7903 22.0352 15.7988Z" fill="#13A2B7"/>
<path d="M67.5938 34.1841C67.8381 33.9651 68.074 33.6112 68.3942 33.4932C68.8492 33.3247 69.2284 33.6028 69.3632 34.0662C69.5823 34.8498 69.7761 35.6503 69.953 36.4507C70.071 37.0068 69.7929 37.3776 69.2705 37.4955C68.7902 37.6051 68.4448 37.3439 68.31 36.8804C68.074 36.0547 67.8718 35.2205 67.5938 34.1841Z" fill="#13A2B7"/>
<path d="M69.9698 12.6727C69.8265 13.5238 69.7001 14.3074 69.5738 15.091C69.4726 15.6977 69.0598 15.8493 68.5458 15.7566C68.0571 15.6724 67.8128 15.3101 67.8802 14.8382C67.9897 14.004 68.1329 13.1783 68.3014 12.3526C68.4026 11.8723 68.7733 11.6195 69.2451 11.7038C69.7675 11.8049 70.0119 12.1925 69.9698 12.6727Z" fill="#13A2B7"/>
<path d="M66.8613 21.8991C66.954 21.1745 67.0467 20.4583 67.1478 19.7336C67.2236 19.1775 67.5691 18.8657 68.1083 18.9332C68.656 19.009 68.8919 19.3966 68.833 19.9611C68.7571 20.6605 68.656 21.3598 68.6055 22.0592C68.5633 22.6743 68.3021 23.0703 67.6533 23.0029C67.013 22.9439 66.7939 22.5058 66.8613 21.8991Z" fill="#13A2B7"/>
<path d="M70.8792 40.3855C71.0056 40.4866 71.3174 40.6383 71.4522 40.8911C71.8313 41.6157 72.1515 42.374 72.4801 43.1239C72.6739 43.5789 72.5391 43.9581 72.1178 44.2024C71.6797 44.4636 71.2415 44.3457 71.0224 43.9244C70.5927 43.1239 70.2051 42.2898 69.8681 41.4472C69.6827 40.9585 70.163 40.3939 70.8792 40.3855Z" fill="#13A2B7"/>
<path d="M66.7669 27.9488C66.7669 27.6791 66.7416 27.3505 66.7753 27.0303C66.8175 26.5416 67.1039 26.2636 67.6011 26.2383C68.0982 26.213 68.4352 26.4658 68.4858 26.9461C68.5785 27.7802 68.6375 28.6228 68.6543 29.4654C68.6627 29.9373 68.3931 30.2659 67.8876 30.3165C67.4157 30.367 67.1124 30.1395 67.0281 29.6761C66.9186 29.1284 66.8596 28.5723 66.7669 27.9488Z" fill="#13A2B7"/>
<path d="M24.1575 21.9916C24.2081 22.5898 23.9216 22.9943 23.357 23.0617C22.7757 23.1291 22.4639 22.7752 22.4133 22.177C22.3544 21.4271 22.2448 20.6856 22.1774 19.9357C22.1269 19.4217 22.3291 19.0425 22.8768 18.9836C23.4244 18.9246 23.7699 19.1942 23.8542 19.7587C23.9553 20.5086 24.0564 21.2501 24.1575 21.9916Z" fill="#13A2B7"/>
<path d="M23.4084 34.2261C23.1051 35.3046 22.9113 36.2315 22.5743 37.0909C22.4816 37.3268 21.9002 37.5459 21.6053 37.4785C21.3609 37.428 21.0155 36.9224 21.0492 36.6696C21.184 35.7512 21.4031 34.8328 21.7148 33.9565C21.7906 33.7374 22.3468 33.5183 22.6248 33.5689C22.9281 33.6363 23.1641 34.0154 23.4084 34.2261Z" fill="#13A2B7"/>
<path d="M24.1316 27.1231C24.1316 27.8225 24.1485 28.5303 24.1232 29.2296C24.1064 29.9627 23.7441 30.3166 23.1121 30.325C22.6318 30.3334 22.3706 30.0554 22.3875 29.6425C22.4128 28.7325 22.497 27.8141 22.6066 26.9125C22.6655 26.3985 23.07 26.1457 23.525 26.289C23.8452 26.3901 24.0727 26.7524 24.3423 26.9967C24.2749 27.0389 24.2075 27.081 24.1316 27.1231Z" fill="#13A2B7"/>
<path d="M20.9556 5.57812C21.6381 5.6034 21.7813 6.10053 21.8656 6.63136C22.0678 8.00479 21.9583 8.40923 21.3684 8.55247C21.2757 8.57775 21.1746 8.58618 21.0904 8.56933C20.0119 8.34183 20.3152 7.38127 20.1214 6.69877C19.9782 6.20164 20.2394 5.83933 20.6859 5.62025C20.7618 5.58655 20.8629 5.59498 20.9556 5.57812Z" fill="#13A2B7"/>
<path d="M75.8848 84.706C76.1544 83.9813 76.2892 83.3663 76.6178 82.8775C76.7695 82.65 77.3509 82.5152 77.6458 82.6163C77.8817 82.7006 78.1345 83.2062 78.1092 83.5011C78.0671 83.9982 77.8817 84.529 77.6036 84.9419C77.4267 85.1947 76.9549 85.3885 76.6347 85.3548C76.3566 85.3295 76.1291 84.9335 75.8848 84.706Z" fill="#13A2B7"/>
<path d="M69.8595 5.53589C70.5757 5.67913 70.938 5.96561 70.9127 6.5133C70.8874 6.97672 70.7779 7.43172 70.6768 7.88672C70.5588 8.40913 70.1965 8.62821 69.691 8.55237C69.2023 8.47654 68.9579 8.13108 69.0085 7.6508C69.0506 7.16209 69.1012 6.66496 69.2697 6.20996C69.3708 5.92348 69.691 5.71283 69.8595 5.53589Z" fill="#13A2B7"/>
<path d="M15.1252 84.6975C14.8893 84.9082 14.6871 85.2031 14.409 85.321C14.0383 85.4643 13.6001 85.4895 13.3979 84.9924C13.221 84.5627 13.0777 84.1161 12.9176 83.678C12.7323 83.1893 12.9176 82.7596 13.3305 82.6332C13.6423 82.5405 14.2152 82.6585 14.3753 82.8944C14.7124 83.3663 14.8556 83.9898 15.1252 84.6975Z" fill="#13A2B7"/>
<path d="M64.3835 42.9976C64.7206 43.6548 65.2093 43.6632 65.7822 43.3936C65.8243 43.4441 65.8665 43.4863 65.9002 43.5368C65.7317 43.8402 65.6221 44.194 65.3862 44.4215C65.0407 44.7586 64.6026 45.0114 64.1982 45.2894C63.7937 45.5675 63.423 45.4327 63.1449 45.0956C62.8332 44.7165 62.8753 44.2867 63.2123 43.9581C63.5494 43.6295 63.9369 43.3599 64.3835 42.9976Z" fill="#13A2B7"/>
</svg>
