<svg width="17" height="16" viewBox="0 0 17 16" fill="none" xmlns="http://www.w3.org/2000/svg">
<path d="M6.73512 11.4654L4.34698 13.2687C4.1689 13.4031 4.1371 13.6163 4.26748 13.8031C4.39786 13.9868 4.60455 14.0195 4.78581 13.8851L7.17395 12.0818C7.35203 11.9474 7.38383 11.7343 7.25345 11.5474C7.12307 11.3638 6.91638 11.331 6.73512 11.4654Z" fill="#13A2B7"/>
<path d="M4.74767 10.6031L2.35952 12.4064C2.18144 12.5408 2.14964 12.754 2.28002 12.9408C2.4104 13.1245 2.6171 13.1572 2.79835 13.0228L5.1865 11.2195C5.36458 11.0851 5.39638 10.872 5.266 10.6851C5.13244 10.5015 4.92574 10.4687 4.74767 10.6031Z" fill="#13A2B7"/>
<path d="M2.757 9.74084L0.36886 11.5441C0.190782 11.6818 0.158983 11.8949 0.289361 12.0785C0.419739 12.2621 0.626435 12.2949 0.807692 12.1605L3.19583 10.3572C3.37391 10.2228 3.40571 10.0097 3.27533 9.82281C3.14495 9.6392 2.93826 9.60641 2.757 9.74084Z" fill="#13A2B7"/>
<path d="M11.381 1.99316C11.2029 1.93742 10.974 2.06529 10.9199 2.2489L9.53027 7.13087C9.37764 7.62595 8.92926 7.96365 8.42683 7.96693L3.49156 7.86529C3.30712 7.86201 3.09724 8.02267 3.11632 8.24234C3.11314 8.4325 3.26896 8.6489 3.48202 8.62923L8.44591 8.70792C8.86885 8.72103 9.25998 8.56365 9.55889 8.33742C9.85781 8.11119 10.1504 7.74726 10.2362 7.35382L11.6259 2.47185C11.6799 2.28824 11.5559 2.0489 11.381 1.99316Z" fill="#13A2B7"/>
<path d="M10.7768 0.370403L1.22744 7.58679C1.04936 7.72122 1.01756 7.93433 1.14794 8.12122C1.27832 8.30483 1.48502 8.33761 1.66627 8.20319L11.2125 0.983517C11.3906 0.849091 11.5972 0.881878 11.7308 1.06548L16.1064 7.21958C16.2368 7.40319 16.205 7.6163 16.0269 7.75401L6.47753 14.9737C6.29946 15.1081 6.26766 15.3212 6.39803 15.5081C6.52841 15.6917 6.73511 15.7245 6.91637 15.5901L16.4657 8.3704C16.9745 7.98679 17.0763 7.29499 16.7042 6.7704L12.3286 0.616304C11.9566 0.0917143 11.2824 -0.0132036 10.7768 0.370403Z" fill="#13A2B7"/>
<path d="M14.8281 6.90833L11.7245 6.41653C11.5178 6.38374 11.3397 6.51817 11.3079 6.73128C11.2761 6.9444 11.4065 7.128 11.6132 7.16079L14.7168 7.65259C14.8217 7.66899 14.933 7.63292 14.9903 7.58702C15.0507 7.54112 15.1175 7.44276 15.1334 7.33784C15.1683 7.128 15.0348 6.94112 14.8281 6.90833Z" fill="#13A2B7"/>
</svg>
