<svg width="80" height="90" viewBox="0 0 80 90" fill="none" xmlns="http://www.w3.org/2000/svg">
<path fill-rule="evenodd" clip-rule="evenodd" d="M35.9609 0.510049C30.3069 1.72676 23.9195 4.76935 17.8684 9.12849C12.5807 12.9377 10.5545 14.9231 9.30633 17.5184C7.51652 21.2396 8.29047 26.1929 10.9825 28.2424C11.5766 28.6945 12.0336 29.6206 12.2202 30.7489C12.3824 31.7326 13.0817 33.787 13.7739 35.3133C15.1549 38.3592 15.3076 39.5093 14.6497 41.9115C13.579 45.8222 16.7532 52.6984 20.1043 53.728C20.7495 53.926 20.8677 54.4138 20.8665 56.8773C20.864 63.7393 19.1974 71.9308 16.9854 75.9555C15.2841 79.0512 13.4804 80.4838 7.54168 83.4579C2.44646 86.0094 -0.401123 88.2638 0.045804 89.3921C0.437389 90.3791 1.53416 90.1449 2.67663 88.8304C3.24892 88.1721 4.98212 87.0605 6.5275 86.3604C10.7414 84.4514 15.1373 81.7002 16.772 79.949C20.3508 76.1146 22.964 66.7835 22.964 57.8391C22.964 55.4735 23.1007 54.9451 23.8692 54.3428C25.0364 53.4281 24.6184 52.8246 22.4223 52.2532C18.7668 51.3023 16.341 47.2723 16.7775 42.8754C16.9401 41.237 17.2382 40.5564 18.112 39.8287C19.5119 38.6632 21.2501 38.6307 22.7104 39.7423C23.9576 40.692 25.0603 40.5243 25.0603 39.3852C25.0603 38.1843 22.0156 36.75 19.9005 36.9542C18.9337 37.0479 17.8893 37.2021 17.5795 37.2979C16.8693 37.5163 14.7181 32.5837 14.324 29.8345C14.1181 28.395 13.7764 27.7099 13.0297 27.2359C11.7095 26.3986 10.3859 23.8577 10.3888 22.1669C10.3947 18.6783 12.1053 16.1625 17.0869 12.3147C26.3713 5.14394 35.1815 1.65817 43.0308 2.05022C45.7447 2.18577 46.626 2.37895 46.9299 2.90451C47.2263 3.41668 47.9156 3.58348 49.7402 3.58348C54.6182 3.58348 61.1318 5.22957 64.5928 7.3367C67.0144 8.81112 69.0822 11.5619 69.0822 13.3082C69.0822 15.001 68.2 16.9365 66.1922 19.6511C65.2732 20.893 64.6246 22.169 64.7504 22.4863C65.1726 23.5513 66.4454 23.0781 67.5649 21.4405C68.1753 20.5476 68.9773 19.8171 69.3471 19.8171C69.7169 19.8171 70.729 20.5042 71.5964 21.3439C74.6369 24.2871 74.6947 28.7408 71.7545 33.4944L70.5495 35.442L70.3399 30.369C70.1441 25.634 70.0745 25.296 69.2918 25.296C68.5019 25.296 68.4411 25.634 68.2436 31.136L68.034 36.9761L64.0511 36.9128C59.8002 36.8454 58.8464 37.1181 59.0917 38.3316C59.2305 39.0179 59.5873 39.08 62.6483 38.9509C67.2483 38.7565 67.9565 39 67.5913 40.6518C67.2207 42.3263 67.2383 42.3174 65.9587 41.5057C64.3303 40.4728 60.6186 40.5162 59.1374 41.586C57.8587 42.5093 57.5564 43.319 57.9396 44.7966C58.659 47.5714 64.0511 47.14 64.0511 44.3076C64.0511 43.2155 62.6256 42.948 62.2223 43.9647C61.9171 44.7354 60.9503 44.7487 60.3008 43.9914C59.8883 43.5105 60.077 43.3356 61.388 42.9854C62.6801 42.64 63.2495 42.6928 64.4561 43.2703C65.3789 43.7118 65.8723 44.2065 65.7646 44.5807C65.6694 44.9115 65.4556 46.5588 65.29 48.2414C64.947 51.7154 63.3924 55.6947 60.5373 60.4049C59.1898 62.6269 57.4897 64.5371 54.217 67.5034C51.7547 69.7356 49.3822 71.6905 48.9453 71.8476C47.9714 72.1978 44.1448 71.6276 42.2091 70.8443C39.5841 69.7818 31.6648 62.9592 29.6046 59.9856C28.9602 59.055 28.8562 59.0295 28.2043 59.6407C27.5662 60.2389 27.5595 60.4089 28.1355 61.467C29.3438 63.6857 37.8325 71.0302 40.917 72.5253C41.7651 72.9364 42.978 73.3938 43.6124 73.5411C44.6806 73.7899 44.7653 73.9596 44.7653 75.8512C44.7653 78.8743 46.4616 81.6644 49.1101 82.998C49.77 83.3304 53.0716 84.5126 56.447 85.625C59.8221 86.7379 63.6742 88.1835 65.007 88.8377C67.9669 90.291 68.769 90.3531 68.5874 89.1145C68.3942 87.7987 65.4615 86.4035 57.2394 83.716C53.3777 82.4534 49.7423 81.0581 49.1604 80.6153C47.6988 79.5025 46.8616 77.781 46.8616 75.8893C46.8616 74.2992 46.8704 74.2907 48.8162 74.0083C50.4555 73.7704 51.1514 73.354 53.1345 71.4255C54.4346 70.1613 56.6319 68.1073 58.0167 66.8614C62.3753 62.9398 66.9054 54.2397 67.2974 49.0377C67.419 47.4261 67.8919 45.597 68.5136 44.3368C69.0733 43.2021 69.6498 41.5584 69.7945 40.6842C69.9609 39.6757 70.711 38.3149 71.8463 36.9615C72.8303 35.7882 74.164 33.7793 74.81 32.4972C77.3277 27.5009 75.8951 21.1 71.731 18.738L69.9358 17.7193L70.5957 16.4839C71.6304 14.5469 71.4799 12.0664 70.1991 9.95072C67.7355 5.88217 62.813 3.33511 54.7432 1.95403C52.1375 1.50842 48.874 0.873683 47.4905 0.543734C44.5087 -0.167705 39.1829 -0.183127 35.9609 0.510049ZM32.048 9.53595C31.0821 10.4706 32.349 11.8687 35.7039 13.5716C38.4274 14.9535 41.0964 15.1524 46.6763 14.3894C49.2258 14.0404 52.0557 13.8667 52.9651 14.003C56.8969 14.5931 59.8585 17.1163 59.8585 19.8764C59.8585 21.3248 59.9587 21.4831 60.8018 21.3674C61.5762 21.2607 61.7674 20.9445 61.8697 19.6008C62.1053 16.5026 58.4473 12.96 54.1135 12.0891C52.1111 11.6865 50.7716 11.7263 46.1748 12.3241C39.7565 13.1585 38.123 12.9154 34.8046 10.6317C32.7092 9.18936 32.4941 9.10414 32.048 9.53595ZM16.8756 17.227C15.3134 19.2096 14.1596 22.2818 14.1596 24.4591C14.1596 25.9124 14.3688 26.4108 15.2644 27.0926C16.5557 28.0764 18.4486 28.1908 19.1861 27.3305C20.0435 26.3305 19.3827 25.4798 17.8403 25.5971C16.6634 25.6868 16.445 25.5586 16.3205 24.7051C16.11 23.2623 16.8869 21.0716 18.3866 18.8796C20.4418 15.876 19.098 14.4065 16.8756 17.227ZM26.3952 17.7417C25.8917 18.6093 25.4795 19.986 25.4795 20.8017C25.4795 22.7741 26.9293 25.4989 27.9787 25.4989C29.2281 25.4989 29.3514 24.8625 28.4261 23.1913C27.3486 21.2449 27.3528 20.0594 28.4437 18.3504C28.9212 17.6029 29.1929 16.805 29.0478 16.5777C28.4831 15.693 27.2777 16.2214 26.3952 17.7417ZM38.3507 18.6199C34.7078 19.5002 31.1231 20.1755 30.3853 20.1203C29.2847 20.0379 29.0202 20.1799 28.9128 20.9101C28.8055 21.6381 29.0411 21.8471 30.2066 22.059L31.6313 22.3175L30.8217 25.2274C30.376 26.8276 29.7107 28.6847 29.3421 29.3544C26.8635 33.8633 26.3181 35.0735 26.3181 36.0646C26.3181 37.1388 27.2484 37.918 27.9963 37.4704C28.1863 37.3568 28.4701 36.5272 28.6273 35.6267C28.7845 34.7257 29.5585 33.0601 30.3475 31.9254C31.2162 30.6754 32.0392 28.7684 32.4337 27.0894C32.7918 25.5642 33.5037 23.7152 34.0148 22.9802C34.8679 21.7542 35.3773 21.5355 40.1694 20.3419C46.3279 18.8078 48.4493 18.686 49.7662 19.792C50.8466 20.6986 51.8927 20.4872 51.8927 19.3618C51.8927 18.1483 49.5008 16.9762 47.0712 16.9994C45.9183 17.0103 41.994 17.7396 38.3507 18.6199ZM22.7145 19.4539C21.7138 20.5245 21.3415 24.8707 22.2223 25.1982C23.2277 25.5715 23.6943 24.9871 23.9266 23.0639C24.0482 22.0594 24.2754 20.7611 24.4318 20.1787C24.8029 18.7964 23.7463 18.3504 22.7145 19.4539ZM36.1555 33.3556C33.6802 33.9542 32.9276 34.3438 33.1272 34.9233C33.2152 35.179 35.2411 35.3657 38.2849 35.3978C43.0032 35.4481 43.4899 35.5321 46.5652 36.8292C49.0824 37.8908 49.9465 38.097 50.3293 37.7265C51.2105 36.8734 50.0781 35.9124 46.6067 34.5678C42.7097 33.0581 39.1108 32.6409 36.1555 33.3556ZM36.0431 38.3559C33.9653 39.0674 33.7464 40.2277 35.6503 40.4403C36.3253 40.5158 36.7994 40.8166 36.7994 41.1692C36.7994 41.4992 37.2627 42.2175 37.8287 42.7654C39.19 44.0836 41.3471 44.1095 42.5961 42.8226C44.1251 41.2467 43.4593 39.9683 41.6091 40.9269C40.4671 41.5187 39.315 41.2163 39.315 40.3247C39.315 38.8689 43.8283 40.0373 44.7678 41.7366C45.4068 42.8924 46.8616 42.8015 46.8616 41.6055C46.8616 40.517 45.0814 38.7297 43.3755 38.1059C41.7249 37.502 38.1842 37.623 36.0431 38.3559ZM18.7761 42.7419C17.9933 43.6546 18.5882 44.7151 19.7198 44.4253C20.3818 44.2561 20.8585 44.4407 21.3381 45.0515C21.7641 45.5941 22.2731 45.823 22.7007 45.6639C23.6222 45.3218 23.5594 44.4939 22.5141 43.2078C21.5327 42 19.6167 41.7609 18.7761 42.7419ZM54.1202 43.2171C53.5064 44.1286 53.3601 45.1802 53.3601 48.6838C53.3601 51.0697 53.2041 53.1744 53.0137 53.3603C52.8234 53.5466 51.8801 53.883 50.9175 54.1078C49.5876 54.4183 49.1675 54.7113 49.1675 55.3282C49.1675 56.0486 49.4031 56.1257 51.2638 56.012C55.2362 55.7698 56.3787 53.9613 55.5427 49.2369C55.1708 47.1359 55.188 46.3047 55.624 45.2719C55.9276 44.5527 56.2026 43.6051 56.2353 43.1656C56.3288 41.9083 54.9801 41.9407 54.1202 43.2171ZM73.4068 45.8088C72.9921 46.4882 72.0383 47.3948 71.287 47.8242C69.618 48.7771 69.5609 49.53 71.0736 50.6245C72.4048 51.588 72.5154 51.6935 73.7917 53.2231C74.9102 54.5636 75.719 54.4155 76.7805 52.6756C77.186 52.0117 78.0718 51.1911 78.7502 50.8514C79.4281 50.5121 79.9828 49.961 79.9828 49.6274C79.9828 48.8441 75.5819 44.5734 74.7748 44.5734C74.4369 44.5734 73.8214 45.1294 73.4068 45.8088ZM75.9508 50.2248L74.9953 51.2089L74.1665 50.2248C73.341 49.2442 73.341 49.2373 74.1749 48.3717L75.0121 47.5028L75.9592 48.3717L76.9059 49.2406L75.9508 50.2248ZM69.6062 56.1322C68.626 57.1094 67.8244 58.0279 67.8244 58.1727C67.8244 58.4658 71.4229 62.0246 71.7188 62.0246C71.8224 62.0246 72.7804 61.1788 73.8483 60.1447C74.9165 59.111 75.7902 58.1837 75.7902 58.0835C75.7902 57.7413 72.0836 54.3136 71.7356 54.3343C71.5444 54.3457 70.5864 55.1545 69.6062 56.1322ZM41.1387 57.37C40.7794 58.2762 41.8846 59.0932 43.8949 59.4081C44.7196 59.5372 46.2616 59.8996 47.3219 60.2129C49.7725 60.9377 55.5108 60.8679 56.1649 60.1058C57.0675 59.0526 55.8244 58.5697 52.436 58.6577C50.6835 58.7032 48.892 58.555 48.4552 58.329C48.0187 58.1025 46.6796 57.7519 45.4797 57.5498C44.2798 57.3473 42.8757 57.0636 42.3596 56.9191C41.6846 56.7304 41.3421 56.8566 41.1387 57.37ZM72.3557 57.9966C72.2731 58.2365 72.0262 58.4329 71.8073 58.4329C71.5885 58.4329 71.3415 58.2365 71.2589 57.9966C71.1763 57.7568 71.4229 57.5603 71.8073 57.5603C72.1918 57.5603 72.4383 57.7568 72.3557 57.9966ZM44.9246 61.3967C44.5938 62.2308 44.9733 62.5891 46.8192 63.1869C49.5507 64.0708 52.3119 63.693 52.3119 62.4357C52.3119 61.857 51.8411 61.6719 49.9012 61.4885C48.5755 61.3631 46.9739 61.1378 46.3425 60.9877C45.4793 60.7819 45.128 60.8834 44.9246 61.3967Z" fill="#F8F8F8"/>
</svg>
