<svg width="85" height="85" viewBox="0 0 85 85" fill="none" xmlns="http://www.w3.org/2000/svg">
<g clip-path="url(#clip0_53_507)">
<mask id="path-1-inside-1_53_507" fill="white">
<path d="M0 68.0527C0.320013 66.9771 1.08841 66.3534 2.03011 65.8555C8.40536 62.4824 13.9439 58.0641 18.1674 52.091C19.6508 49.9924 20.8475 47.6847 22.2959 45.5571C24.5726 42.2129 27.5028 39.7336 31.5263 38.8686C32.193 38.7259 32.8696 38.6562 33.473 38.5644L19.7608 24.5858C17.664 25.9181 15.094 24.9257 14.2873 22.3903C13.9289 21.2501 14.2456 20.278 15.0456 19.4505C15.974 18.4904 16.919 17.5472 17.7957 16.6585L13.1389 11.9004C12.6388 12.1808 12.1205 12.6005 11.5322 12.7721C10.0938 13.1936 9.13871 12.3133 8.22534 11.343C7.42864 10.4934 6.92863 9.58421 7.27031 8.3794C7.60365 7.22216 8.43705 6.45577 9.38709 5.8865C9.69043 5.70297 10.4171 5.93917 10.7638 6.22636C11.2355 6.61041 11.2038 7.24595 10.8054 7.75575C10.4454 8.21117 10.0338 8.6241 9.58542 9.1152L10.9872 10.563C11.6389 9.81872 12.2022 9.1271 12.8206 8.48475C14.1156 7.1253 15.4089 5.77604 16.7607 4.48456C17.329 3.94077 17.3657 3.56352 16.7457 3.0979C16.5274 2.92797 16.344 2.72406 15.939 2.34001C15.6466 2.75556 15.3299 3.15279 14.9907 3.52954C14.324 4.18548 13.6172 4.20926 13.0905 3.65358C12.5988 3.14379 12.6389 2.41308 13.2172 1.77073C13.5172 1.43087 13.8322 1.1182 14.1589 0.815717C15.364 -0.299037 16.8257 -0.290541 18.0307 0.836109C18.3758 1.16068 18.7141 1.49714 19.0308 1.8557C20.0308 2.99085 20.0592 4.43357 19.1141 5.62479C18.9941 5.77603 18.8658 5.92047 18.8008 5.99524L23.5193 10.8247C24.2643 10.06 25.0927 9.20187 25.9277 8.34881C27.5661 6.68178 28.9678 6.70556 30.6429 8.3675C31.5363 9.25454 32.248 10.1943 31.8846 11.5554C31.758 12.0312 31.488 12.4697 30.9913 13.1443C31.278 13.3142 31.6146 13.4417 31.8446 13.6745C40.1866 22.1711 48.5736 30.6099 56.809 39.2068C58.6424 41.1185 60.8341 42.6921 62.2992 44.9692C63.0425 46.123 63.8409 47.2429 64.5143 48.4375C68.6911 55.8482 74.7446 61.2266 81.9933 65.327C82.67 65.7094 83.3683 66.0577 84.0017 66.503C84.835 67.0841 85.1251 67.9661 84.9634 68.9517C84.7967 69.9713 84.2383 70.77 83.2383 71.0299C79.3865 72.0342 76.5714 74.5645 73.978 77.4398C72.7262 78.8298 71.5862 80.3286 70.2611 81.6439C68.0661 83.819 65.3159 84.7639 62.2975 84.9525C59.2023 85.1445 56.1889 84.5243 53.1688 83.9618C50.6403 83.4911 48.1036 83.0781 45.5702 82.6363C44.5901 82.4664 44.0885 81.9277 44.1935 81.1834C44.3085 80.3745 44.9751 79.9752 45.9668 80.1417C50.3003 80.869 54.6238 81.6711 58.9673 82.3151C63.3475 82.9558 67.2044 81.9056 70.0911 78.2096C72.0745 75.6606 74.193 73.2578 77.0397 71.2424C76.5047 71.1778 76.2064 71.1302 75.8964 71.1064C69.7295 70.6238 63.8709 69.0197 58.4207 66.0085C56.4723 64.9294 54.5289 63.8758 52.2805 63.5869C50.1287 63.3116 48.0036 63.4034 45.9986 64.2667C43.6418 65.2727 41.3883 65.2064 39.0082 64.2768C35.5314 62.9174 32.008 63.123 28.7279 64.8954C24.781 67.0297 20.7875 69.0111 16.394 69.9424C13.9923 70.4522 11.5438 70.736 9.11706 71.1166C8.82371 71.1625 8.52537 71.1829 8.03702 71.2373C8.68871 71.7658 9.24543 72.1243 9.68878 72.5967C11.6389 74.6699 13.5684 76.7623 15.4773 78.874C17.1691 80.7433 19.1808 82.0687 21.6826 82.2727C23.5221 82.4408 25.3741 82.4054 27.2062 82.1673C31.1446 81.6116 35.0564 80.8503 38.9783 80.174C39.0599 80.1604 39.1449 80.1366 39.2232 80.1264C40.0866 80.0194 40.7233 80.4476 40.83 81.2072C40.9266 81.9039 40.45 82.4834 39.6116 82.6295C37.4332 83.0102 35.2565 83.4129 33.0714 83.7392C30.0396 84.1912 27.0111 84.7724 23.9626 84.9508C19.6491 85.204 16.074 83.4894 13.2222 80.1196C11.5125 78.0911 9.69591 76.159 7.78034 74.3317C6.11276 72.7444 4.0711 71.6234 1.85343 71.0775C0.828385 70.8226 0.363354 69.9917 0.00667344 69.0757L0 68.0527ZM58.5773 44.2622L58.2656 44.4458C58.3556 45.2275 58.479 46.0075 58.5274 46.7925C58.5907 47.8512 58.6723 48.9201 58.5923 49.972C58.559 50.4189 58.5923 50.6772 58.8973 50.9797C61.3119 53.4233 63.7198 55.8754 66.121 58.336C66.3526 58.5739 66.696 58.822 66.736 59.1041C66.8027 59.5578 66.791 60.1237 66.5693 60.4959C66.2843 60.9887 65.7043 61.0974 65.1709 60.7983C64.8876 60.6253 64.629 60.4131 64.4026 60.1679C62.1092 57.8398 59.8091 55.5152 57.5423 53.1599C57.0123 52.6076 56.5589 52.1301 55.7305 52.5753C55.5089 52.6926 55.1822 52.6484 54.9105 52.6178C52.4104 52.3238 49.9103 52.057 47.4202 51.6866C46.8079 51.5779 46.2408 51.2871 45.7902 50.8505C42.8018 47.8733 39.8666 44.8417 36.9031 41.8441C36.6871 41.6004 36.4081 41.4237 36.0981 41.3343C33.8554 40.872 31.5254 41.1903 29.4812 42.2384C27.1061 43.4483 25.3861 45.3804 23.9493 47.5912C22.6676 49.5624 21.5543 51.6543 20.1992 53.5694C15.9124 59.6275 10.3438 64.1868 3.93521 67.7282C3.4702 67.9848 3.00346 68.238 2.34344 68.5999C2.52453 68.651 2.70817 68.6924 2.89351 68.724C6.51651 68.8806 10.1453 68.6235 13.7122 67.9576C18.3991 67.0603 22.776 65.3321 26.9428 62.9735C31.2546 60.5315 35.7664 60.2546 40.3683 62.0728C41.845 62.654 43.2267 62.5826 44.7168 62.0558C46.1729 61.5307 47.6825 61.175 49.2169 60.9955C52.6587 60.6301 55.7972 61.6497 58.8007 63.3626C66.0126 67.4767 73.8013 69.0791 82.0249 68.7223C82.1749 68.6967 82.3215 68.6534 82.4616 68.5931C82.3783 68.4912 82.3533 68.4351 82.31 68.4113C81.9966 68.2334 81.681 68.059 81.3632 67.8879C76.7751 65.4335 72.5798 62.2821 68.9211 58.5416C65.9826 55.5474 63.6792 52.0842 61.5775 48.4511C60.7224 46.9591 59.5874 45.6472 58.5773 44.2589V44.2622ZM41.155 42.2724L43.335 44.5953C44.6768 43.3837 45.3235 43.156 45.8801 43.8204C46.9235 45.0643 45.6719 45.6982 45.0819 46.5053L47.0136 48.4511L54.6305 40.7294L36.7449 22.4787C34.2448 25.0276 31.683 27.6259 29.2446 30.1035L31.2446 32.2905C32.623 31.0636 33.1514 30.8733 33.7447 31.4545C33.9497 31.6533 34.2164 32.0458 34.1481 32.2328C33.8881 32.9363 33.503 33.5922 33.148 34.3093L35.2297 36.4386C36.0048 35.8404 36.7098 34.4912 37.8299 35.6467C38.9499 36.8022 37.5665 37.4989 37.0665 38.2602L39.2515 40.5424C40.0332 39.9647 40.735 38.5916 41.85 39.7506C42.9651 40.9095 41.635 41.6113 41.155 42.2689V42.2724ZM28.4529 9.80173L16.7607 21.7208C16.7707 21.731 16.8724 21.8618 16.9874 21.9825C17.8474 22.8933 17.8491 22.8933 18.7424 21.9825L28.8245 11.6965C29.0562 11.4603 29.2762 11.2156 29.5112 10.9641C29.0812 10.49 28.6945 10.0685 28.4529 9.80173ZM50.0037 49.4554C51.6704 49.661 53.3772 49.8955 55.0972 50.0722C55.7289 50.1368 56.3139 49.4095 56.2639 48.7247C56.2223 48.2149 56.1556 47.7204 56.0973 47.2191C55.9506 46.021 55.7989 44.823 55.6606 43.7083L50.0037 49.4554ZM34.7864 20.397L33.6664 19.2703L26.0294 27.0515L27.1011 28.2241L34.7864 20.397ZM15.029 9.87139L19.5958 14.5377L21.3758 12.7942L16.8107 8.1109L15.029 9.87139ZM24.6593 19.6068L26.9111 22.0606L28.8045 20.3001L26.4061 17.8242L24.6593 19.6068ZM31.6979 17.3093L29.3745 14.9507L28.3845 15.836L30.8246 18.3476L31.6979 17.3093ZM21.7343 22.4974L24.1127 24.9274L25.076 24.178L22.7076 21.6477L21.7343 22.4974Z"/>
</mask>
<path d="M0 68.0527C0.320013 66.9771 1.08841 66.3534 2.03011 65.8555C8.40536 62.4824 13.9439 58.0641 18.1674 52.091C19.6508 49.9924 20.8475 47.6847 22.2959 45.5571C24.5726 42.2129 27.5028 39.7336 31.5263 38.8686C32.193 38.7259 32.8696 38.6562 33.473 38.5644L19.7608 24.5858C17.664 25.9181 15.094 24.9257 14.2873 22.3903C13.9289 21.2501 14.2456 20.278 15.0456 19.4505C15.974 18.4904 16.919 17.5472 17.7957 16.6585L13.1389 11.9004C12.6388 12.1808 12.1205 12.6005 11.5322 12.7721C10.0938 13.1936 9.13871 12.3133 8.22534 11.343C7.42864 10.4934 6.92863 9.58421 7.27031 8.3794C7.60365 7.22216 8.43705 6.45577 9.38709 5.8865C9.69043 5.70297 10.4171 5.93917 10.7638 6.22636C11.2355 6.61041 11.2038 7.24595 10.8054 7.75575C10.4454 8.21117 10.0338 8.6241 9.58542 9.1152L10.9872 10.563C11.6389 9.81872 12.2022 9.1271 12.8206 8.48475C14.1156 7.1253 15.4089 5.77604 16.7607 4.48456C17.329 3.94077 17.3657 3.56352 16.7457 3.0979C16.5274 2.92797 16.344 2.72406 15.939 2.34001C15.6466 2.75556 15.3299 3.15279 14.9907 3.52954C14.324 4.18548 13.6172 4.20926 13.0905 3.65358C12.5988 3.14379 12.6389 2.41308 13.2172 1.77073C13.5172 1.43087 13.8322 1.1182 14.1589 0.815717C15.364 -0.299037 16.8257 -0.290541 18.0307 0.836109C18.3758 1.16068 18.7141 1.49714 19.0308 1.8557C20.0308 2.99085 20.0592 4.43357 19.1141 5.62479C18.9941 5.77603 18.8658 5.92047 18.8008 5.99524L23.5193 10.8247C24.2643 10.06 25.0927 9.20187 25.9277 8.34881C27.5661 6.68178 28.9678 6.70556 30.6429 8.3675C31.5363 9.25454 32.248 10.1943 31.8846 11.5554C31.758 12.0312 31.488 12.4697 30.9913 13.1443C31.278 13.3142 31.6146 13.4417 31.8446 13.6745C40.1866 22.1711 48.5736 30.6099 56.809 39.2068C58.6424 41.1185 60.8341 42.6921 62.2992 44.9692C63.0425 46.123 63.8409 47.2429 64.5143 48.4375C68.6911 55.8482 74.7446 61.2266 81.9933 65.327C82.67 65.7094 83.3683 66.0577 84.0017 66.503C84.835 67.0841 85.1251 67.9661 84.9634 68.9517C84.7967 69.9713 84.2383 70.77 83.2383 71.0299C79.3865 72.0342 76.5714 74.5645 73.978 77.4398C72.7262 78.8298 71.5862 80.3286 70.2611 81.6439C68.0661 83.819 65.3159 84.7639 62.2975 84.9525C59.2023 85.1445 56.1889 84.5243 53.1688 83.9618C50.6403 83.4911 48.1036 83.0781 45.5702 82.6363C44.5901 82.4664 44.0885 81.9277 44.1935 81.1834C44.3085 80.3745 44.9751 79.9752 45.9668 80.1417C50.3003 80.869 54.6238 81.6711 58.9673 82.3151C63.3475 82.9558 67.2044 81.9056 70.0911 78.2096C72.0745 75.6606 74.193 73.2578 77.0397 71.2424C76.5047 71.1778 76.2064 71.1302 75.8964 71.1064C69.7295 70.6238 63.8709 69.0197 58.4207 66.0085C56.4723 64.9294 54.5289 63.8758 52.2805 63.5869C50.1287 63.3116 48.0036 63.4034 45.9986 64.2667C43.6418 65.2727 41.3883 65.2064 39.0082 64.2768C35.5314 62.9174 32.008 63.123 28.7279 64.8954C24.781 67.0297 20.7875 69.0111 16.394 69.9424C13.9923 70.4522 11.5438 70.736 9.11706 71.1166C8.82371 71.1625 8.52537 71.1829 8.03702 71.2373C8.68871 71.7658 9.24543 72.1243 9.68878 72.5967C11.6389 74.6699 13.5684 76.7623 15.4773 78.874C17.1691 80.7433 19.1808 82.0687 21.6826 82.2727C23.5221 82.4408 25.3741 82.4054 27.2062 82.1673C31.1446 81.6116 35.0564 80.8503 38.9783 80.174C39.0599 80.1604 39.1449 80.1366 39.2232 80.1264C40.0866 80.0194 40.7233 80.4476 40.83 81.2072C40.9266 81.9039 40.45 82.4834 39.6116 82.6295C37.4332 83.0102 35.2565 83.4129 33.0714 83.7392C30.0396 84.1912 27.0111 84.7724 23.9626 84.9508C19.6491 85.204 16.074 83.4894 13.2222 80.1196C11.5125 78.0911 9.69591 76.159 7.78034 74.3317C6.11276 72.7444 4.0711 71.6234 1.85343 71.0775C0.828385 70.8226 0.363354 69.9917 0.00667344 69.0757L0 68.0527ZM58.5773 44.2622L58.2656 44.4458C58.3556 45.2275 58.479 46.0075 58.5274 46.7925C58.5907 47.8512 58.6723 48.9201 58.5923 49.972C58.559 50.4189 58.5923 50.6772 58.8973 50.9797C61.3119 53.4233 63.7198 55.8754 66.121 58.336C66.3526 58.5739 66.696 58.822 66.736 59.1041C66.8027 59.5578 66.791 60.1237 66.5693 60.4959C66.2843 60.9887 65.7043 61.0974 65.1709 60.7983C64.8876 60.6253 64.629 60.4131 64.4026 60.1679C62.1092 57.8398 59.8091 55.5152 57.5423 53.1599C57.0123 52.6076 56.5589 52.1301 55.7305 52.5753C55.5089 52.6926 55.1822 52.6484 54.9105 52.6178C52.4104 52.3238 49.9103 52.057 47.4202 51.6866C46.8079 51.5779 46.2408 51.2871 45.7902 50.8505C42.8018 47.8733 39.8666 44.8417 36.9031 41.8441C36.6871 41.6004 36.4081 41.4237 36.0981 41.3343C33.8554 40.872 31.5254 41.1903 29.4812 42.2384C27.1061 43.4483 25.3861 45.3804 23.9493 47.5912C22.6676 49.5624 21.5543 51.6543 20.1992 53.5694C15.9124 59.6275 10.3438 64.1868 3.93521 67.7282C3.4702 67.9848 3.00346 68.238 2.34344 68.5999C2.52453 68.651 2.70817 68.6924 2.89351 68.724C6.51651 68.8806 10.1453 68.6235 13.7122 67.9576C18.3991 67.0603 22.776 65.3321 26.9428 62.9735C31.2546 60.5315 35.7664 60.2546 40.3683 62.0728C41.845 62.654 43.2267 62.5826 44.7168 62.0558C46.1729 61.5307 47.6825 61.175 49.2169 60.9955C52.6587 60.6301 55.7972 61.6497 58.8007 63.3626C66.0126 67.4767 73.8013 69.0791 82.0249 68.7223C82.1749 68.6967 82.3215 68.6534 82.4616 68.5931C82.3783 68.4912 82.3533 68.4351 82.31 68.4113C81.9966 68.2334 81.681 68.059 81.3632 67.8879C76.7751 65.4335 72.5798 62.2821 68.9211 58.5416C65.9826 55.5474 63.6792 52.0842 61.5775 48.4511C60.7224 46.9591 59.5874 45.6472 58.5773 44.2589V44.2622ZM41.155 42.2724L43.335 44.5953C44.6768 43.3837 45.3235 43.156 45.8801 43.8204C46.9235 45.0643 45.6719 45.6982 45.0819 46.5053L47.0136 48.4511L54.6305 40.7294L36.7449 22.4787C34.2448 25.0276 31.683 27.6259 29.2446 30.1035L31.2446 32.2905C32.623 31.0636 33.1514 30.8733 33.7447 31.4545C33.9497 31.6533 34.2164 32.0458 34.1481 32.2328C33.8881 32.9363 33.503 33.5922 33.148 34.3093L35.2297 36.4386C36.0048 35.8404 36.7098 34.4912 37.8299 35.6467C38.9499 36.8022 37.5665 37.4989 37.0665 38.2602L39.2515 40.5424C40.0332 39.9647 40.735 38.5916 41.85 39.7506C42.9651 40.9095 41.635 41.6113 41.155 42.2689V42.2724ZM28.4529 9.80173L16.7607 21.7208C16.7707 21.731 16.8724 21.8618 16.9874 21.9825C17.8474 22.8933 17.8491 22.8933 18.7424 21.9825L28.8245 11.6965C29.0562 11.4603 29.2762 11.2156 29.5112 10.9641C29.0812 10.49 28.6945 10.0685 28.4529 9.80173ZM50.0037 49.4554C51.6704 49.661 53.3772 49.8955 55.0972 50.0722C55.7289 50.1368 56.3139 49.4095 56.2639 48.7247C56.2223 48.2149 56.1556 47.7204 56.0973 47.2191C55.9506 46.021 55.7989 44.823 55.6606 43.7083L50.0037 49.4554ZM34.7864 20.397L33.6664 19.2703L26.0294 27.0515L27.1011 28.2241L34.7864 20.397ZM15.029 9.87139L19.5958 14.5377L21.3758 12.7942L16.8107 8.1109L15.029 9.87139ZM24.6593 19.6068L26.9111 22.0606L28.8045 20.3001L26.4061 17.8242L24.6593 19.6068ZM31.6979 17.3093L29.3745 14.9507L28.3845 15.836L30.8246 18.3476L31.6979 17.3093ZM21.7343 22.4974L24.1127 24.9274L25.076 24.178L22.7076 21.6477L21.7343 22.4974Z" fill="#13A2B7" stroke="#77E4D5" stroke-width="0.7" mask="url(#path-1-inside-1_53_507)"/>
</g>
<defs>
<clipPath id="clip0_53_507">
<rect width="85" height="85" fill="white"/>
</clipPath>
</defs>
</svg>
