<svg width="16" height="17" viewBox="0 0 16 17" fill="none" xmlns="http://www.w3.org/2000/svg">
<path d="M4.27247 1.01041C3.28447 0.759614 2.24897 0.866014 1.43767 1.32011C0.611171 1.78181 0.0316711 2.60071 0.00317111 3.69606C-0.0405289 5.40796 0.355621 7.70506 1.92882 10.4012C3.48207 13.064 5.19682 14.66 6.61992 15.6081C7.51862 16.2076 8.51137 16.2237 9.35972 15.8333C10.1957 15.4485 10.874 14.68 11.2265 13.7271C11.3142 13.4901 11.3494 13.2369 11.3297 12.985C11.3101 12.7331 11.2359 12.4884 11.1125 12.2679L10.2062 10.651C9.92758 10.1534 9.47921 9.7726 8.94301 9.57828C8.40682 9.38397 7.8186 9.38909 7.28587 9.59271L6.65317 9.83496C6.34632 9.95181 6.06417 9.89766 5.90457 9.73996C5.36782 9.21271 4.98402 8.49736 4.81017 7.72596C4.75507 7.48276 4.86717 7.19586 5.13507 6.99351L5.70602 6.56221C6.1676 6.21391 6.48625 5.70917 6.60221 5.14267C6.71817 4.57617 6.62347 3.98682 6.33587 3.48516L5.41247 1.87491C5.29014 1.66173 5.12617 1.47533 4.93032 1.32681C4.73448 1.1783 4.51075 1.0707 4.27247 1.01041ZM0.953171 3.72171C0.972171 2.98641 1.34457 2.46106 1.90127 2.14946C2.47317 1.82931 3.25407 1.73146 4.03877 1.93096C4.27152 1.98986 4.46912 2.13996 4.58882 2.34801L5.51127 3.95826C5.6838 4.25913 5.74069 4.6126 5.67126 4.95241C5.60182 5.29222 5.41085 5.59504 5.13412 5.80411L4.56317 6.23541C4.06917 6.60781 3.72717 7.24621 3.88297 7.93496C4.09387 8.86786 4.56032 9.75231 5.23862 10.4183C5.73452 10.9047 6.44132 10.9332 6.99232 10.7223L7.62502 10.48C7.94469 10.3577 8.29772 10.3544 8.61955 10.471C8.94139 10.5875 9.21054 10.816 9.37777 11.1146L10.2831 12.7325C10.3971 12.9358 10.4161 13.179 10.3354 13.3975C10.0599 14.1432 9.54212 14.7028 8.96262 14.9697C8.39547 15.231 7.75422 15.2234 7.14717 14.8177C5.84472 13.9494 4.23067 12.4608 2.74867 9.92236C1.26572 7.37636 0.914221 5.25406 0.954121 3.72171H0.953171ZM10.1701 0.959114C10.06 0.897889 9.93005 0.88291 9.8089 0.917473C9.68775 0.952036 9.5853 1.03331 9.52407 1.14341C9.46285 1.25352 9.44787 1.38344 9.48243 1.50458C9.51699 1.62573 9.59827 1.72819 9.70837 1.78941L10.0732 1.99271C11.2128 2.6258 12.1822 3.5254 12.8985 4.61462C13.6149 5.70385 14.0568 6.95032 14.1867 8.24751L14.2171 8.54676C14.2207 8.61081 14.2372 8.67347 14.2656 8.73096C14.2941 8.78845 14.3339 8.83958 14.3827 8.88127C14.4314 8.92295 14.4881 8.95432 14.5494 8.9735C14.6106 8.99267 14.675 8.99924 14.7389 8.99282C14.8027 8.9864 14.8646 8.96712 14.9207 8.93613C14.9769 8.90515 15.0262 8.86311 15.0657 8.81255C15.1052 8.76199 15.134 8.70395 15.1505 8.64195C15.1669 8.57994 15.1706 8.51524 15.1614 8.45176L15.1319 8.15346C14.987 6.70337 14.493 5.30995 13.6923 4.09233C12.8916 2.8747 11.8079 1.86909 10.5339 1.16146L10.1701 0.959114ZM9.05667 3.50511C9.12156 3.39717 9.22667 3.31941 9.34888 3.28895C9.4711 3.25848 9.6004 3.27781 9.70837 3.34266L9.82617 3.41296C10.593 3.87272 11.2509 4.49352 11.7543 5.23244C12.2576 5.97137 12.5946 6.81081 12.7417 7.69271L12.7835 7.94636C12.7955 8.00856 12.7949 8.07253 12.7817 8.13449C12.7686 8.19646 12.7432 8.25517 12.7071 8.30717C12.6709 8.35918 12.6247 8.40342 12.5712 8.43731C12.5177 8.4712 12.4579 8.49404 12.3955 8.5045C12.333 8.51495 12.2691 8.51281 12.2074 8.49819C12.1458 8.48357 12.0877 8.45677 12.0366 8.41937C11.9855 8.38197 11.9423 8.33472 11.9098 8.28041C11.8772 8.2261 11.8558 8.16582 11.8468 8.10311L11.8041 7.84946C11.6798 7.10337 11.3949 6.39317 10.9693 5.76792C10.5437 5.14267 9.98737 4.61728 9.33882 4.22806L9.22102 4.15681C9.16749 4.12476 9.1208 4.08247 9.08362 4.03237C9.04644 3.98227 9.01949 3.92533 9.00432 3.86481C8.98914 3.80429 8.98604 3.74138 8.99519 3.67966C9.00433 3.61794 9.02555 3.55863 9.05762 3.50511H9.05667Z" fill="#13A2B7"/>
</svg>
