<svg width="71" height="80" viewBox="0 0 71 80" fill="none" xmlns="http://www.w3.org/2000/svg">
<path fill-rule="evenodd" clip-rule="evenodd" d="M9.64085 0.427306C9.23783 0.856134 9.2544 0.928641 10.1997 2.88852C12.6321 7.93179 13.3596 14.8192 12.1068 20.939C11.6251 23.2918 11.6675 23.6638 12.4376 23.8501C13.2676 24.0507 13.6193 23.596 14.0101 21.8159C15.5204 14.9405 14.6663 6.95817 11.8435 1.57144C10.982 -0.0729182 10.3965 -0.377134 9.64085 0.427306ZM59.8774 0.373426C58.967 1.36944 57.5435 4.95284 56.8166 8.07858C56.2414 10.5522 56.1137 16.6616 56.5745 19.6747C57.0953 23.0816 57.3584 23.8042 58.109 23.8882C59.2317 24.0139 59.3194 23.5747 58.7831 20.5157C57.6602 14.1094 58.4671 7.2074 60.8781 2.59717C61.6554 1.1109 61.7086 0.530634 61.0965 0.214889C60.4836 -0.101077 60.2877 -0.075579 59.8774 0.373426ZM8.42304 12.295C1.41402 14.8933 -1.40759 18.4696 0.66529 22.1272C2.73909 25.7869 9.97067 28.7721 20.3413 30.2497C22.4774 30.5541 22.7723 30.5162 23.1185 29.8929C23.6297 28.9727 23.1037 28.7051 19.7392 28.1732C11.4994 26.8707 5.3708 24.5849 3.01759 21.9365C1.48951 20.2166 1.69574 18.7665 3.71154 17.0569C5.00001 15.9644 6.21851 15.3032 8.65528 14.3748C10.3972 13.7112 11.3655 13.0826 11.3655 12.6154C11.3655 12.2932 10.6533 11.7369 10.2558 11.748C10.0432 11.754 9.21849 12.0001 8.42304 12.295ZM59.9766 12.0032C59.5151 12.4478 59.6481 13.2775 60.2182 13.5097C60.5032 13.6256 61.6683 14.1003 62.8076 14.5647C67.6468 16.5369 69.5851 18.6374 68.6807 20.9292C68.0697 22.4773 64.4784 24.7359 60.621 25.9975C58.1065 26.8202 54.7083 27.6033 51.2993 28.1461C49.6536 28.4082 48.1642 28.7563 47.9895 28.9195C47.6054 29.2787 47.8056 30.2574 48.3009 30.4404C48.7343 30.6007 53.4421 29.8667 56.5383 29.1563C59.9982 28.3623 62.2803 27.6 64.9912 26.3321C69.751 24.1066 71.9047 20.9541 70.647 18.054C69.8049 16.1126 66.9315 14.007 63.084 12.5125C60.9324 11.6766 60.4051 11.5904 59.9766 12.0032ZM23.3341 24.3758C23.031 24.9215 23.0977 25.0488 25.2109 27.9568C26.0984 29.1785 26.7903 30.2038 26.7482 30.2353C23.8469 32.4093 22.1446 33.7874 21.9688 34.104C21.694 34.5985 22.2445 35.4646 22.8294 35.4577C23.0436 35.4553 24.6477 34.3544 26.3939 33.0113L29.5691 30.5694L27.5678 27.7499C26.4674 26.1991 25.357 24.7057 25.1009 24.4312C24.5232 23.8126 23.6619 23.7858 23.3341 24.3758ZM43.8223 27.1643C42.5399 28.9419 41.5225 30.4827 41.5614 30.5885C41.6627 30.8632 47.7425 35.4623 48.0045 35.4623C48.5518 35.4623 49.1127 34.9588 49.1127 34.4674C49.1127 34.0506 48.5753 33.5253 46.696 32.1051C45.3668 31.1007 44.2792 30.2191 44.2792 30.1461C44.2792 30.0734 45.056 28.9268 46.0055 27.5982C46.9549 26.2698 47.7317 25.0213 47.7317 24.8237C47.7317 24.3188 47.27 23.9323 46.6667 23.9323C46.2667 23.9323 45.6416 24.6428 43.8223 27.1643ZM8.28517 32.4011C8.05339 32.5262 7.50168 33.3907 7.05907 34.3224C4.31319 40.1025 3.08848 45.6861 3.08848 52.4248C3.08848 60.7647 5.11555 68.4116 9.48824 76.5684C11.1192 79.6105 11.6953 80.2318 12.5009 79.8165C12.7626 79.6815 12.9766 79.3997 12.9766 79.1901C12.9766 78.9804 12.0668 77.0633 10.9546 74.9296C8.07917 69.4131 6.3352 64.1641 5.50292 58.5221C5.1457 56.1011 5.01082 48.2085 5.32362 48.027C5.41845 47.9717 6.27306 48.372 7.22249 48.9163C8.17193 49.4607 11.9015 51.3341 15.5108 53.0795C24.1623 57.2638 25.5748 58.1782 29.9056 62.4C31.8111 64.2572 33.5977 65.8943 33.8759 66.0377C34.3791 66.2969 34.3821 66.3359 34.3821 72.5919C34.3821 76.0533 34.4461 79.046 34.5243 79.2422C34.7497 79.8083 35.4613 80.0828 35.9932 79.8085C36.4377 79.5793 36.4536 79.3442 36.4536 72.9539V66.3368L37.1487 66.0594C37.531 65.9069 38.6963 64.8344 39.738 63.6763C41.8123 61.3703 44.8765 58.7813 47.3865 57.2142C48.2726 56.6607 51.8459 54.8403 55.3272 53.1687C58.8085 51.497 62.5372 49.6279 63.6132 49.0148L65.5696 47.8999L65.7252 48.8321C65.9634 50.26 65.9413 54.0046 65.6794 56.5587C64.9979 63.2022 62.9853 69.469 59.3993 76.1127L57.7439 79.1797L58.2874 79.605C58.9774 80.1451 59.1173 80.1387 59.696 79.5402C60.3731 78.84 63.6627 72.3373 64.6478 69.7515C65.7712 66.8027 66.9508 62.2851 67.4379 59.0656C68.0423 55.072 67.9859 48.8392 67.3122 45.1076C66.6746 41.5784 65.5742 38.0145 64.163 34.9105C63.108 32.5896 62.6101 32.0104 61.8973 32.2741C61.0197 32.5985 61.074 33.1184 62.2508 35.659C62.8826 37.0233 63.342 38.2291 63.2718 38.3389C63.0306 38.7147 60.0458 40.5112 58.1228 41.4378C47.1874 46.7065 30.6044 47.521 17.7655 43.4194C14.0759 42.2407 8.51027 39.3834 7.83864 38.3231C7.6727 38.061 7.89941 37.3526 8.70867 35.6063C9.31056 34.3069 9.74626 33.1009 9.67652 32.9264C9.47144 32.4113 8.76276 32.1437 8.28517 32.4011ZM8.08515 41.0883C12.8487 44.3451 20.9457 46.9006 28.946 47.6722C32.8867 48.0522 42.2321 47.8136 45.5451 47.2485C52.422 46.0753 58.0033 44.1322 62.4414 41.3666C63.5437 40.6795 64.1223 40.432 64.1916 40.6176C64.4659 41.3502 65.2214 44.7303 65.2227 45.2312C65.2241 45.7229 64.851 46.0068 62.4048 47.3755C60.8539 48.2431 56.9441 50.2152 53.716 51.7578C45.8609 55.5115 44.1372 56.6423 39.6165 61.0071C37.6217 62.9333 35.8282 64.5091 35.631 64.5091C35.0503 64.5091 34.377 64.0772 33.6108 63.2126C32.0765 61.4818 29.5969 59.0962 28.1676 57.976C25.4772 55.8671 23.542 54.766 16.8322 51.527C13.193 49.7702 9.20537 47.7416 7.97076 47.019C5.80237 45.7498 5.72825 45.6804 5.7828 44.9631C5.84587 44.132 6.76423 40.3404 6.90256 40.3404C6.95135 40.3404 7.4835 40.677 8.08515 41.0883Z" fill="#13A2B7"/>
</svg>
